<?xml version="1.0" encoding="UTF-8"?>
<svg xmlns="http://www.w3.org/2000/svg" xmlns:xlink="http://www.w3.org/1999/xlink" width="74.823mm" height="46.388mm" viewBox="1650.943481 -1079.442993 74.823486 46.388428">
    <path transform="translate(1688.44104,-826.697021)" style="stroke:#000000;stroke-width:0.05mm;fill:none" d="M-3.223877,-234.289063C-3.503249,-234.208832,-3.757676,-234.05864,-3.962891,-233.852783C-4.475821,-233.419113,-4.916958,-232.907104,-5.27002,-232.335693C-6.172435,-230.974487,-6.785169,-229.442108,-7.070068,-227.833984C-7.123825,-227.623474,-7.117122,-227.401947,-7.050781,-227.195068L-7.018311,-227.156006C-6.911016,-227.136047,-6.801362,-227.177567,-6.734619,-227.263916C-6.486764,-227.487701,-6.261273,-227.735016,-6.061279,-228.002441C-4.655052,-229.778046,-3.400497,-231.66864,-2.310791,-233.654297C-2.358741,-233.843079,-2.464607,-234.012146,-2.613525,-234.137695C-2.779562,-234.285843,-3.007856,-234.342453,-3.223877,-234.289063z"/>
    <path transform="translate(1688.44104,-826.697021)" style="stroke:#000000;stroke-width:0.05mm;fill:none" d="M28.405518,-223.184082C27.051323,-221.935516,25.731056,-220.650024,24.446777,-219.32959C23.610161,-218.425873,22.86129,-217.444763,22.210205,-216.399414C21.232117,-214.772095,20.692654,-212.919266,20.644287,-211.02124C20.632036,-210.451706,20.73558,-209.885696,20.94873,-209.357422C21.174957,-208.806152,21.673338,-208.413406,22.262207,-208.322266C22.600525,-208.29245,22.940685,-208.351944,23.248779,-208.494873C24.038357,-208.86554,24.724163,-209.424973,25.24585,-210.124023C25.944241,-211.076797,26.503586,-212.123901,26.907227,-213.234131C27.66172,-215.304245,28.176308,-217.453979,28.440918,-219.641357C28.609146,-220.929535,28.71904,-222.224594,28.770264,-223.522705L28.405518,-223.184082z"/>
    <path transform="translate(1688.44104,-826.697021)" style="stroke:#000000;stroke-width:0.05mm;fill:none" d="M-22.313965,-248.4375C-23.839508,-248.372314,-25.345186,-248.068451,-26.776611,-247.536865C-26.832539,-247.515015,-26.873198,-247.465302,-26.882568,-247.406006L-26.908691,-247.093262C-26.930798,-246.85849,-26.956848,-246.624023,-26.986816,-246.390137L-27.097412,-245.27832C-27.209282,-244.162018,-27.298027,-243.043076,-27.363525,-241.923096C-27.478218,-237.912521,-27.348015,-233.89856,-26.973633,-229.903809C-26.864365,-228.271118,-26.661392,-226.645996,-26.365723,-225.036621C-26.249704,-224.34938,-26.096151,-223.668976,-25.905762,-222.998535C-25.902567,-222.969604,-25.888027,-222.94339,-25.866699,-222.923584C-25.668715,-223.063232,-25.483456,-223.220169,-25.313232,-223.392578L-25.077393,-223.587891C-22.391737,-225.692337,-19.444101,-227.438858,-16.30835,-228.783691L-15.396729,-229.200439C-14.38007,-231.018341,-13.537346,-232.927994,-12.879639,-234.904297C-12.56642,-236.04068,-12.336966,-237.198456,-12.193115,-238.368408C-12.097891,-239.377106,-12.086458,-240.391998,-12.158936,-241.402588C-12.189806,-241.718262,-12.251457,-242.030075,-12.343018,-242.33374C-12.442577,-242.946213,-12.619813,-243.543655,-12.870361,-244.111328C-13.735701,-245.658356,-15.12781,-246.842804,-16.793457,-247.449219C-17.705662,-247.85257,-18.663179,-248.14447,-19.645264,-248.318604C-20.53125,-248.417053,-21.422745,-248.456772,-22.313965,-248.4375z"/>
    <path transform="translate(506.161011,-1025.920044)" style="stroke:#000000;stroke-width:0.05mm;fill:none" d="M1155.485107,-53.522461L1155.522461,-53.52002L1155.559326,-53.515625L1155.596191,-53.509521L1155.632568,-53.501221L1155.668457,-53.491211L1155.703613,-53.479248L1155.738281,-53.465576L1155.758057,-53.456787L1155.900879,-53.390381L1155.934326,-53.373779L1155.966797,-53.355469L1155.998291,-53.335449L1156.028564,-53.313721L1156.057861,-53.290527L1156.087891,-53.263916L1156.199951,-53.158691L1156.226563,-53.132324L1156.251465,-53.104736L1156.275146,-53.075928L1156.297119,-53.045898L1156.317627,-53.014893L1156.337891,-52.980225L1156.411377,-52.845215L1156.428223,-52.812012L1156.443359,-52.777832L1156.456787,-52.743164L1156.468262,-52.707764L1156.478027,-52.671631L1156.486816,-52.629639L1156.514404,-52.474609L1156.52002,-52.437744L1156.523682,-52.400879L1156.524902,-52.376709L1156.5271,-52.316162L1156.534912,-52.23877L1156.537598,-52.20166L1156.538086,-52.148682L1156.529297,-51.824707L1156.527832,-51.794189L1156.505127,-51.470947L1156.502441,-51.441895L1156.466553,-51.119873L1156.462402,-51.089355L1156.416016,-50.790527L1156.391846,-50.54541L1156.366455,-50.256104L1156.362549,-50.222412L1156.361084,-50.212158L1156.726563,-50.312012L1156.765869,-50.321533L1157.752686,-50.531982L1157.792725,-50.539307L1158.78833,-50.692871L1158.828369,-50.697998L1159.830322,-50.794678L1159.870605,-50.797363L1160.876465,-50.837158L1160.916748,-50.837646L1161.923828,-50.820313L1161.964355,-50.818359L1162.970459,-50.743408L1163.010742,-50.739258L1164.013672,-50.606934L1164.047119,-50.601807L1164.514648,-50.517334L1164.541504,-50.511963L1165.005127,-50.409668L1165.031494,-50.403076L1165.490234,-50.283203L1165.516357,-50.275879L1165.970215,-50.138672L1165.996094,-50.130371L1166.444336,-49.97583L1166.469971,-49.966553L1166.912109,-49.794922L1166.937256,-49.784424L1167.372803,-49.595947L1167.397461,-49.584717L1167.826172,-49.379395L1167.855957,-49.364258L1168.321533,-49.11377L1168.36084,-49.091064L1168.806641,-48.813232L1168.844238,-48.788086L1169.268799,-48.484375L1169.304688,-48.457031L1169.707031,-48.128662L1169.740723,-48.099365L1170.120361,-47.747559L1170.1521,-47.716064L1170.507813,-47.342285L1170.537598,-47.309082L1170.868652,-46.914307L1170.89624,-46.879395L1171.20166,-46.465088L1171.226807,-46.428711L1171.505859,-45.996338L1171.528809,-45.958008L1171.780518,-45.508545L1171.801025,-45.468994L1172.024414,-45.003906L1172.042236,-44.963379L1172.236816,-44.483643L1172.252441,-44.441406L1172.416748,-43.94873L1172.429688,-43.905762L1172.563232,-43.401367L1172.573486,-43.356689L1172.675049,-42.841553L1172.682373,-42.797363L1172.751709,-42.272949L1172.755859,-42.232666L1172.797363,-41.676025L1172.798828,-41.64917L1172.819336,-41.092285L1172.819824,-41.066162L1172.819824,-40.509033L1172.819336,-40.482178L1172.79834,-39.925781L1172.796875,-39.899414L1172.755127,-39.344238L1172.752686,-39.317383L1172.689941,-38.763916L1172.686279,-38.737793L1172.603027,-38.186523L1172.598633,-38.1604L1172.494873,-37.612305L1172.489258,-37.585449L1172.301514,-36.767822L1172.296875,-36.748779L1172.086914,-35.937256L1172.081787,-35.918213L1171.849365,-35.113037L1171.843506,-35.094238L1171.589111,-34.296143L1171.583008,-34.277588L1171.306641,-33.486572L1171.300049,-33.468506L1171.002197,-32.685303L1170.994873,-32.666748L1170.890381,-32.413574L1171.259766,-32.562012L1173.068848,-33.294922L1173.074219,-33.297119L1173.660156,-33.529053L1173.664551,-33.530762L1174.181641,-33.731445L1174.200195,-33.738281L1174.469238,-33.834229L1174.596191,-34.063965L1174.621582,-34.106201L1174.909912,-34.552002L1174.938232,-34.592529L1175.256836,-35.017334L1175.287598,-35.055664L1175.635254,-35.458008L1175.6604,-35.485352L1175.677734,-35.50293L1175.894287,-35.713379L1175.921631,-35.73877L1175.9375,-35.752197L1176.169434,-35.943359L1176.198975,-35.966309L1176.214355,-35.977539L1176.459961,-36.14917L1176.491211,-36.169678L1176.508545,-36.180176L1176.766602,-36.331055L1176.799072,-36.348877L1176.817139,-36.35791L1177.08667,-36.487549L1177.12085,-36.50293L1177.139404,-36.510254L1177.418945,-36.61792L1177.454102,-36.630615L1177.4729,-36.63623L1177.760986,-36.721436L1177.796875,-36.731201L1177.817383,-36.73584L1178.113281,-36.797607L1178.149902,-36.804199L1178.186768,-36.808838L1178.208496,-36.810791L1178.52002,-36.832764L1178.557373,-36.834473L1178.594482,-36.833984L1178.614014,-36.833252L1178.921875,-36.814209L1178.958984,-36.810791L1179.013428,-36.80249L1179.313965,-36.744141L1179.350342,-36.736084L1179.404053,-36.720459L1179.693115,-36.623779L1179.728027,-36.61084L1179.777832,-36.589111L1180.052246,-36.456055L1180.085449,-36.438965L1180.133057,-36.410156L1180.388428,-36.241943L1180.419189,-36.220459L1180.436523,-36.206543L1180.561523,-36.276855L1180.594482,-36.294189L1180.628174,-36.309814L1180.679443,-36.32959L1180.836426,-36.383301L1180.87207,-36.394531L1180.908203,-36.403809L1180.961182,-36.413818L1181.124023,-36.438232L1181.161133,-36.442871L1181.198242,-36.445313L1181.249512,-36.445801L1181.414307,-36.441162L1181.451416,-36.439209L1181.488525,-36.435059L1181.540771,-36.42627L1181.703125,-36.39209L1181.739502,-36.383301L1181.775146,-36.372803L1181.826416,-36.354004L1181.982422,-36.290039L1182.016602,-36.275146L1182.049805,-36.258301L1182.082031,-36.239746L1182.099365,-36.229004L1182.244385,-36.13501L1182.275146,-36.11377L1182.304688,-36.091064L1182.339844,-36.060791L1182.468994,-35.94165L1182.49585,-35.915771L1182.520996,-35.888428L1182.544922,-35.859619L1182.567383,-35.829834L1182.587891,-35.798828L1182.609131,-35.762939L1182.692139,-35.612793L1182.709473,-35.579834L1182.724854,-35.545898L1182.738525,-35.51123L1182.750244,-35.47583L1182.76001,-35.439941L1182.768555,-35.401367L1182.800537,-35.232666L1182.806641,-35.195801L1182.810547,-35.158691L1182.812744,-35.121582L1182.812744,-35.084229L1182.811035,-35.047119L1182.806885,-35.00708L1182.783936,-34.833008L1182.781006,-34.813477L1182.643799,-33.957275L1182.642578,-33.949951L1182.500244,-33.116211L1182.356934,-31.944336L1182.272705,-30.81958L1182.235596,-29.678711L1182.246826,-28.54541L1182.305664,-27.431152L1182.374756,-26.962646L1182.475098,-26.488037L1182.604492,-26.023682L1182.762451,-25.567871L1182.9729,-25.784912L1183.220703,-26.078857L1183.445801,-26.387451L1183.659424,-26.727539L1184.361084,-27.916504L1185.018555,-29.118164L1185.638184,-30.344482L1186.160156,-31.466553L1186.187012,-32.35791L1186.1875,-32.368896L1186.225342,-33.196777L1186.22583,-33.207031L1186.275635,-34.034668L1186.276367,-34.044922L1186.338135,-34.871582L1186.340576,-34.896729L1186.353516,-35.013672L1186.358398,-35.050781L1186.365479,-35.087402L1186.374268,-35.123535L1186.385254,-35.15918L1186.391846,-35.178467L1186.431396,-35.287354L1186.445068,-35.322021L1186.460449,-35.355957L1186.477539,-35.388916L1186.496582,-35.421143L1186.507324,-35.437988L1186.571533,-35.534668L1186.593018,-35.565186L1186.615967,-35.594482L1186.640625,-35.622559L1186.666504,-35.64917L1186.683105,-35.665039L1186.769775,-35.744629L1186.797852,-35.769043L1186.827148,-35.791992L1186.857666,-35.813477L1186.88916,-35.833252L1186.921875,-35.851318L1186.955322,-35.867676L1186.989502,-35.882324L1187.029785,-35.896729L1187.306152,-35.987061L1187.341797,-35.997803L1187.378174,-36.006348L1187.411133,-36.012695L1187.696289,-36.059814L1187.733154,-36.064941L1187.770264,-36.068115L1187.802734,-36.069336L1188.091797,-36.073242L1188.128906,-36.072754L1188.16626,-36.070313L1188.199707,-36.066406L1188.487793,-36.026123L1188.524658,-36.02002L1188.561035,-36.011963L1188.596924,-36.001953L1188.632324,-35.990234L1188.666992,-35.976563L1188.700928,-35.961182L1188.726074,-35.948242L1188.811035,-35.902588L1188.843262,-35.884033L1188.874756,-35.864014L1188.905029,-35.842285L1188.934082,-35.818848L1188.961914,-35.793945L1188.992676,-35.763184L1189.057129,-35.69458L1189.082031,-35.666748L1189.105225,-35.637695L1189.126953,-35.607422L1189.147217,-35.575928L1189.165527,-35.543701L1189.183105,-35.508545L1189.2229,-35.42334L1189.237793,-35.38916L1189.250977,-35.354248L1189.262207,-35.318604L1189.271484,-35.282715L1189.279053,-35.246094L1189.285156,-35.203125L1189.296143,-35.107178L1189.299561,-35.070068L1189.300781,-35.031982L1189.30835,-34.055908L1189.30835,-34.046143L1189.307129,-33.863037L1189.364258,-33.945068L1189.38916,-33.97876L1189.802979,-34.505859L1189.82666,-34.534424L1189.851563,-34.561523L1190.0354,-34.751221L1190.062012,-34.777344L1190.097412,-34.808105L1190.301758,-34.974365L1190.331055,-34.99707L1190.370605,-35.023926L1190.593262,-35.164551L1190.625488,-35.183594L1190.667236,-35.205322L1190.906006,-35.319092L1190.939941,-35.334229L1190.974854,-35.347412L1191.010254,-35.359131L1191.046387,-35.368652L1191.088867,-35.377441L1191.301514,-35.414795L1191.338379,-35.42041L1191.375488,-35.423828L1191.412598,-35.425537L1191.449951,-35.425049L1191.504883,-35.420898L1191.715332,-35.396973L1191.752197,-35.391846L1191.788818,-35.384766L1191.824951,-35.375732L1191.860596,-35.36499L1191.907959,-35.347168L1192.103516,-35.265869L1192.137695,-35.250732L1192.170898,-35.233643L1192.203125,-35.215088L1192.234375,-35.19458L1192.278076,-35.161865L1192.446045,-35.025879L1192.474365,-35.001709L1192.511719,-34.965576L1192.667969,-34.802734L1192.702637,-34.763916L1192.846191,-34.590576L1192.877686,-34.549316L1193.007813,-34.366455L1193.036377,-34.323242L1193.152588,-34.131836L1193.177734,-34.08667L1193.279785,-33.887207L1193.302002,-33.839355L1193.38916,-33.632568L1193.407715,-33.584229L1193.479736,-33.371094L1193.494385,-33.321777L1193.551025,-33.103271L1193.554932,-33.087402L1193.811035,-31.996094L1193.816895,-31.968506L1194.027832,-30.876709L1194.175049,-30.163574L1194.241943,-29.908691L1194.322021,-29.65625L1194.376221,-29.510742L1194.409424,-29.560303L1194.508057,-29.748047L1194.905762,-30.599854L1195.224854,-31.352783L1195.255127,-32.357666L1195.255615,-32.368652L1195.293213,-33.196533L1195.293701,-33.206787L1195.343262,-34.034424L1195.343994,-34.044922L1195.405762,-34.871582L1195.408203,-34.896729L1195.421143,-35.013672L1195.426025,-35.050781L1195.433105,-35.087402L1195.441895,-35.123535L1195.452881,-35.15918L1195.459473,-35.178467L1195.499023,-35.287354L1195.512695,-35.322021L1195.528076,-35.355957L1195.545166,-35.388916L1195.564209,-35.421143L1195.576172,-35.439697L1195.640625,-35.536133L1195.662109,-35.566406L1195.685303,-35.595703L1195.709717,-35.623779L1195.73584,-35.650391L1195.75,-35.664063L1195.83667,-35.743896L1195.864746,-35.768311L1195.894043,-35.79126L1195.924561,-35.812744L1195.956055,-35.83252L1195.98877,-35.85083L1196.022217,-35.867188L1196.056396,-35.881836L1196.097656,-35.896729L1196.374023,-35.987061L1196.409668,-35.997803L1196.446045,-36.006348L1196.479004,-36.012695L1196.76416,-36.059814L1196.801025,-36.064941L1196.838135,-36.068115L1196.871094,-36.069336L1197.160156,-36.072998L1197.19751,-36.07251L1197.234619,-36.070068L1197.26709,-36.066162L1197.555176,-36.026123L1197.592041,-36.02002L1197.628418,-36.012207L1197.664307,-36.002197L1197.699707,-35.990479L1197.734375,-35.976807L1197.768311,-35.961426L1197.796143,-35.947021L1197.880859,-35.901123L1197.913086,-35.882568L1197.944336,-35.862305L1197.974609,-35.840332L1198.003418,-35.816895L1198.03125,-35.791992L1198.059326,-35.763916L1198.124023,-35.695313L1198.148926,-35.66748L1198.172363,-35.638428L1198.194092,-35.608154L1198.214355,-35.576904L1198.23291,-35.544434L1198.250977,-35.508301L1198.290771,-35.423096L1198.305664,-35.388916L1198.318848,-35.354004L1198.330078,-35.318359L1198.339355,-35.282471L1198.346924,-35.24585L1198.353027,-35.203125L1198.364014,-35.107422L1198.367188,-35.070313L1198.368652,-35.031738L1198.375977,-34.055664L1198.375977,-34.046143L1198.374756,-33.862549L1198.432129,-33.945068L1198.457031,-33.97876L1198.87085,-34.505859L1198.894531,-34.534424L1198.919434,-34.561523L1199.103271,-34.751221L1199.129883,-34.777344L1199.165283,-34.808105L1199.369629,-34.974365L1199.398926,-34.99707L1199.438477,-35.023926L1199.661133,-35.164551L1199.693359,-35.183594L1199.735107,-35.205322L1199.973877,-35.319092L1200.007813,-35.334229L1200.042725,-35.347412L1200.078125,-35.359131L1200.114258,-35.368652L1200.157471,-35.377686L1200.370117,-35.414795L1200.406982,-35.420166L1200.444092,-35.423584L1200.481445,-35.425293L1200.518555,-35.424805L1200.572021,-35.420898L1200.782471,-35.397217L1200.819336,-35.39209L1200.855957,-35.38501L1200.89209,-35.375977L1200.927734,-35.365234L1200.976563,-35.346924L1201.172119,-35.265381L1201.206055,-35.25L1201.239258,-35.233154L1201.271484,-35.214355L1201.302734,-35.194092L1201.345459,-35.162109L1201.513428,-35.026367L1201.541748,-35.002197L1201.579834,-34.965088L1201.736084,-34.802002L1201.77002,-34.76416L1201.913574,-34.591064L1201.946045,-34.548828L1202.075928,-34.365967L1202.104248,-34.322754L1202.220459,-34.131104L1202.245361,-34.086426L1202.347412,-33.886963L1202.369385,-33.840088L1202.456787,-33.633545L1202.475586,-33.584229L1202.547607,-33.371094L1202.562256,-33.321777L1202.618896,-33.103271L1202.622803,-33.087402L1202.878906,-31.996094L1202.884766,-31.968506L1203.095947,-30.875488L1203.185547,-30.4375L1203.1875,-30.42749L1203.247803,-30.109375L1203.326904,-29.824707L1203.428223,-29.549316L1203.447021,-29.508789L1203.467773,-29.538574L1203.577637,-29.751221L1203.712158,-30.024902L1203.778809,-30.172363L1203.782227,-30.38623L1203.783203,-30.412598L1203.826904,-31.233154L1203.82959,-31.26709L1203.912598,-32.084229L1203.916748,-32.118408L1204.039063,-32.93042L1204.045166,-32.964111L1204.206543,-33.77002L1204.21875,-33.821045L1204.264404,-33.985107L1204.275146,-34.020752L1204.288086,-34.055664L1204.297607,-34.078857L1204.365479,-34.234375L1204.381348,-34.268066L1204.398926,-34.301025L1204.411377,-34.32251L1204.500244,-34.467041L1204.520752,-34.498291L1204.542725,-34.52832L1204.557373,-34.546631L1204.665771,-34.678223L1204.690186,-34.706299L1204.716064,-34.733154L1204.743164,-34.758545L1204.771729,-34.782471L1204.801514,-34.804932L1204.83252,-34.825928L1204.860596,-34.842773L1205.052002,-34.952637L1205.084717,-34.970459L1205.118408,-34.986328L1205.152832,-35.000488L1205.172607,-35.007813L1205.37915,-35.07959L1205.414551,-35.09082L1205.450684,-35.100342L1205.487061,-35.107666L1205.507813,-35.111084L1205.724365,-35.143311L1205.761475,-35.147949L1205.798584,-35.150391L1205.835938,-35.151123L1205.856689,-35.150635L1206.077148,-35.14209L1206.094238,-35.141113L1206.245117,-35.131592L1206.282471,-35.128418L1206.312012,-35.124268L1206.460938,-35.100586L1206.497803,-35.09375L1206.526367,-35.086914L1206.672607,-35.049316L1206.708496,-35.039063L1206.736328,-35.029785L1206.878906,-34.978516L1206.913574,-34.965088L1206.94751,-34.949707L1206.980713,-34.932617L1207.012939,-34.913818L1207.043945,-34.893311L1207.073975,-34.871338L1207.102783,-34.847656L1207.130371,-34.822754L1207.156738,-34.796143L1207.184814,-34.76416L1207.283936,-34.64502L1207.307129,-34.615723L1207.328613,-34.585449L1207.348389,-34.553711L1207.366699,-34.52124L1207.383301,-34.487793L1207.394043,-34.462891L1207.452148,-34.322998L1207.465576,-34.28833L1207.477051,-34.25293L1207.486816,-34.216797L1207.494629,-34.18042L1207.500488,-34.143555L1207.503174,-34.118896L1207.517822,-33.968018L1207.520508,-33.930908L1207.52124,-33.893799L1207.52002,-33.856445L1207.516846,-33.819336L1207.511475,-33.782471L1207.506592,-33.756104L1207.475342,-33.604248L1207.472412,-33.590332L1207.4375,-33.436279L1207.427979,-33.398926L1207.38916,-33.262695L1207.284912,-32.824219L1207.189453,-32.35791L1207.10791,-31.873779L1207.044922,-31.402588L1206.996582,-30.916992L1206.96582,-30.44165L1206.950928,-29.953125L1206.953125,-29.473145L1206.970947,-29.006104L1206.995605,-28.803955L1207.040771,-28.605469L1207.074463,-28.505371L1207.076172,-28.506348L1207.199951,-28.620605L1207.325195,-28.773926L1207.617432,-29.1875L1207.898682,-29.628174L1208.153564,-30.072266L1208.390869,-30.53418L1208.665039,-31.108154L1208.915039,-31.678955L1209.148926,-32.265381L1209.359619,-32.849121L1209.554199,-33.44873L1209.726318,-34.046143L1209.880859,-34.656738L1210.013428,-35.265869L1210.224365,-36.354492L1210.232422,-36.390869L1210.242432,-36.426758L1210.25415,-36.462158L1210.267822,-36.496826L1210.277832,-36.519287L1210.340332,-36.653564L1210.356934,-36.687012L1210.375244,-36.719482L1210.395264,-36.750977L1210.416992,-36.78125L1210.428955,-36.796875L1210.52124,-36.912598L1210.54541,-36.941162L1210.570801,-36.968506L1210.597656,-36.994141L1210.625732,-37.018555L1210.645264,-37.03418L1210.764648,-37.125488L1210.794922,-37.147217L1210.826172,-37.16748L1210.858398,-37.186035L1210.891846,-37.203125L1210.925781,-37.218018L1210.960693,-37.231445L1210.996094,-37.24292L1211.049316,-37.256348L1211.19458,-37.287109L1211.231445,-37.293945L1211.268311,-37.298584L1211.30542,-37.301514L1211.342773,-37.30249L1211.379883,-37.301514L1211.430664,-37.296875L1211.574463,-37.278809L1211.611328,-37.273193L1211.647949,-37.265869L1211.683838,-37.256348L1211.719482,-37.245117L1211.75415,-37.231934L1211.797119,-37.212646L1211.92749,-37.14917L1211.960693,-37.13208L1211.992676,-37.113037L1212.023926,-37.092529L1212.053711,-37.070313L1212.08252,-37.046631L1212.12085,-37.010986L1212.225586,-36.905518L1212.251221,-36.878418L1212.275146,-36.849854L1212.297852,-36.820313L1212.32373,-36.781738L1212.469727,-36.548584L1212.48877,-36.516602L1212.507324,-36.480225L1212.626465,-36.233398L1212.641846,-36.199463L1212.656494,-36.161621L1212.748047,-35.903076L1212.759521,-35.867676L1212.769775,-35.829346L1212.833008,-35.561768L1212.841064,-35.522949L1213.069092,-34.244141L1213.073242,-34.217041L1213.251709,-32.930908L1213.255127,-32.903564L1213.383301,-31.611572L1213.385498,-31.583984L1213.463379,-30.287598L1213.463623,-30.28418L1213.526367,-29.147949L1213.526367,-29.144531L1213.539551,-28.882324L1213.639404,-28.979248L1214.611572,-29.973389L1215.577881,-30.978516L1216.534912,-31.991699L1217.48291,-33.013672L1217.508301,-33.039551L1217.613525,-33.141846L1217.67627,-33.210205L1217.702148,-33.237061L1217.729492,-33.262451L1217.758057,-33.286377L1217.780029,-33.302979L1217.869873,-33.368652L1217.900391,-33.389893L1217.932129,-33.409424L1217.964844,-33.427246L1217.987793,-33.438477L1218.088379,-33.485596L1218.122559,-33.500488L1218.157471,-33.513672L1218.193115,-33.524902L1218.218262,-33.531738L1218.327148,-33.558838L1218.36377,-33.566895L1218.400391,-33.572998L1218.4375,-33.577148L1218.474609,-33.579346L1218.511963,-33.579834L1218.549072,-33.578125L1218.586182,-33.574463L1218.623047,-33.568848L1218.659668,-33.561523L1218.687256,-33.554443L1218.787842,-33.526855L1218.823486,-33.516113L1218.858398,-33.503418L1218.892822,-33.489014L1218.925049,-33.473389L1219.01709,-33.426025L1219.049805,-33.408203L1219.081543,-33.388672L1219.112061,-33.367432L1219.140625,-33.345215L1219.220703,-33.280029L1219.249023,-33.255859L1219.275879,-33.22998L1219.301514,-33.202881L1219.324219,-33.176514L1219.390137,-33.095215L1219.412842,-33.065674L1219.433838,-33.034912L1219.453369,-33.003174L1219.471191,-32.970459L1219.482422,-32.947266L1219.53125,-32.842285L1219.546143,-32.807861L1219.559082,-32.772949L1219.570313,-32.737549L1219.57959,-32.701416L1219.586914,-32.664795L1219.592529,-32.62793L1219.595703,-32.594971L1219.604248,-32.480225L1219.605957,-32.443115L1219.605957,-32.405762L1219.60376,-32.368652L1219.599609,-32.331543L1219.59375,-32.294678L1219.585938,-32.258301L1219.575928,-32.222412L1219.56958,-32.202148L1219.533203,-32.093262L1219.520508,-32.058105L1219.505859,-32.023926L1219.489502,-31.990479L1219.471436,-31.957764L1219.451904,-31.92627L1219.43042,-31.895752L1219.410645,-31.870117L1219.337646,-31.780273L1219.318604,-31.758057L1217.914063,-30.167725L1217.900146,-30.152344L1216.450439,-28.604004L1216.436035,-28.589111L1214.94165,-27.08374L1214.927002,-27.069336L1213.603027,-25.810791L1213.569824,-24.486816L1213.569092,-24.466064L1213.481201,-22.849854L1213.479736,-22.828857L1213.343994,-21.21582L1213.341797,-21.194824L1213.158447,-19.586426L1213.156494,-19.571045L1213.057129,-18.842041L1213.053955,-18.819824L1212.931885,-18.094971L1212.927734,-18.073486L1212.783447,-17.353027L1212.778809,-17.331543L1212.612305,-16.615967L1212.607178,-16.594727L1212.418701,-15.884766L1212.412598,-15.863525L1212.202148,-15.159424L1212.195557,-15.138184L1211.963135,-14.440918L1211.955811,-14.42041L1211.701904,-13.72998L1211.689453,-13.698486L1211.438232,-13.104004L1211.425049,-13.074463L1211.147461,-12.493164L1211.132813,-12.464355L1210.829346,-11.896729L1210.813232,-11.868408L1210.484375,-11.315674L1210.467285,-11.288086L1210.113525,-10.750732L1210.094971,-10.723877L1209.716797,-10.203125L1209.697266,-10.17749L1209.29541,-9.673828L1209.274414,-9.648926L1208.849365,-9.163574L1208.828857,-9.141113L1208.588623,-8.889404L1208.558838,-8.859863L1208.304932,-8.623535L1208.273438,-8.595703L1208.006348,-8.375L1207.973145,-8.349365L1207.693848,-8.14502L1207.659912,-8.121582L1207.369385,-7.933838L1207.333252,-7.912109L1207.031738,-7.741699L1206.995117,-7.722412L1206.683594,-7.56958L1206.64502,-7.552002L1206.324219,-7.417725L1206.304932,-7.409912L1206.085449,-7.325439L1206.050293,-7.312988L1206.02832,-7.306152L1205.803711,-7.240967L1205.767578,-7.231689L1205.744873,-7.226563L1205.516357,-7.180908L1205.479492,-7.174561L1205.45752,-7.171875L1205.226318,-7.145508L1205.189209,-7.14209L1205.165771,-7.141113L1204.933105,-7.134521L1204.895996,-7.134521L1204.873535,-7.135254L1204.640869,-7.148193L1204.60376,-7.151367L1204.580811,-7.154297L1204.349365,-7.187012L1204.312744,-7.193115L1204.290039,-7.197998L1204.061035,-7.250488L1204.024902,-7.259766L1203.989502,-7.270752L1203.95459,-7.283691L1203.924805,-7.296631L1203.617188,-7.437012L1203.583496,-7.453369L1203.544922,-7.475098L1203.256104,-7.649414L1203.224609,-7.669434L1203.189209,-7.695068L1202.922363,-7.900879L1202.893555,-7.924561L1202.861328,-7.953857L1202.618652,-8.189453L1202.605225,-8.202881L1202.452637,-8.359131L1202.416016,-8.399414L1202.276611,-8.565918L1202.242676,-8.609863L1202.116943,-8.786377L1202.087646,-8.831299L1201.97583,-9.016357L1201.949219,-9.063965L1201.851807,-9.257324L1201.82959,-9.306396L1201.74707,-9.506592L1201.728027,-9.557861L1201.660889,-9.764648L1201.645996,-9.817383L1201.594727,-10.029541L1201.587891,-10.061523L1201.504639,-10.492432L1201.498291,-10.530273L1201.438477,-10.964355L1201.434326,-11.001953L1201.397705,-11.437744L1201.395508,-11.47583L1201.382324,-11.912842L1201.382324,-11.950684L1201.392334,-12.387695L1201.394043,-12.425293L1201.427246,-12.861572L1201.431152,-12.899658L1201.487793,-13.333984L1201.493896,-13.371582L1201.573975,-13.803223L1201.576416,-13.81665L1201.704102,-14.438477L1201.713379,-14.477051L1201.875244,-15.0896L1201.88623,-15.127197L1202.081299,-15.729004L1202.094482,-15.766113L1202.322266,-16.355713L1202.337402,-16.391846L1202.597412,-16.968018L1202.614502,-17.003662L1202.90625,-17.564941L1202.925293,-17.599121L1203.248047,-18.144287L1203.269043,-18.177734L1203.622314,-18.705322L1203.635498,-18.724121L1204.219727,-19.53833L1204.243408,-19.56958L1204.871094,-20.350098L1204.89624,-20.379639L1205.565674,-21.124512L1205.592773,-21.153076L1206.302979,-21.860596L1206.305908,-21.863525L1208.038574,-23.569092L1208.046143,-23.576172L1209.792236,-25.24585L1210.386963,-25.840576L1210.365234,-27.467773L1210.365234,-27.471924L1210.361816,-27.927002L1210.339111,-28.952637L1210.321777,-29.344727L1210.244141,-29.190674L1210.226563,-29.157715L1209.792969,-28.399414L1209.773438,-28.367188L1209.300049,-27.632568L1209.279053,-27.601807L1209.266846,-27.585449L1208.969482,-27.197021L1208.946045,-27.167969L1208.928955,-27.148682L1208.599121,-26.789063L1208.573242,-26.762207L1208.554688,-26.744873L1208.194336,-26.415527L1208.16626,-26.391113L1208.145996,-26.375L1207.757324,-26.078369L1207.727295,-26.056641L1207.695801,-26.036377L1207.654541,-26.013184L1207.377197,-25.868652L1207.34375,-25.852295L1207.30957,-25.837646L1207.263428,-25.821289L1206.967529,-25.727539L1206.931641,-25.717285L1206.895264,-25.70874L1206.847168,-25.700684L1206.539307,-25.659424L1206.502197,-25.655273L1206.465088,-25.65332L1206.416016,-25.653564L1206.10376,-25.66626L1206.066406,-25.668945L1206.029541,-25.67334L1205.992676,-25.679688L1205.956543,-25.687988L1205.922852,-25.697266L1205.633301,-25.786621L1205.5979,-25.798584L1205.563232,-25.8125L1205.529541,-25.827881L1205.498535,-25.843994L1205.236084,-25.989258L1205.204102,-26.008301L1205.172852,-26.028809L1205.143066,-26.051025L1205.116699,-26.07251L1204.889404,-26.268066L1204.861816,-26.292969L1204.835449,-26.31958L1204.810791,-26.347168L1204.788818,-26.374512L1204.604492,-26.61499L1204.58252,-26.64502L1204.562256,-26.67627L1204.547852,-26.701172L1204.36084,-27.036377L1204.343506,-27.069336L1204.337402,-27.08252L1204.30542,-27.057373L1204.275391,-27.035156L1204.244385,-27.014648L1204.224609,-27.002686L1203.961426,-26.849609L1203.928711,-26.831787L1203.89502,-26.81543L1203.860596,-26.80127L1203.831543,-26.790771L1203.617188,-26.718262L1203.581787,-26.707031L1203.545654,-26.697998L1203.505127,-26.690186L1203.286133,-26.654053L1203.249268,-26.648926L1203.212158,-26.645752L1203.172852,-26.644531L1202.953613,-26.643799L1202.91626,-26.644531L1202.87915,-26.647461L1202.840576,-26.652344L1202.625,-26.686279L1202.588379,-26.693115L1202.552002,-26.701904L1202.516602,-26.712158L1202.309082,-26.779297L1202.273926,-26.791748L1202.239502,-26.805908L1202.20459,-26.822754L1202.009521,-26.922363L1201.976807,-26.940186L1201.945068,-26.959473L1201.913086,-26.981689L1201.733887,-27.112793L1201.704346,-27.135498L1201.676025,-27.159912L1201.645508,-27.189209L1201.487305,-27.35083L1201.461914,-27.378174L1201.437988,-27.406738L1201.424805,-27.424072L1201.125244,-27.827148L1201.10376,-27.857666L1201.08252,-27.891602L1200.829102,-28.32373L1200.811035,-28.356445L1200.793701,-28.392334L1200.588623,-28.849365L1200.574219,-28.883789L1200.560791,-28.921875L1200.40625,-29.399902L1200.391357,-29.452881L1200.209229,-30.213135L1200.203613,-30.239502L1200.050293,-31.005859L1200.04541,-31.031982L1199.920898,-31.803467L1199.917236,-31.82959L1199.889404,-32.055664L1199.701172,-31.752686L1199.456787,-31.322021L1199.22998,-30.883789L1199.015869,-30.42749L1198.824707,-29.975342L1198.641113,-29.488525L1198.263184,-28.438721L1198.22998,-27.040527L1198.230225,-27.040527L1198.200928,-25.523193L1198.200439,-25.509766L1198.185791,-25.124268L1198.18335,-25.087158L1198.180908,-25.063721L1198.158203,-24.881104L1198.152588,-24.844238L1198.147949,-24.819824L1198.109375,-24.639648L1198.100586,-24.603516L1198.093506,-24.57959L1198.039307,-24.40332L1198.027588,-24.36792L1198.013916,-24.333252L1197.998291,-24.299316L1197.980957,-24.266357L1197.962158,-24.234375L1197.941406,-24.203369L1197.919189,-24.17334L1197.895508,-24.144775L1197.870117,-24.117188L1197.843506,-24.091064L1197.817139,-24.067871L1197.728516,-23.993408L1197.699463,-23.970215L1197.668945,-23.948486L1197.637695,-23.928467L1197.593262,-23.903809L1197.491455,-23.852051L1197.457764,-23.836182L1197.42334,-23.821777L1197.388184,-23.80957L1197.342773,-23.796387L1197.232178,-23.768555L1197.195801,-23.760498L1197.158936,-23.75415L1197.12207,-23.75L1197.071045,-23.74707L1196.609863,-23.739014L1196.558594,-23.73999L1196.213867,-23.758789L1196.176758,-23.761963L1196.139893,-23.766846L1196.103271,-23.773682L1196.067139,-23.782471L1196.031494,-23.792969L1195.936768,-23.823975L1195.901611,-23.83667L1195.867188,-23.85083L1195.83374,-23.866943L1195.801025,-23.88501L1195.759277,-23.910889L1195.678467,-23.965576L1195.648193,-23.987305L1195.619141,-24.010498L1195.591309,-24.0354L1195.564697,-24.061523L1195.535156,-24.094238L1195.471924,-24.168701L1195.448486,-24.197754L1195.426514,-24.228027L1195.406494,-24.259277L1195.387939,-24.291748L1195.366699,-24.334229L1195.325439,-24.424805L1195.310791,-24.459229L1195.298096,-24.494141L1195.287354,-24.529785L1195.27832,-24.565918L1195.271973,-24.598389L1195.227783,-24.85376L1195.222412,-24.890625L1195.218018,-24.940186L1195.205322,-25.199219L1195.20459,-25.228027L1195.199707,-25.784424L1195.184082,-26.637451L1195.184082,-26.645996L1195.181885,-27.008301L1195.169434,-27.000977L1194.910156,-26.855713L1194.877197,-26.838379L1194.843262,-26.822754L1194.808594,-26.808838L1194.783936,-26.800293L1194.501465,-26.707764L1194.46582,-26.697021L1194.429443,-26.688232L1194.392822,-26.681396L1194.366211,-26.67749L1194.068604,-26.641113L1194.031494,-26.637695L1193.994385,-26.635986L1193.957031,-26.636475L1193.908936,-26.639893L1193.730469,-26.658447L1193.693359,-26.663086L1193.648438,-26.671875L1193.475342,-26.710693L1193.439209,-26.719727L1193.395264,-26.733398L1193.229004,-26.791748L1193.194336,-26.805176L1193.154785,-26.822754L1192.996338,-26.899414L1192.963379,-26.916504L1192.925293,-26.938965L1192.7771,-27.032959L1192.746094,-27.053711L1192.710449,-27.080811L1192.573242,-27.191895L1192.544922,-27.216064L1192.512939,-27.246582L1192.388672,-27.373291L1192.363281,-27.400635L1192.33374,-27.436523L1192.224121,-27.578369L1192.194092,-27.620361L1192.029053,-27.869385L1192.008789,-27.901611L1191.857666,-28.158447L1191.839844,-28.190674L1191.702393,-28.454834L1191.686035,-28.488525L1191.562744,-28.759277L1191.548096,-28.793701L1191.439209,-29.070557L1191.426514,-29.105713L1191.332275,-29.388184L1191.321289,-29.424072L1191.241943,-29.711426L1191.23291,-29.747803L1191.168701,-30.039551L1191.163086,-30.068115L1190.905518,-31.519775L1190.9021,-31.540527L1190.825439,-32.062012L1190.633301,-31.752686L1190.388916,-31.322021L1190.162109,-30.883789L1189.949219,-30.429932L1189.755371,-29.970703L1189.573486,-29.488525L1189.195313,-28.438477L1189.162109,-27.040527L1189.162354,-27.040527L1189.133057,-25.523193L1189.132568,-25.509766L1189.11792,-25.124268L1189.115479,-25.087158L1189.113037,-25.063721L1189.090332,-24.881104L1189.084717,-24.844238L1189.080078,-24.819824L1189.041504,-24.639648L1189.032715,-24.603516L1189.025635,-24.57959L1188.971436,-24.40332L1188.959717,-24.36792L1188.946045,-24.333252L1188.93042,-24.299316L1188.913086,-24.266357L1188.894287,-24.234375L1188.873535,-24.203369L1188.851318,-24.17334L1188.827637,-24.144775L1188.802246,-24.117188L1188.775635,-24.091064L1188.748535,-24.067139L1188.659668,-23.992676L1188.630371,-23.969482L1188.600098,-23.947998L1188.568604,-23.927979L1188.525879,-23.904297L1188.424316,-23.852539L1188.390625,-23.836426L1188.356201,-23.822021L1188.321045,-23.80957L1188.274414,-23.796387L1188.163574,-23.768555L1188.127197,-23.760254L1188.090576,-23.75415L1188.053467,-23.749756L1188.00293,-23.74707L1187.541992,-23.739014L1187.490723,-23.73999L1187.145996,-23.758789L1187.108887,-23.761963L1187.072021,-23.766846L1187.0354,-23.773682L1186.999268,-23.782471L1186.963623,-23.792969L1186.868896,-23.823975L1186.83374,-23.83667L1186.799316,-23.85083L1186.765869,-23.866943L1186.733154,-23.88501L1186.692627,-23.910156L1186.611816,-23.9646L1186.581543,-23.986328L1186.55249,-24.009521L1186.524414,-24.03418L1186.497803,-24.060303L1186.467285,-24.093994L1186.404053,-24.168457L1186.380615,-24.19751L1186.358643,-24.227783L1186.338623,-24.259033L1186.320068,-24.291504L1186.298584,-24.334717L1186.257324,-24.425537L1186.242676,-24.459961L1186.22998,-24.494873L1186.219238,-24.530518L1186.210205,-24.56665L1186.204102,-24.598389L1186.159912,-24.85376L1186.154541,-24.890625L1186.150146,-24.940186L1186.137451,-25.199219L1186.136719,-25.228027L1186.131836,-25.784424L1186.120361,-26.414063L1185.870361,-25.987061L1185.859375,-25.969238L1185.375732,-25.196289L1185.351807,-25.160156L1185.033936,-24.715088L1185.002441,-24.674316L1184.653809,-24.25415L1184.619629,-24.216064L1184.241699,-23.822021L1184.20459,-23.785889L1183.798584,-23.419922L1183.770264,-23.395752L1183.740723,-23.373047L1183.703613,-23.347656L1183.411133,-23.162109L1183.37915,-23.143066L1183.346191,-23.125488L1183.305908,-23.107178L1182.989258,-22.973877L1182.95459,-22.960449L1182.919189,-22.94873L1182.877197,-22.937256L1182.542969,-22.858154L1182.506348,-22.850586L1182.469727,-22.844971L1182.425293,-22.840576L1182.079834,-22.818115L1182.04248,-22.81665L1182.005371,-22.817139L1181.968262,-22.81958L1181.931152,-22.823975L1181.894531,-22.830322L1181.863525,-22.837402L1181.686279,-22.881104L1181.650146,-22.890869L1181.618652,-22.901367L1181.447998,-22.961914L1181.413086,-22.975098L1181.384033,-22.988037L1181.220947,-23.064453L1181.187744,-23.081299L1181.159912,-23.09668L1181.005127,-23.188477L1180.973633,-23.208496L1180.947754,-23.226563L1180.802734,-23.332764L1180.773193,-23.355469L1180.748291,-23.376953L1180.614014,-23.497314L1180.586914,-23.522949L1180.564697,-23.545898L1180.442383,-23.679199L1180.417725,-23.70752L1180.397949,-23.732666L1180.28833,-23.878418L1180.260742,-23.917725L1180.099121,-24.165771L1180.078613,-24.198975L1179.931152,-24.455078L1179.912598,-24.48999L1179.779785,-24.753418L1179.762939,-24.788818L1179.64502,-25.058838L1179.630371,-25.095703L1179.527588,-25.37207L1179.514648,-25.409668L1179.42749,-25.691406L1179.416992,-25.72876L1179.345215,-26.015381L1179.33667,-26.053955L1179.280762,-26.344727L1179.276123,-26.372803L1179.145996,-27.235107L1179.141113,-27.272705L1179.057129,-28.140137L1179.054688,-28.17749L1179.016357,-29.04834L1179.015625,-29.086182L1179.023682,-29.946045L1178.282959,-28.966064L1177.954102,-28.483887L1177.931885,-28.453125L1177.569336,-27.977783L1177.545654,-27.948486L1177.158447,-27.493164L1177.133301,-27.465088L1176.722412,-27.030762L1176.696289,-27.004639L1176.464111,-26.783447L1176.436523,-26.758301L1176.410889,-26.737305L1176.158447,-26.540527L1176.128418,-26.518555L1176.101074,-26.500244L1175.830566,-26.329346L1175.798584,-26.310303L1175.769287,-26.294678L1175.482666,-26.151123L1175.44873,-26.135498L1175.414307,-26.121338L1175.386963,-26.111816L1175.26123,-26.070313L1175.225586,-26.05957L1175.189453,-26.050537L1175.149414,-26.043213L1175.02124,-26.022949L1174.984375,-26.018066L1174.947021,-26.015137L1174.911621,-26.01416L1174.783203,-26.013916L1174.74585,-26.014893L1174.70874,-26.017578L1174.673096,-26.022217L1174.546631,-26.041748L1174.51001,-26.04834L1174.473877,-26.056885L1174.439453,-26.066895L1174.317627,-26.105713L1174.282227,-26.118164L1174.247803,-26.13208L1174.21582,-26.146973L1174.10083,-26.204346L1174.068115,-26.221924L1174.036133,-26.241211L1174.005371,-26.261963L1173.899658,-26.337402L1173.869873,-26.359863L1173.841309,-26.383789L1173.8125,-26.410645L1173.718506,-26.503662L1173.692627,-26.530762L1173.669678,-26.557373L1173.539063,-26.716064L1173.516113,-26.745361L1173.494629,-26.775879L1173.472168,-26.812256L1173.370117,-26.989014L1173.352295,-27.021973L1173.336426,-27.05542L1173.320313,-27.094727L1173.248535,-27.285889L1173.236328,-27.321045L1173.226074,-27.356934L1173.216309,-27.39917L1173.176758,-27.601074L1173.17041,-27.638428L1173.113037,-28.04541L1173.108398,-28.087158L1173.075195,-28.49585L1173.073242,-28.536133L1173.063232,-28.945313L1173.063477,-28.986328L1173.077148,-29.395264L1173.07959,-29.436035L1173.116699,-29.843262L1173.121582,-29.884033L1173.182129,-30.288818L1173.189453,-30.329346L1173.273438,-30.730713L1173.282959,-30.770264L1173.330811,-30.947266L1171.700684,-30.288818L1169.484375,-29.370361L1169.212402,-28.826172L1169.201904,-28.806152L1168.555664,-27.610107L1168.543457,-27.588379L1167.856201,-26.416992L1167.843018,-26.395508L1167.115234,-25.249756L1167.101318,-25.22876L1166.333984,-24.109863L1166.319336,-24.089355L1165.512695,-22.998291L1165.497559,-22.978516L1164.652832,-21.916016L1164.636963,-21.896484L1163.754639,-20.864014L1163.737793,-20.845215L1162.818848,-19.84375L1162.804688,-19.828613L1162.337891,-19.348877L1162.324219,-19.335449L1161.845215,-18.869141L1161.831055,-18.855469L1161.339355,-18.402588L1161.324707,-18.389648L1160.820801,-17.950439L1160.806152,-17.937988L1160.290527,-17.512695L1160.274902,-17.500244L1159.747559,-17.089355L1159.732178,-17.077637L1159.193604,-16.681152L1159.177979,-16.669922L1158.628662,-16.288086L1158.605957,-16.273193L1158.250488,-16.045654L1158.223145,-16.028809L1157.858398,-15.817871L1157.830811,-15.802734L1157.45752,-15.608398L1157.429199,-15.594482L1157.047852,-15.416992L1157.019043,-15.404297L1156.630127,-15.243896L1156.600098,-15.232422L1156.204102,-15.0896L1156.174561,-15.07959L1155.772217,-14.954102L1155.741211,-14.945313L1155.333252,-14.838135L1155.297119,-14.82959L1155.277588,-14.825684L1155.013916,-14.778564L1154.977295,-14.772949L1154.935303,-14.769043L1154.670654,-14.751709L1154.633545,-14.750244L1154.592773,-14.750977L1154.329102,-14.762695L1154.291748,-14.765381L1154.250977,-14.770508L1153.990967,-14.811035L1153.954346,-14.817627L1153.915039,-14.827148L1153.661133,-14.895752L1153.625488,-14.90625L1153.58667,-14.920166L1153.341064,-15.016602L1153.306885,-15.03125L1153.27002,-15.049316L1153.035156,-15.172852L1153.002686,-15.190918L1152.967285,-15.213379L1152.745605,-15.363525L1152.715332,-15.385254L1152.686279,-15.408447L1152.671631,-15.421143L1152.531494,-15.545898L1152.504395,-15.571533L1152.478516,-15.598389L1152.446533,-15.635986L1152.331299,-15.781738L1152.308838,-15.811523L1152.288086,-15.842529L1152.263672,-15.884521L1152.175049,-16.04834L1152.158203,-16.081543L1152.143066,-16.115723L1152.126221,-16.160645L1152.06665,-16.338379L1152.055664,-16.374023L1152.048828,-16.400391L1151.959961,-16.775391L1151.952393,-16.812012L1151.947021,-16.846924L1151.896973,-17.228271L1151.893066,-17.265381L1151.891113,-17.30127L1151.880615,-17.685791L1151.880615,-17.723145L1151.882324,-17.758545L1151.911133,-18.143066L1151.914795,-18.180176L1151.920654,-18.216797L1151.925781,-18.24292L1152.003418,-18.595215L1152.012451,-18.631348L1152.108154,-18.978271L1152.118652,-19.013184L1152.231934,-19.354492L1152.244385,-19.388916L1152.375,-19.723633L1152.38916,-19.75708L1152.536621,-20.084473L1152.552734,-20.11792L1152.717285,-20.437744L1152.734863,-20.469971L1152.915771,-20.781006L1152.935059,-20.812012L1153.132324,-21.114258L1153.148438,-21.138184L1153.490723,-21.618896L1153.508789,-21.643311L1153.871094,-22.108643L1153.890137,-22.131836L1154.271973,-22.581543L1154.273926,-22.58374L1154.270996,-22.585449L1154.251953,-22.5979L1154.05957,-22.72998L1154.029541,-22.751953L1154.000488,-22.775391L1153.9729,-22.800293L1153.946533,-22.82666L1153.931152,-22.843262L1153.775879,-23.017578L1153.751709,-23.046143L1153.729248,-23.075928L1153.708252,-23.106689L1153.688965,-23.138428L1153.676758,-23.160889L1153.566895,-23.37085L1153.550537,-23.404297L1153.535889,-23.438721L1153.522949,-23.473633L1153.515625,-23.496582L1153.385254,-23.931885L1153.375,-23.970215L1153.269043,-24.412109L1153.260986,-24.450439L1153.179688,-24.897217L1153.173584,-24.937256L1153.117676,-25.388428L1153.116455,-25.397949L1152.901123,-27.35498L1152.899658,-27.370605L1152.727295,-29.331543L1152.726074,-29.34668L1152.595947,-31.311035L1152.595215,-31.32666L1152.508301,-33.293701L1152.508057,-33.298096L1152.412842,-35.787598L1152.412354,-35.802246L1152.368408,-38.292969L1152.368408,-38.307617L1152.375732,-40.798584L1152.375977,-40.813232L1152.434814,-43.303955L1152.436035,-43.331787L1152.51709,-44.62085L1152.517334,-44.624268L1152.604248,-45.9104L1152.629639,-46.306152L1152.512939,-46.244873L1151.914551,-45.908447L1151.335693,-45.562988L1150.761475,-45.199463L1150.203857,-44.825928L1149.637695,-44.424561L1149.099854,-44.021973L1148.614258,-43.627197L1148.159424,-43.215576L1147.722656,-42.776367L1147.303955,-42.307861L1147.19873,-42.180176L1147.162109,-42.127686L1147.174316,-42.103516L1147.184082,-42.081055L1147.238037,-41.953125L1147.251709,-41.918457L1147.263428,-41.883057L1147.273193,-41.847168L1147.28125,-41.810791L1147.287354,-41.773926L1147.291504,-41.736816L1147.292969,-41.715576L1147.300537,-41.576904L1147.301514,-41.539551L1147.300537,-41.502441L1147.297852,-41.465088L1147.292969,-41.428223L1147.286377,-41.391602L1147.277588,-41.355225L1147.270752,-41.331055L1147.229248,-41.19458L1147.217529,-41.159424L1147.203857,-41.124512L1147.188477,-41.09082L1147.171387,-41.057617L1147.152344,-41.025391L1147.131836,-40.994385L1147.109863,-40.964355L1147.086182,-40.935547L1147.061035,-40.908203L1147.034424,-40.88208L1147.006592,-40.857178L1146.976074,-40.833008L1146.848389,-40.737061L1146.818115,-40.715576L1146.786621,-40.695557L1146.75415,-40.677246L1146.720703,-40.660645L1146.682861,-40.644531L1146.537354,-40.586914L1146.502441,-40.573975L1146.466797,-40.562988L1146.430664,-40.553955L1146.394043,-40.546875L1146.355469,-40.54126L1146.199951,-40.523682L1146.162842,-40.520508L1146.125732,-40.519287L1146.088379,-40.52002L1146.05127,-40.522705L1146.01001,-40.527832L1145.852539,-40.55249L1145.815918,-40.559326L1145.779785,-40.567871L1145.743896,-40.578369L1145.707764,-40.591064L1145.590088,-40.63623L1145.555664,-40.650635L1145.521973,-40.666504L1145.489258,-40.684326L1145.466064,-40.698486L1145.362549,-40.763672L1145.331543,-40.784424L1145.301514,-40.806641L1145.272949,-40.830322L1145.254639,-40.846924L1145.166748,-40.929443L1145.140381,-40.955811L1145.115234,-40.983398L1145.091553,-41.012207L1145.077881,-41.030273L1145.007568,-41.127197L1144.986572,-41.157959L1144.967041,-41.189941L1144.949219,-41.222656L1144.940674,-41.240234L1144.889404,-41.348389L1144.874268,-41.382568L1144.861084,-41.417236L1144.849609,-41.452881L1144.843994,-41.4729L1144.813477,-41.589355L1144.804932,-41.625488L1144.79834,-41.662109L1144.793701,-41.699219L1144.791748,-41.724121L1144.783936,-41.846436L1144.782471,-41.883789L1144.782959,-41.920898L1144.785645,-41.958252L1144.788574,-41.985596L1144.805176,-42.110596L1144.811035,-42.147217L1144.815674,-42.169434L1144.862305,-42.381592L1144.871338,-42.417969L1144.883789,-42.458496L1144.953613,-42.66333L1144.966553,-42.698242L1144.982666,-42.73584L1145.074707,-42.932129L1145.091553,-42.965332L1145.112305,-43.001709L1145.22583,-43.187012L1145.246094,-43.218262L1145.256836,-43.233398L1145.664795,-43.794922L1145.697754,-43.836914L1146.145996,-44.365723L1146.181885,-44.404785L1146.668457,-44.898682L1146.707031,-44.935059L1147.229736,-45.39209L1147.251709,-45.410645L1147.857422,-45.898193L1147.875,-45.911865L1148.495117,-46.380127L1148.512695,-46.393066L1149.146729,-46.841797L1149.165039,-46.854248L1149.8125,-47.282959L1149.831055,-47.294922L1150.491455,-47.703369L1150.510498,-47.7146L1151.18335,-48.102295L1151.202393,-48.113037L1151.887451,-48.480225L1151.906982,-48.490234L1152.593262,-48.831055L1152.769775,-48.925293L1152.802246,-48.941406L1152.840088,-48.959229L1152.974365,-50.429443L1152.974609,-50.432617L1153.140625,-52.162598L1153.142822,-52.181396L1153.162598,-52.342529L1153.167969,-52.379395L1153.175537,-52.415771L1153.184814,-52.451904L1153.196045,-52.487549L1153.208984,-52.522461L1153.223877,-52.556641L1153.234619,-52.578369L1153.306396,-52.719482L1153.323975,-52.752197L1153.343506,-52.783936L1153.364502,-52.814697L1153.387207,-52.844238L1153.411377,-52.872559L1153.448975,-52.911133L1153.563477,-53.020508L1153.591064,-53.045654L1153.619873,-53.069092L1153.649902,-53.091309L1153.681152,-53.111572L1153.713379,-53.130371L1153.746582,-53.147461L1153.769531,-53.157959L1153.918457,-53.223145L1153.952881,-53.237061L1153.985596,-53.248535L1154.291016,-53.346924L1154.32666,-53.357422L1154.346924,-53.362305L1154.658936,-53.435303L1154.695557,-53.442871L1154.71582,-53.446289L1155.032715,-53.493652L1155.069824,-53.498291L1155.090332,-53.5L1155.410645,-53.521484L1155.447998,-53.522949L1155.485107,-53.522461z"/>
    <path transform="translate(506.161011,-1025.920044)" style="stroke:#000000;stroke-width:0.05mm;fill:none" d="M1164.084717,-26.949463L1162.985107,-26.35791L1161.89624,-25.722168L1160.835693,-25.052246L1159.798584,-24.345215L1158.790527,-23.605469L1157.795166,-22.819824L1157.422119,-22.505615L1157.046387,-22.167725L1156.693604,-21.828857L1156.349121,-21.474854L1156.008789,-21.101563L1155.687988,-20.72583L1155.375977,-20.334961L1155.08667,-19.946777L1154.834229,-19.563721L1154.617432,-19.17041L1154.431885,-18.760254L1154.281738,-18.343262L1154.213867,-18.066162L1154.182373,-17.787354L1154.186523,-17.509521L1154.188477,-17.496094L1154.271484,-17.510986L1154.466553,-17.572021L1155.268799,-17.934082L1155.801025,-18.221436L1156.310547,-18.546875L1156.818359,-18.925293L1157.759521,-19.643311L1157.765381,-19.647705L1158.280518,-20.032471L1158.851563,-20.540039L1159.42041,-21.070801L1159.976074,-21.614746L1160.518066,-22.171143L1161.052246,-22.746826L1161.566895,-23.329102L1162.074707,-23.931885L1162.553711,-24.528564L1163.303223,-25.572754L1164.032471,-26.641113L1164.302002,-27.056641L1164.084717,-26.949463z"/>
</svg>
