<?xml version="1.0" encoding="UTF-8"?>
<svg xmlns="http://www.w3.org/2000/svg" xmlns:xlink="http://www.w3.org/1999/xlink" width="64.045mm" height="38.772mm" viewBox="1832.696289 -1146.588623 64.044922 38.772461">
    <path transform="translate(1864.593994,-2366.0271)" style="stroke:#000000;stroke-width:0.05mm;fill:none" d="M1.781006,1236.838379C1.582492,1236.942993,1.405382,1237.08374,1.258545,1237.253418C0.702415,1237.947876,0.247584,1238.717651,-0.092529,1239.539795C-0.384993,1240.242554,-0.621216,1240.967163,-0.799072,1241.707275L-0.793457,1241.741455L-0.776367,1241.765869C-0.756536,1241.780029,-0.732368,1241.786865,-0.708008,1241.7854C-0.328137,1241.829346,0.0496,1241.686035,0.304688,1241.401123C1.159617,1240.534668,1.779084,1239.464478,2.104492,1238.291504C2.235797,1237.85791,2.238247,1237.395386,2.111572,1236.960449C2.081855,1236.873535,2.001426,1236.814087,1.909668,1236.810791L1.781006,1236.838379z"/>
    <path transform="translate(1864.593994,-2366.0271)" style="stroke:#000000;stroke-width:0.05mm;fill:none" d="M-16.713379,1223.746338C-18.238918,1223.811523,-19.744587,1224.115479,-21.176025,1224.646973C-21.230143,1224.671509,-21.269827,1224.719849,-21.281738,1224.778076L-21.307861,1225.090576C-21.32991,1225.325317,-21.355961,1225.559814,-21.385986,1225.793701L-21.496582,1226.905518C-21.608433,1228.022095,-21.697208,1229.140503,-21.762939,1230.260742C-21.877609,1234.271484,-21.747406,1238.2854,-21.373047,1242.280273C-21.263659,1243.912842,-21.060595,1245.537964,-20.764893,1247.147217C-20.648985,1247.834473,-20.49555,1248.514893,-20.305176,1249.185303C-20.295607,1249.212036,-20.283964,1249.238037,-20.266113,1249.260254L-20.129395,1249.168945C-20.053581,1249.101074,-19.979204,1249.031616,-19.90625,1248.960693L-19.712646,1248.79126C-17.255358,1246.815674,-14.561335,1245.154175,-11.692871,1243.845215L-10.70752,1243.400146L-9.795898,1242.983398C-8.779179,1241.165527,-7.936543,1239.255859,-7.279053,1237.279541C-6.965837,1236.143311,-6.736364,1234.985596,-6.592529,1233.815674C-6.497297,1232.806885,-6.485868,1231.79187,-6.55835,1230.78125C-6.589289,1230.465576,-6.650867,1230.153809,-6.742188,1229.850098C-6.841796,1229.237671,-7.019125,1228.640381,-7.269775,1228.072754C-8.134859,1226.525513,-9.526937,1225.340942,-11.192627,1224.734619C-12.104886,1224.331177,-13.062495,1224.039429,-14.044678,1223.865479C-14.930639,1223.766724,-15.822145,1223.726929,-16.713379,1223.746338z"/>
    <path transform="translate(682.314026,-2565.25)" style="stroke:#000000;stroke-width:0.05mm;fill:none" d="M1161.090332,1418.662109L1161.127686,1418.664795L1161.164551,1418.669189L1161.201172,1418.675781L1161.237549,1418.684082L1161.273438,1418.69458L1161.308594,1418.706543L1161.343018,1418.720703L1161.378906,1418.737305L1161.538818,1418.817871L1161.571533,1418.835693L1161.603516,1418.85498L1161.634277,1418.875977L1161.663818,1418.898438L1161.692383,1418.922607L1161.719482,1418.947998L1161.736816,1418.96582L1161.856201,1419.092773L1161.881104,1419.120605L1161.904297,1419.149658L1161.926025,1419.179932L1161.946289,1419.211426L1161.964844,1419.243652L1161.981445,1419.2771L1161.990479,1419.296875L1162.059814,1419.456543L1162.07373,1419.490967L1162.085938,1419.526367L1162.096191,1419.562012L1162.104492,1419.598389L1162.11084,1419.63501L1162.115479,1419.672119L1162.117432,1419.697021L1162.128174,1419.875977L1162.12915,1419.900146L1162.136719,1420.19043L1162.136475,1420.23584L1162.125488,1420.525879L1162.122314,1420.572021L1162.092529,1420.860596L1162.086426,1420.905762L1162.041016,1421.174805L1162.017578,1421.384521L1161.990723,1421.655518L1161.967041,1421.927246L1161.962646,1421.964844L1161.96167,1421.972168L1162.327393,1421.87207L1162.366699,1421.862549L1163.353516,1421.6521L1163.393555,1421.644775L1164.38916,1421.491211L1164.429199,1421.486084L1165.431152,1421.389404L1165.471436,1421.386719L1166.477051,1421.346924L1166.517578,1421.346436L1167.524902,1421.364014L1167.565186,1421.365967L1168.571289,1421.440674L1168.611572,1421.444824L1169.614502,1421.577148L1169.647949,1421.582275L1170.115479,1421.666748L1170.141846,1421.672119L1170.605469,1421.77417L1170.632324,1421.780762L1171.091064,1421.900635L1171.117188,1421.907959L1171.571045,1422.045166L1171.596924,1422.053467L1172.045166,1422.208008L1172.070801,1422.217285L1172.512939,1422.388916L1172.53833,1422.399414L1172.973877,1422.588135L1172.998535,1422.599365L1173.427002,1422.804688L1173.456543,1422.819824L1173.922119,1423.070313L1173.961426,1423.093018L1174.407227,1423.37085L1174.444824,1423.395996L1174.869385,1423.699707L1174.905273,1423.727051L1175.307617,1424.05542L1175.341309,1424.084717L1175.720947,1424.436523L1175.752686,1424.468018L1176.108398,1424.841797L1176.138184,1424.875L1176.469238,1425.269775L1176.496826,1425.304688L1176.802246,1425.718994L1176.827393,1425.755615L1177.106445,1426.188232L1177.129395,1426.226318L1177.381104,1426.675781L1177.401611,1426.715332L1177.625,1427.18042L1177.642822,1427.220947L1177.837402,1427.700439L1177.853027,1427.742676L1178.017334,1428.235352L1178.030273,1428.278564L1178.163818,1428.783203L1178.174072,1428.827148L1178.275879,1429.342285L1178.283203,1429.386963L1178.352539,1429.911377L1178.356689,1429.95166L1178.398193,1430.508057L1178.399658,1430.534912L1178.420166,1431.092041L1178.420654,1431.118164L1178.420654,1431.675049L1178.420166,1431.701904L1178.39917,1432.258301L1178.397705,1432.284668L1178.355957,1432.839844L1178.353516,1432.866699L1178.290771,1433.420166L1178.287109,1433.446289L1178.203857,1433.997314L1178.199463,1434.023682L1178.095459,1434.572021L1178.089844,1434.598389L1177.902344,1435.416016L1177.897705,1435.435303L1177.6875,1436.246826L1177.682373,1436.265625L1177.450195,1437.070557L1177.44458,1437.089355L1177.190186,1437.887695L1177.183838,1437.906494L1176.907471,1438.69751L1176.900879,1438.715576L1176.603027,1439.498779L1176.595703,1439.517578L1176.491455,1439.77002L1176.862305,1439.621094L1178.669678,1438.889404L1178.675781,1438.886963L1179.566895,1438.535889L1179.578857,1438.53125L1179.599609,1438.523438L1179.693848,1438.302246L1179.713379,1438.26001L1179.95874,1437.774414L1179.980713,1437.734375L1180.256104,1437.266602L1180.280762,1437.227539L1180.585693,1436.779053L1180.612793,1436.741943L1180.946045,1436.313965L1180.975098,1436.278809L1181.335449,1435.872803L1181.366943,1435.8396L1181.753418,1435.456787L1181.787598,1435.425293L1182.199707,1435.067383L1182.228516,1435.043701L1182.265625,1435.016357L1182.561035,1434.815186L1182.592529,1434.795166L1182.635254,1434.770996L1182.952148,1434.607422L1182.985596,1434.591309L1183.030762,1434.572754L1183.364746,1434.44873L1183.399902,1434.436768L1183.447754,1434.423584L1183.795654,1434.34082L1183.832031,1434.333252L1183.868896,1434.327393L1183.89917,1434.324219L1184.077881,1434.308838L1184.115234,1434.306641L1184.152344,1434.306152L1184.200195,1434.308838L1184.375,1434.323975L1184.412109,1434.328125L1184.448975,1434.334229L1184.493896,1434.344482L1184.661621,1434.388428L1184.69751,1434.398926L1184.732666,1434.411133L1184.773926,1434.428223L1184.930908,1434.499023L1184.964355,1434.515137L1184.99707,1434.532959L1185.03418,1434.556152L1185.17749,1434.6521L1185.207764,1434.673828L1185.237061,1434.696777L1185.269775,1434.72583L1185.395752,1434.844727L1185.422363,1434.871094L1185.447266,1434.898682L1185.476563,1434.935303L1185.582031,1435.075928L1185.60376,1435.106445L1185.623779,1435.137939L1185.646729,1435.179688L1185.728271,1435.3396L1185.744385,1435.373047L1185.763428,1435.420654L1185.857178,1435.679688L1185.868896,1435.714844L1185.880615,1435.757813L1185.943848,1436.024902L1185.951416,1436.061279L1185.958252,1436.107178L1185.989746,1436.379883L1185.99292,1436.416992L1185.994385,1436.460693L1185.994629,1436.736328L1185.993408,1436.777832L1185.977051,1437.062012L1185.973633,1437.103027L1185.940918,1437.385254L1185.935059,1437.425293L1185.886475,1437.704834L1185.878662,1437.743652L1185.814697,1438.019531L1185.804199,1438.059082L1185.724365,1438.331055L1185.71167,1438.370117L1185.616211,1438.637207L1185.601563,1438.674805L1185.490967,1438.936523L1185.474365,1438.973145L1185.348877,1439.22876L1185.339844,1439.246338L1185.032471,1439.830566L1185.01416,1439.863281L1185.00415,1439.879395L1184.651855,1440.436768L1184.631348,1440.467773L1184.620117,1440.483154L1184.225098,1441.010742L1184.201904,1441.040039L1184.189697,1441.054443L1183.753418,1441.550049L1183.717041,1441.588135L1183.529541,1441.771729L1183.502197,1441.797119L1183.466553,1441.82666L1183.260986,1441.985352L1183.230957,1442.007324L1183.191162,1442.032959L1182.969727,1442.165283L1182.937256,1442.18335L1182.895996,1442.203613L1182.661377,1442.308838L1182.626953,1442.323242L1182.583252,1442.338379L1182.338135,1442.415283L1182.302246,1442.425537L1182.257813,1442.435547L1182.004395,1442.483643L1181.99292,1442.485596L1181.984375,1442.616943L1181.984131,1442.977295L1182.008301,1443.359619L1182.008789,1443.365967L1182.025879,1443.681396L1182.073242,1443.948486L1182.153076,1444.209473L1182.262939,1444.456055L1182.277344,1444.479492L1182.287842,1444.491211L1182.299072,1444.500732L1182.313477,1444.509033L1182.328125,1444.514648L1182.343262,1444.517822L1182.358887,1444.518555L1182.381104,1444.515625L1182.507568,1444.480225L1182.639893,1444.427002L1182.763916,1444.359863L1182.89209,1444.270752L1183.343018,1443.913574L1183.768555,1443.533936L1184.169189,1443.13208L1184.556641,1442.695313L1185.178711,1441.975098L1185.765381,1441.255859L1186.334717,1440.516357L1186.786377,1439.893799L1186.950684,1438.830078L1186.955566,1438.802246L1187.17749,1437.66748L1187.183594,1437.639893L1187.450439,1436.514893L1187.457275,1436.487549L1187.768555,1435.373779L1187.770752,1435.366699L1187.80127,1435.261719L1187.8125,1435.226074L1187.825684,1435.191406L1187.84082,1435.157227L1187.851563,1435.13501L1187.900391,1435.040039L1187.918457,1435.007324L1187.937988,1434.975586L1187.968994,1434.931885L1188.032959,1434.848633L1188.056396,1434.819824L1188.081299,1434.791992L1188.121338,1434.753174L1188.198975,1434.68335L1188.227295,1434.65918L1188.256836,1434.636475L1188.300537,1434.607178L1188.389404,1434.552246L1188.421631,1434.533447L1188.454834,1434.516357L1188.505615,1434.494385L1188.603516,1434.456299L1188.638672,1434.443848L1188.674316,1434.433105L1188.710449,1434.424072L1188.729004,1434.42041L1188.833496,1434.400635L1188.870361,1434.394531L1188.907471,1434.390625L1188.94458,1434.388428L1188.967285,1434.388184L1189.054199,1434.388428L1189.21875,1434.37793L1189.256104,1434.376465L1189.297119,1434.377197L1189.485352,1434.385986L1189.522461,1434.388672L1189.560791,1434.393555L1189.74707,1434.422363L1189.783691,1434.428955L1189.822998,1434.438477L1190.005615,1434.487549L1190.04126,1434.498047L1190.076416,1434.510498L1190.11084,1434.524902L1190.144531,1434.541016L1190.177246,1434.558838L1190.193604,1434.568359L1190.302002,1434.63501L1190.333252,1434.655518L1190.363281,1434.67749L1190.392334,1434.700928L1190.419922,1434.72583L1190.446289,1434.752197L1190.473877,1434.783447L1190.553711,1434.878418L1190.576904,1434.907471L1190.598633,1434.937744L1190.618652,1434.969238L1190.636963,1435.001709L1190.653564,1435.034912L1190.669922,1435.072266L1190.71582,1435.187256L1190.728516,1435.222168L1190.739746,1435.257813L1190.748779,1435.293945L1190.756104,1435.330566L1190.761475,1435.367432L1190.765381,1435.412842L1190.772217,1435.540039L1190.773193,1435.577148L1190.772217,1435.614502L1190.769287,1435.651611L1190.764648,1435.688477L1190.757813,1435.725342L1190.749512,1435.76001L1190.61792,1436.257324L1190.60791,1436.291748L1190.454102,1436.773682L1190.262695,1437.447998L1190.069092,1438.279785L1189.916992,1439.118408L1189.805908,1439.965088L1189.737549,1440.803955L1189.731934,1441.630127L1189.753662,1442.473633L1189.779541,1442.988525L1189.849121,1443.479736L1189.861816,1443.532959L1190.126953,1443.077393L1190.623535,1442.143799L1191.087158,1441.18457L1191.512695,1440.20874L1191.706787,1439.726318L1191.885498,1439.237793L1192.04834,1438.745361L1192.188721,1438.271729L1192.221191,1438.10791L1192.237793,1437.910889L1192.241943,1437.874023L1192.248047,1437.837158L1192.256104,1437.800781L1192.266846,1437.761719L1192.305908,1437.634766L1192.317627,1437.599609L1192.331543,1437.564941L1192.346924,1437.531006L1192.364258,1437.498047L1192.386719,1437.460449L1192.447998,1437.364746L1192.46875,1437.333984L1192.491455,1437.304199L1192.523438,1437.266846L1192.598877,1437.184814L1192.624756,1437.157959L1192.6521,1437.132813L1192.6875,1437.103516L1192.774414,1437.036377L1192.804443,1437.014404L1192.835693,1436.993896L1192.873535,1436.972168L1192.969727,1436.920654L1193.00293,1436.903809L1193.037109,1436.888916L1193.07959,1436.873291L1193.183105,1436.838623L1193.21875,1436.827637L1193.254883,1436.818604L1193.29834,1436.810303L1193.406982,1436.793213L1193.444092,1436.788574L1193.481201,1436.785645L1193.526855,1436.784668L1193.637939,1436.786133L1193.675293,1436.787598L1193.712402,1436.791016L1193.760986,1436.798584L1193.873047,1436.819824L1193.909668,1436.827637L1193.945557,1436.837402L1193.980957,1436.849121L1194.015625,1436.862549L1194.045166,1436.875732L1194.225098,1436.960938L1194.258301,1436.977783L1194.290527,1436.996338L1194.322021,1437.016602L1194.345215,1437.033203L1194.503662,1437.151123L1194.532959,1437.174072L1194.561035,1437.19873L1194.587891,1437.224609L1194.606934,1437.244873L1194.739258,1437.391357L1194.763428,1437.419678L1194.786133,1437.449219L1194.807373,1437.47998L1194.821777,1437.503174L1194.918457,1437.664795L1195.005371,1437.800781L1195.07666,1437.908203L1195.129639,1437.969482L1195.190674,1438.023926L1195.257568,1438.069824L1195.329102,1438.106445L1195.406982,1438.134766L1195.487061,1438.152588L1195.702637,1437.658447L1195.721436,1437.618408L1196.038086,1437.000244L1196.059326,1436.96167L1196.413574,1436.364258L1196.437256,1436.327148L1196.828125,1435.752441L1196.849854,1435.722168L1196.863525,1435.70459L1196.946777,1435.601807L1196.970947,1435.573486L1196.996826,1435.546631L1197.023682,1435.520996L1197.05542,1435.494141L1197.157715,1435.412354L1197.1875,1435.389893L1197.218262,1435.368896L1197.250244,1435.349609L1197.286377,1435.330322L1197.403809,1435.272217L1197.437744,1435.256592L1197.472168,1435.242676L1197.507568,1435.230713L1197.547363,1435.219482L1197.675781,1435.1875L1197.712158,1435.179443L1197.749023,1435.17334L1197.785889,1435.169189L1197.823242,1435.166992L1197.860352,1435.166504L1197.897705,1435.168213L1197.934814,1435.171875L1197.97168,1435.17749L1198.008057,1435.184814L1198.044189,1435.194092L1198.079834,1435.205322L1198.130127,1435.224854L1198.434814,1435.356689L1198.468506,1435.372559L1198.501465,1435.389893L1198.531982,1435.408203L1198.811279,1435.584473L1198.842285,1435.60498L1198.87207,1435.627441L1198.89917,1435.649902L1199.147949,1435.866943L1199.175293,1435.89209L1199.201416,1435.918701L1199.224854,1435.945068L1199.438721,1436.199463L1199.461914,1436.22876L1199.483643,1436.259033L1199.503662,1436.290527L1199.521973,1436.322754L1199.538574,1436.356201L1199.553467,1436.390381L1199.563477,1436.416748L1199.619385,1436.572266L1199.631104,1436.607422L1199.640869,1436.643555L1199.648926,1436.679932L1199.654785,1436.716797L1199.658936,1436.755127L1199.672119,1436.917236L1199.674316,1436.954346L1199.674316,1436.991699L1199.672607,1437.028809L1199.668701,1437.065918L1199.663086,1437.102051L1199.660645,1437.115723L1199.743408,1437.180176L1200.017578,1437.3479L1200.307617,1437.483154L1200.643555,1437.596436L1201.131348,1437.741455L1201.608643,1437.835449L1202.097168,1437.884033L1202.557373,1437.88623L1202.563232,1437.781494L1202.56543,1437.754395L1202.60791,1437.299072L1202.608643,1437.291504L1202.62085,1437.174561L1202.625488,1437.137451L1202.632324,1437.10083L1202.641113,1437.064697L1202.651611,1437.028809L1202.660156,1437.00415L1202.699951,1436.895264L1202.713623,1436.860596L1202.729248,1436.82666L1202.746338,1436.793701L1202.765381,1436.761719L1202.776611,1436.744141L1202.841064,1436.647705L1202.862549,1436.617432L1202.885742,1436.588135L1202.910156,1436.560059L1202.936279,1436.533447L1202.953613,1436.51709L1203.040771,1436.437744L1203.068848,1436.41333L1203.098389,1436.390625L1203.128906,1436.369141L1203.160645,1436.349609L1203.193359,1436.331543L1203.226807,1436.31543L1203.26123,1436.301025L1203.298096,1436.287842L1203.574463,1436.197266L1203.610107,1436.186523L1203.64624,1436.177734L1203.679443,1436.171387L1203.9646,1436.124023L1204.001465,1436.118896L1204.038574,1436.115723L1204.072021,1436.114502L1204.361084,1436.11084L1204.398438,1436.111328L1204.435547,1436.11377L1204.468506,1436.117676L1204.756592,1436.157959L1204.793457,1436.164063L1204.829834,1436.172119L1204.865723,1436.182129L1204.901123,1436.193848L1204.935791,1436.20752L1204.969727,1436.2229L1205.001953,1436.239746L1205.086426,1436.286377L1205.118408,1436.305176L1205.149658,1436.325684L1205.179688,1436.3479L1205.208496,1436.371338L1205.23584,1436.396484L1205.260986,1436.421875L1205.325439,1436.490479L1205.350342,1436.518311L1205.373535,1436.547363L1205.395264,1436.577637L1205.415527,1436.609131L1205.433838,1436.641357L1205.450439,1436.674316L1205.490479,1436.759277L1205.505615,1436.793457L1205.518799,1436.828369L1205.530029,1436.86377L1205.539551,1436.899902L1205.547119,1436.936279L1205.553467,1436.979492L1205.564697,1437.074951L1205.568115,1437.112061L1205.56958,1437.152588L1205.576904,1438.128418L1205.576904,1438.137939L1205.575684,1438.321533L1205.633057,1438.239014L1205.657959,1438.205322L1206.071777,1437.678223L1206.095459,1437.649658L1206.120117,1437.622803L1206.303955,1437.432861L1206.330566,1437.406738L1206.366455,1437.375488L1206.570801,1437.209473L1206.600342,1437.186768L1206.639404,1437.160156L1206.862061,1437.019531L1206.894287,1437.000488L1206.936035,1436.97876L1207.174805,1436.86499L1207.20874,1436.849854L1207.243652,1436.83667L1207.279053,1436.824951L1207.315186,1436.81543L1207.359131,1436.806396L1207.571777,1436.769531L1207.608643,1436.76416L1207.645752,1436.760498L1207.683105,1436.759033L1207.720459,1436.759521L1207.773682,1436.763672L1207.984131,1436.787598L1208.020996,1436.792725L1208.057617,1436.799805L1208.09375,1436.808838L1208.129395,1436.81958L1208.177002,1436.837646L1208.372314,1436.918945L1208.406494,1436.934082L1208.439697,1436.950928L1208.471924,1436.969727L1208.503174,1436.98999L1208.545166,1437.021484L1208.713379,1437.156982L1208.741943,1437.181152L1208.780029,1437.218262L1208.936279,1437.380859L1208.971436,1437.419922L1209.11499,1437.593262L1209.146484,1437.634521L1209.276611,1437.817383L1209.305176,1437.860596L1209.421387,1438.052002L1209.446777,1438.097412L1209.548828,1438.297119L1209.570801,1438.344727L1209.657959,1438.551514L1209.67627,1438.599609L1209.748291,1438.8125L1209.763184,1438.862305L1209.819824,1439.081055L1209.82373,1439.09668L1210.079834,1440.187988L1210.085693,1440.215576L1210.296631,1441.307617L1210.443359,1442.019531L1210.510498,1442.275391L1210.590332,1442.527588L1210.644775,1442.673096L1210.67749,1442.624268L1210.779053,1442.431641L1211.155029,1441.626709L1211.519531,1440.796875L1211.863037,1439.964111L1212.192139,1439.111572L1212.206543,1439.077148L1212.218018,1439.052734L1212.362549,1438.76001L1212.379883,1438.727051L1212.398926,1438.695068L1212.419678,1438.664063L1212.432861,1438.645996L1212.530518,1438.516846L1212.553955,1438.487793L1212.578613,1438.459961L1212.604736,1438.43335L1212.620361,1438.418945L1212.740234,1438.310303L1212.768311,1438.285889L1212.797852,1438.263184L1212.828613,1438.241943L1212.848389,1438.229492L1212.987793,1438.144775L1213.020264,1438.126221L1213.053467,1438.109375L1213.087646,1438.094238L1213.122314,1438.081055L1213.157959,1438.069824L1213.193848,1438.060303L1213.230469,1438.052734L1213.267334,1438.046875L1213.313232,1438.042725L1213.403809,1438.037109L1213.440918,1438.035645L1213.478271,1438.036377L1213.515381,1438.038818L1213.55249,1438.043457L1213.589111,1438.049805L1213.610107,1438.054443L1213.696533,1438.074707L1213.732666,1438.084229L1213.768066,1438.095459L1213.802979,1438.108643L1213.837158,1438.123535L1213.870361,1438.140381L1213.893311,1438.15332L1213.969238,1438.197754L1214.000977,1438.217285L1214.031494,1438.23877L1214.061035,1438.261475L1214.089111,1438.285889L1214.115967,1438.311768L1214.143799,1438.341309L1214.203369,1438.408936L1214.227295,1438.437744L1214.249512,1438.467529L1214.270264,1438.498291L1214.289551,1438.530518L1214.306885,1438.563232L1214.32251,1438.597168L1214.336426,1438.631836L1214.348389,1438.666992L1214.354248,1438.686035L1214.385742,1438.797607L1214.394775,1438.83374L1214.4021,1438.870117L1214.406494,1438.898926L1214.421387,1439.013428L1214.425049,1439.050537L1214.427002,1439.087891L1214.427246,1439.115723L1214.425537,1439.231201L1214.423828,1439.268555L1214.42041,1439.305664L1214.41626,1439.335938L1214.397461,1439.450439L1214.390381,1439.487061L1214.381104,1439.524414L1214.256592,1439.97583L1214.246826,1440.008301L1214.10083,1440.453125L1214.089111,1440.48584L1213.921631,1440.922852L1213.908447,1440.954834L1213.726074,1441.369385L1213.461426,1442.009033L1213.452881,1442.028564L1213.168945,1442.660156L1213.159668,1442.680176L1212.856445,1443.30249L1212.84668,1443.321533L1212.524902,1443.93457L1212.504883,1443.970215L1212.339111,1444.246094L1212.319092,1444.277588L1212.294922,1444.311279L1212.100342,1444.566406L1212.077148,1444.595215L1212.049072,1444.626465L1211.827393,1444.858398L1211.801025,1444.884521L1211.769531,1444.912354L1211.522949,1445.118652L1211.493896,1445.141846L1211.463379,1445.163574L1211.42334,1445.188477L1211.192627,1445.322266L1211.159912,1445.340088L1211.126465,1445.356201L1211.092041,1445.370605L1211.06958,1445.378662L1210.824707,1445.463867L1210.789307,1445.475342L1210.753174,1445.484619L1210.716797,1445.492188L1210.696289,1445.495605L1210.443604,1445.533447L1210.406738,1445.538086L1210.369629,1445.540527L1210.313721,1445.540771L1210.060059,1445.531982L1210.022949,1445.529785L1209.98584,1445.525635L1209.931396,1445.515869L1209.683594,1445.461182L1209.647461,1445.452148L1209.611816,1445.441162L1209.576904,1445.428467L1209.558838,1445.421143L1209.32373,1445.321289L1209.289795,1445.305908L1209.256836,1445.288574L1209.224609,1445.269775L1209.20752,1445.258545L1208.991699,1445.114746L1208.961182,1445.093262L1208.931885,1445.070313L1208.903809,1445.045654L1208.885986,1445.028809L1208.696533,1444.841553L1208.670654,1444.814697L1208.646484,1444.786377L1208.625977,1444.760254L1208.326172,1444.357178L1208.304688,1444.32666L1208.283203,1444.29248L1208.029785,1443.860352L1208.011719,1443.827637L1207.994385,1443.79126L1207.789551,1443.334229L1207.775146,1443.300049L1207.761719,1443.262207L1207.607178,1442.78418L1207.592285,1442.730957L1207.410156,1441.970459L1207.404541,1441.94458L1207.250977,1441.178223L1207.246094,1441.151855L1207.121582,1440.380371L1207.11792,1440.354248L1207.090088,1440.128662L1206.9021,1440.431152L1206.6604,1440.856934L1206.428467,1441.30542L1206.216553,1441.757324L1206.023682,1442.213623L1205.845703,1442.685547L1205.464111,1443.745605L1205.430908,1445.143555L1205.431152,1445.143555L1205.401855,1446.660889L1205.401367,1446.673828L1205.386963,1447.059082L1205.384521,1447.096191L1205.38208,1447.119141L1205.359619,1447.302002L1205.354248,1447.338867L1205.349121,1447.365234L1205.310303,1447.54541L1205.301514,1447.581543L1205.294189,1447.606201L1205.239502,1447.782471L1205.227539,1447.817871L1205.213867,1447.852539L1205.198242,1447.88623L1205.180908,1447.919189L1205.161865,1447.951172L1205.141113,1447.982178L1205.118896,1448.012207L1205.094971,1448.040771L1205.06958,1448.068115L1205.042969,1448.094238L1205.013428,1448.119873L1204.924561,1448.193359L1204.895264,1448.216309L1204.864746,1448.237793L1204.833252,1448.257568L1204.79248,1448.279785L1204.690674,1448.331299L1204.656982,1448.347412L1204.622559,1448.361572L1204.587402,1448.373779L1204.544922,1448.385986L1204.43457,1448.414063L1204.398193,1448.422363L1204.361572,1448.428711L1204.324463,1448.433105L1204.272949,1448.436035L1203.812012,1448.444824L1203.76001,1448.443848L1203.415283,1448.425293L1203.378174,1448.422363L1203.341309,1448.41748L1203.304688,1448.4104L1203.268555,1448.401855L1203.249512,1448.396484L1203.119141,1448.357422L1203.08374,1448.345703L1203.049072,1448.332275L1203.014893,1448.316895L1202.981934,1448.299805L1202.949707,1448.28125L1202.918457,1448.260742L1202.888428,1448.23877L1202.859375,1448.215088L1202.831787,1448.190186L1202.805664,1448.163818L1202.780762,1448.135986L1202.768311,1448.12085L1202.66748,1447.995117L1202.64502,1447.965576L1202.624023,1447.934814L1202.604736,1447.902832L1202.580322,1447.855957L1202.511963,1447.712402L1202.496826,1447.678467L1202.483398,1447.643555L1202.471924,1447.608154L1202.459717,1447.560547L1202.425293,1447.405029L1202.418213,1447.368408L1202.413086,1447.331543L1202.409668,1447.294189L1202.408447,1447.243652L1202.409912,1447.095947L1202.400635,1446.758057L1202.400391,1446.738281L1202.400391,1446.386719L1202.378174,1444.627197L1202.378174,1444.615723L1202.384521,1442.847412L1202.384521,1442.835693L1202.419434,1441.067627L1202.419922,1441.056396L1202.452881,1440.135986L1202.308838,1440.145996L1202.260986,1440.147705L1201.878174,1440.148193L1201.829834,1440.146729L1201.448486,1440.121338L1201.400879,1440.116455L1201.179932,1440.08667L1201.208496,1440.193848L1201.219727,1440.241943L1201.288574,1440.596191L1201.296143,1440.644043L1201.340576,1441.000488L1201.344971,1441.048584L1201.36499,1441.40625L1201.365967,1441.454834L1201.361572,1441.812256L1201.359375,1441.860352L1201.330811,1442.216309L1201.325195,1442.263916L1201.272705,1442.616943L1201.263916,1442.665039L1201.187256,1443.01416L1201.175537,1443.060303L1201.075439,1443.404297L1201.060303,1443.450684L1200.936523,1443.787842L1200.917969,1443.833252L1200.770508,1444.162842L1200.749268,1444.206299L1200.578857,1444.526611L1200.553955,1444.56958L1200.360107,1444.879639L1200.332764,1444.920166L1200.116211,1445.21875L1200.093506,1445.248291L1200.069336,1445.276855L1200.050049,1445.297363L1199.859863,1445.492676L1199.833252,1445.518799L1199.805176,1445.543213L1199.781494,1445.562256L1199.565918,1445.726563L1199.535645,1445.748291L1199.504395,1445.768555L1199.478271,1445.783691L1199.240967,1445.914551L1199.207764,1445.931641L1199.173828,1445.947021L1199.144775,1445.958496L1198.889404,1446.053223L1198.857666,1446.064209L1198.561523,1446.158447L1198.525879,1446.168701L1198.489502,1446.177246L1198.455811,1446.18335L1198.154297,1446.230469L1198.117188,1446.235352L1198.080078,1446.238037L1198.047363,1446.239014L1197.745117,1446.240234L1197.707764,1446.239502L1197.670654,1446.236572L1197.639893,1446.23291L1197.342529,1446.189697L1197.305908,1446.18335L1197.269531,1446.175049L1197.239746,1446.166748L1196.951904,1446.080078L1196.916504,1446.068604L1196.881836,1446.054932L1196.853027,1446.042236L1196.579834,1445.913086L1196.546631,1445.89624L1196.51416,1445.877686L1196.486816,1445.860107L1196.233398,1445.689697L1196.203125,1445.668213L1196.173828,1445.64502L1196.148193,1445.622559L1195.919922,1445.412109L1195.893311,1445.385986L1195.867188,1445.35791L1195.675537,1445.13916L1195.651611,1445.110352L1195.639404,1445.094482L1195.466797,1444.862061L1195.445557,1444.831543L1195.435059,1444.815186L1195.281982,1444.570557L1195.262939,1444.538574L1195.253418,1444.520752L1195.12085,1444.265137L1195.104492,1444.231689L1195.09668,1444.213867L1194.984863,1443.948486L1194.971436,1443.913818L1194.964844,1443.89502L1194.874512,1443.621094L1194.86377,1443.585449L1194.859131,1443.567139L1194.790527,1443.286133L1194.782715,1443.249756L1194.779053,1443.229736L1194.733154,1442.942627L1194.728027,1442.902588L1194.693115,1442.560303L1194.69043,1442.527588L1194.671387,1442.184814L1194.67041,1442.151367L1194.66748,1441.80835L1194.667969,1441.774902L1194.681152,1441.432373L1194.683105,1441.399414L1194.712158,1441.057861L1194.71582,1441.025635L1194.760498,1440.685547L1194.765625,1440.652344L1194.819336,1440.354248L1194.64917,1440.315674L1194.601318,1440.302979L1194.342773,1440.225098L1194.294678,1440.20874L1194.042236,1440.112549L1193.996338,1440.093262L1193.976318,1440.083984L1193.877197,1440.356201L1193.870117,1440.374512L1193.578369,1441.111084L1193.570801,1441.129639L1193.258301,1441.857666L1193.250244,1441.875488L1192.917969,1442.594482L1192.909424,1442.612549L1192.557129,1443.321777L1192.548096,1443.339355L1192.176025,1444.038574L1192.16626,1444.056152L1191.774658,1444.744873L1191.764893,1444.761719L1191.354004,1445.439941L1191.325928,1445.482666L1191.108643,1445.789307L1191.086182,1445.819092L1191.064697,1445.845215L1190.818604,1446.12793L1190.793457,1446.155273L1190.768555,1446.179688L1190.494873,1446.436279L1190.467041,1446.461182L1190.44043,1446.482422L1190.141846,1446.710693L1190.111816,1446.732666L1190.080322,1446.75293L1190.057373,1446.766357L1189.861084,1446.876221L1189.828125,1446.893555L1189.794189,1446.90918L1189.759521,1446.922852L1189.724365,1446.934814L1189.696777,1446.942871L1189.482422,1447L1189.446289,1447.008545L1189.409668,1447.015381L1189.372559,1447.020264L1189.335449,1447.022949L1189.308594,1447.023926L1189.086914,1447.026855L1189.049805,1447.026367L1189.012695,1447.023926L1188.975586,1447.019531L1188.938965,1447.013184L1188.910889,1447.00708L1188.692383,1446.954346L1188.65625,1446.94458L1188.62085,1446.933105L1188.586182,1446.919678L1188.552002,1446.904541L1188.50415,1446.879395L1188.254395,1446.735596L1188.222656,1446.716064L1188.191895,1446.695068L1188.157227,1446.668213L1187.936035,1446.486084L1187.907959,1446.46167L1187.881104,1446.435791L1187.851318,1446.403564L1187.663574,1446.1875L1187.639893,1446.158691L1187.617676,1446.128662L1187.59375,1446.092041L1187.443359,1445.846191L1187.424805,1445.813965L1187.400635,1445.765381L1187.198242,1445.3125L1187.184082,1445.278076L1187.17627,1445.256836L1187.012939,1444.789551L1187.001465,1444.75415L1186.995605,1444.732666L1186.871826,1444.253418L1186.863525,1444.217285L1186.859619,1444.195557L1186.776123,1443.706787L1186.771484,1443.67627L1186.767822,1443.646484L1186.642334,1443.796143L1186.626953,1443.813965L1186.251709,1444.232422L1186.23584,1444.249268L1185.846924,1444.655518L1185.830811,1444.672119L1185.428955,1445.06543L1185.412109,1445.081299L1184.997314,1445.46167L1184.979736,1445.477295L1184.552246,1445.843994L1184.532715,1445.860107L1184.150391,1446.165283L1184.12085,1446.187744L1184.095459,1446.205078L1183.686768,1446.47168L1183.655029,1446.491211L1183.627686,1446.506104L1183.195313,1446.732178L1183.161865,1446.748779L1183.133301,1446.760986L1182.680176,1446.945068L1182.645508,1446.958252L1182.599609,1446.972412L1182.304932,1447.052734L1182.268799,1447.061523L1182.232178,1447.068359L1182.197266,1447.073242L1181.898926,1447.106689L1181.861572,1447.109863L1181.824463,1447.111084L1181.791504,1447.110596L1181.494629,1447.098877L1181.45752,1447.096436L1181.42041,1447.092041L1181.388184,1447.08667L1181.0979,1447.030762L1181.061523,1447.022705L1181.025635,1447.012695L1180.995605,1447.00293L1180.717041,1446.904541L1180.682129,1446.891113L1180.648193,1446.875977L1180.619873,1446.861816L1180.357422,1446.722168L1180.324951,1446.703613L1180.293457,1446.683594L1180.265625,1446.664063L1180.025146,1446.484375L1179.99585,1446.461182L1179.968018,1446.436523L1179.942871,1446.412354L1179.729248,1446.194336L1179.703857,1446.166992L1179.679932,1446.138428L1179.668213,1446.123047L1179.475586,1445.865967L1179.453857,1445.835449L1179.440918,1445.81543L1179.271973,1445.544189L1179.253174,1445.511963L1179.24292,1445.49292L1179.097656,1445.209717L1179.081543,1445.176025L1179.07251,1445.154785L1178.951904,1444.860596L1178.938477,1444.825684L1178.931396,1444.804443L1178.835938,1444.501221L1178.825684,1444.465332L1178.820557,1444.443604L1178.750732,1444.132813L1178.743408,1444.096191L1178.73999,1444.074219L1178.696289,1443.757813L1178.692139,1443.720703L1178.690674,1443.697266L1178.674072,1443.376465L1178.673096,1443.351563L1178.6604,1442.602295L1178.660889,1442.565674L1178.686768,1441.817139L1178.688965,1441.780029L1178.695313,1441.728516L1178.763428,1441.306396L1177.426514,1441.843506L1175.085205,1442.813965L1174.813232,1443.35791L1174.802734,1443.378174L1174.156494,1444.573975L1174.144287,1444.595703L1173.457031,1445.76709L1173.443848,1445.788574L1172.716064,1446.934082L1172.702148,1446.955078L1171.93457,1448.073975L1171.920166,1448.094238L1171.11377,1449.185303L1171.098389,1449.205322L1170.253662,1450.267822L1170.237793,1450.287354L1169.355469,1451.319824L1169.338867,1451.338379L1168.419922,1452.340088L1168.405273,1452.355469L1167.938477,1452.834961L1167.925293,1452.848389L1167.446289,1453.314941L1167.431885,1453.328369L1166.940186,1453.781494L1166.925293,1453.794922L1166.421387,1454.233887L1166.406494,1454.246338L1165.890625,1454.671387L1165.875732,1454.68335L1165.348389,1455.094482L1165.332764,1455.106445L1164.794189,1455.50293L1164.778564,1455.51416L1164.229248,1455.895996L1164.206543,1455.910889L1163.851074,1456.138428L1163.82373,1456.155273L1163.458984,1456.366211L1163.431396,1456.381348L1163.058105,1456.575684L1163.029785,1456.5896L1162.648438,1456.76709L1162.619629,1456.779785L1162.230713,1456.940186L1162.200684,1456.95166L1161.804688,1457.094482L1161.774902,1457.104492L1161.372559,1457.229736L1161.342285,1457.238525L1160.934326,1457.345947L1160.897949,1457.354492L1160.878174,1457.358398L1160.614502,1457.405518L1160.577881,1457.411133L1160.535889,1457.415039L1160.27124,1457.432373L1160.234131,1457.433838L1160.193359,1457.433105L1159.929688,1457.421387L1159.892334,1457.418701L1159.851563,1457.413574L1159.591553,1457.373047L1159.554932,1457.366455L1159.515625,1457.356934L1159.261719,1457.28833L1159.226074,1457.277832L1159.187256,1457.263916L1158.94165,1457.16748L1158.907471,1457.152832L1158.870605,1457.134766L1158.635742,1457.01123L1158.603271,1456.993164L1158.567627,1456.970459L1158.346191,1456.820313L1158.315918,1456.798584L1158.286865,1456.775391L1158.272461,1456.762939L1158.132324,1456.638184L1158.105225,1456.612549L1158.079346,1456.585693L1158.046875,1456.547607L1157.931641,1456.401611L1157.909424,1456.371826L1157.888672,1456.34082L1157.86499,1456.300537L1157.776123,1456.136963L1157.759277,1456.10376L1157.744141,1456.06958L1157.726807,1456.023438L1157.667236,1455.845703L1157.65625,1455.810059L1157.649658,1455.783936L1157.560547,1455.408691L1157.552734,1455.372314L1157.547119,1455.336426L1157.497314,1454.955078L1157.493652,1454.917969L1157.491699,1454.882568L1157.481201,1454.498047L1157.481201,1454.460693L1157.48291,1454.424805L1157.511963,1454.040527L1157.515869,1454.003662L1157.521484,1453.966797L1157.527588,1453.936768L1157.619385,1453.532471L1157.629883,1453.492188L1157.744873,1453.094971L1157.757324,1453.056152L1157.894531,1452.666992L1157.908936,1452.62915L1158.068115,1452.248535L1158.084961,1452.21167L1158.265625,1451.840576L1158.284668,1451.803955L1158.486572,1451.444092L1158.507324,1451.409424L1158.729736,1451.060791L1158.75293,1451.026611L1158.99585,1450.690674L1159.013184,1450.667725L1159.443115,1450.121094L1159.457031,1450.104004L1159.877686,1449.602051L1159.871582,1449.598389L1159.852539,1449.585938L1159.660156,1449.453857L1159.630127,1449.431885L1159.601074,1449.408447L1159.573486,1449.383545L1159.547119,1449.357178L1159.531738,1449.340576L1159.376465,1449.16626L1159.352295,1449.137695L1159.329834,1449.10791L1159.308838,1449.077148L1159.289551,1449.04541L1159.277588,1449.023193L1159.167725,1448.813477L1159.151123,1448.780029L1159.136475,1448.745605L1159.123779,1448.710693L1159.116211,1448.687256L1158.98584,1448.251709L1158.975586,1448.213867L1158.869629,1447.772461L1158.861572,1447.733398L1158.780518,1447.286377L1158.774414,1447.246826L1158.718506,1446.795898L1158.717285,1446.786377L1158.501953,1444.829102L1158.500488,1444.813477L1158.327881,1442.852539L1158.32666,1442.837158L1158.196777,1440.872803L1158.196045,1440.857422L1158.108887,1438.890381L1158.108643,1438.885986L1158.013428,1436.396484L1158.012939,1436.381836L1157.968994,1433.891113L1157.968994,1433.876465L1157.976563,1431.385254L1157.976807,1431.370605L1158.035645,1428.880127L1158.036865,1428.852539L1158.117676,1427.563232L1158.11792,1427.55957L1158.204834,1426.273438L1158.230225,1425.87793L1158.117676,1425.937256L1157.522217,1426.271729L1156.928955,1426.625732L1156.362305,1426.984375L1155.804688,1427.35791L1155.237061,1427.760254L1154.702393,1428.160889L1154.216797,1428.555176L1153.757568,1428.970215L1153.321533,1429.409424L1152.907471,1429.873047L1152.799316,1430.003418L1152.763916,1430.054199L1152.771484,1430.068848L1152.786377,1430.101807L1152.840332,1430.22998L1152.85376,1430.264648L1152.865479,1430.300049L1152.875488,1430.335938L1152.883301,1430.372314L1152.889404,1430.40918L1152.893555,1430.446289L1152.895264,1430.470947L1152.9021,1430.610352L1152.902832,1430.647705L1152.901855,1430.685059L1152.898682,1430.722168L1152.893799,1430.759033L1152.886719,1430.795654L1152.87793,1430.831787L1152.871582,1430.854248L1152.829346,1430.991699L1152.817383,1431.026855L1152.803711,1431.061523L1152.788086,1431.095459L1152.770996,1431.128418L1152.751953,1431.160645L1152.731201,1431.19165L1152.708984,1431.221436L1152.685303,1431.250244L1152.660156,1431.277588L1152.633545,1431.303711L1152.605469,1431.328369L1152.579102,1431.349365L1152.451904,1431.445801L1152.421631,1431.467529L1152.390137,1431.487793L1152.35791,1431.506104L1152.324463,1431.522949L1152.285889,1431.539551L1152.140381,1431.597656L1152.105469,1431.610596L1152.069824,1431.621826L1152.033691,1431.630859L1151.997314,1431.638184L1151.955322,1431.644043L1151.799561,1431.661377L1151.762451,1431.664551L1151.725342,1431.665771L1151.687988,1431.665039L1151.650879,1431.662354L1151.607666,1431.656738L1151.450195,1431.631348L1151.413574,1431.624512L1151.377441,1431.615723L1151.341797,1431.60498L1151.307861,1431.592773L1151.189941,1431.547363L1151.155518,1431.533203L1151.121826,1431.51709L1151.089111,1431.499268L1151.067871,1431.486328L1150.963867,1431.421143L1150.932861,1431.400635L1150.902832,1431.378418L1150.874268,1431.354736L1150.856201,1431.338379L1150.767822,1431.255859L1150.741211,1431.229736L1150.716064,1431.202393L1150.692383,1431.173584L1150.678955,1431.155518L1150.608154,1431.058594L1150.586914,1431.028076L1150.567383,1430.996338L1150.549561,1430.963623L1150.539551,1430.943359L1150.488281,1430.834961L1150.473145,1430.800781L1150.459961,1430.765869L1150.448486,1430.730469L1150.442871,1430.709717L1150.412598,1430.593262L1150.404053,1430.556885L1150.397461,1430.520264L1150.393066,1430.483154L1150.390869,1430.456787L1150.383545,1430.334473L1150.382324,1430.297363L1150.383057,1430.26001L1150.385742,1430.2229L1150.38916,1430.194092L1150.406494,1430.069336L1150.412598,1430.032715L1150.416504,1430.013916L1150.463379,1429.801758L1150.472168,1429.765381L1150.484619,1429.725098L1150.554688,1429.52002L1150.567871,1429.485107L1150.583984,1429.447754L1150.676025,1429.251709L1150.692871,1429.218506L1150.713135,1429.183105L1150.826416,1428.997803L1150.84668,1428.966309L1150.857666,1428.950684L1151.265625,1428.388916L1151.298584,1428.346924L1151.746826,1427.818115L1151.782471,1427.779053L1152.268799,1427.285156L1152.307861,1427.248535L1152.830811,1426.791748L1152.852539,1426.773438L1153.458252,1426.285645L1153.47583,1426.271973L1154.095947,1425.803711L1154.11377,1425.790771L1154.747803,1425.342285L1154.765869,1425.329834L1155.41333,1424.901123L1155.431641,1424.889404L1156.092041,1424.480713L1156.111328,1424.469238L1156.78418,1424.081543L1156.803223,1424.070801L1157.488281,1423.703613L1157.508057,1423.693604L1158.193115,1423.353516L1158.441406,1423.220703L1158.574707,1421.754639L1158.574951,1421.750977L1158.750732,1419.923828L1158.755371,1419.886963L1158.761719,1419.850098L1158.770264,1419.813721L1158.776367,1419.79126L1158.803223,1419.699951L1158.814697,1419.664551L1158.828125,1419.629639L1158.851318,1419.578857L1158.893799,1419.495117L1158.911621,1419.462402L1158.930908,1419.430664L1158.960449,1419.388428L1159.016846,1419.313721L1159.040039,1419.284424L1159.064697,1419.256592L1159.103271,1419.218506L1159.172119,1419.155273L1159.200439,1419.130615L1159.229736,1419.107666L1159.27124,1419.079102L1159.350586,1419.028564L1159.382568,1419.009277L1159.415527,1418.991943L1159.449219,1418.976074L1159.467285,1418.968506L1159.555908,1418.932861L1159.59082,1418.919922L1159.626465,1418.908691L1159.662598,1418.899414L1159.681152,1418.895508L1159.747314,1418.88208L1159.994629,1418.809082L1160.046387,1418.795654L1160.330566,1418.734375L1160.383545,1418.725098L1160.671387,1418.685547L1160.725342,1418.680176L1161.015869,1418.662598L1161.053223,1418.661377L1161.090332,1418.662109z"/>
    <path transform="translate(682.314026,-2565.25)" style="stroke:#000000;stroke-width:0.05mm;fill:none" d="M1163.057617,1452.770508L1163.47876,1452.451416L1163.483398,1452.447998L1163.886963,1452.147461L1164.0625,1451.997803L1165.097412,1451.038086L1166.085693,1450.044678L1167.040527,1449.00415L1167.944336,1447.936035L1168.746582,1446.833496L1169.5354,1445.689697L1169.901855,1445.12793L1169.688232,1445.233398L1168.580566,1445.829102L1167.49707,1446.46167L1166.436523,1447.131592L1165.399414,1447.838623L1164.386963,1448.581543L1163.400635,1449.360352L1163.022949,1449.678467L1162.646973,1450.016602L1162.294434,1450.355225L1161.949951,1450.709229L1161.609619,1451.08252L1161.287842,1451.459229L1160.980957,1451.843506L1160.685547,1452.23999L1160.435791,1452.619141L1160.217773,1453.014648L1160.032715,1453.423828L1159.883057,1453.8396L1159.814209,1454.119385L1159.782959,1454.396484L1159.786865,1454.676025L1159.788574,1454.687988L1159.872314,1454.672852L1160.066162,1454.612061L1160.869629,1454.249756L1161.403076,1453.96167L1161.911377,1453.636963L1162.419189,1453.258545L1163.055176,1452.772461L1163.057617,1452.770508z"/>
    <path transform="translate(1864.593994,-2366.0271)" style="stroke:#000000;stroke-width:0.05mm;fill:none" d="M15.671631,1238.92041C15.54839,1239.161377,15.443547,1239.411377,15.358154,1239.668213L15.367432,1239.688721C15.426683,1239.86499,15.376361,1240.060059,15.237305,1240.183594L15.181885,1240.218506C14.892392,1241.244873,14.752545,1242.307617,14.766602,1243.374023C14.787256,1243.916382,14.901989,1244.45105,15.105713,1244.954102C15.188231,1245.152222,15.364788,1245.296509,15.575684,1245.336426C15.887236,1245.503052,16.273611,1245.431396,16.505127,1245.164551C16.860813,1244.801514,17.123682,1244.358398,17.271973,1243.872314C17.569782,1242.981812,17.604259,1242.024292,17.371094,1241.114746C17.198559,1240.561035,16.929255,1240.042358,16.575195,1239.583008C16.335041,1239.251343,16.085922,1238.926147,15.828125,1238.60791L15.671631,1238.92041z"/>
</svg>
