<?xml version="1.0" encoding="UTF-8"?>
<svg xmlns="http://www.w3.org/2000/svg" xmlns:xlink="http://www.w3.org/1999/xlink" width="60.907mm" height="38.779mm" viewBox="1904.981201 -1005.631226 60.907471 38.778564">
    <path transform="translate(1937.02002,-996.521973)" style="stroke:#000000;stroke-width:0.05mm;fill:none" d="M-5.525635,10.622314L-5.681885,10.641846C-6.138447,10.769004,-6.533163,11.057474,-6.792969,11.453857L-6.932129,11.657715C-7.530571,12.776804,-7.918058,13.996114,-8.075439,15.255371C-8.261861,16.275379,-8.218236,17.324192,-7.947754,18.325195L-7.869629,18.507568C-7.74028,18.379385,-7.622625,18.239916,-7.518066,18.09082C-7.363165,17.867018,-7.211279,17.641348,-7.062256,17.413574C-6.261131,16.012821,-5.543663,14.565903,-4.913574,13.080322C-4.661228,12.437656,-4.422428,11.789494,-4.19751,11.136719C-4.41776,10.942214,-4.672387,10.790432,-4.948242,10.689209C-5.133458,10.624815,-5.330602,10.601974,-5.525635,10.622314z"/>
    <path transform="translate(1255,-1123.319946)" style="stroke:#000000;stroke-width:0.05mm;fill:none" d="M662.39209,124.641853L661.251953,124.80835L660.227051,124.98877L659.493896,125.121338L659.447266,125.315918L659.158203,126.556152L658.887695,127.787354L658.629395,129.039307L658.388672,130.2854L658.164063,131.534668L657.955322,132.786377L657.76416,134.031982L657.586182,135.29834L657.462158,136.257324L657.358154,137.213623L657.273926,138.173828L657.253662,138.474609L659.27832,137.996826L659.299561,137.992188L660.111572,137.82666L660.123779,137.824219L660.938721,137.672852L660.950928,137.670654L661.768066,137.533447L661.780029,137.531494L662.599609,137.408447L662.617188,137.406006L663.06543,137.350098L663.092773,137.347412L663.54248,137.308838L663.569824,137.306885L664.020752,137.285645L664.048096,137.284912L664.499756,137.281006L664.529541,137.281494L664.713623,137.287598L664.750732,137.289795L664.787842,137.293945L664.824463,137.300049L664.854492,137.306396L665.031982,137.348633L665.068115,137.358154L665.103516,137.369629L665.138428,137.383057L665.166016,137.39502L665.331787,137.47168L665.365234,137.488281L665.397705,137.506348L665.429199,137.526367L665.455566,137.544922L665.60376,137.654297L665.633057,137.677246L665.661377,137.70166L665.688232,137.727539L665.720703,137.762939L665.804199,137.860107L665.827881,137.88916L665.849854,137.919189L665.870117,137.950439L665.888916,137.982666L665.905518,138.015137L665.960205,138.128662L665.975586,138.162598L665.989014,138.197266L666.000732,138.232666L666.010498,138.268799L666.017822,138.302246L666.041748,138.426025L666.047852,138.462891L666.052002,138.499756L666.054199,138.537109L666.054688,138.574219L666.052734,138.612549L666.043457,138.740479L666.039795,138.777588L666.03418,138.814453L666.026855,138.85083L666.017334,138.886963L666.006104,138.922363L665.99292,138.957275L665.978027,138.991455L665.961182,139.024658L665.942627,139.057129L665.922607,139.088379L665.900879,139.118652L665.868896,139.157959L665.767578,139.273438L665.742188,139.300781L665.715576,139.326904L665.6875,139.351318L665.658203,139.374512L665.627686,139.395996L665.612061,139.406006L665.484619,139.486328L665.452637,139.505371L665.419678,139.522705L665.385742,139.53833L665.351074,139.552246L665.315918,139.564209L665.297852,139.569336L665.152832,139.610107L665.116699,139.619385L665.080322,139.626465L665.043457,139.631836L665.006348,139.635254L664.968994,139.636719L664.950195,139.636719L664.796631,139.634521L664.759521,139.633057L664.712402,139.628174L664.530029,139.60376L664.518066,139.602051L664.383545,139.581787L664.246582,139.579102L664.221924,139.578125L664.054199,139.569092L663.899658,139.566895L663.173096,139.642578L662.421387,139.740967L661.657959,139.86084L660.908203,139.998779L659.527832,140.272217L659.523438,140.272949L658.923828,140.387695L657.80957,140.638672L657.102539,140.819336L657.0979,140.926025L657.105225,141.123291L657.105713,141.150146L657.105713,143.715576L657.121338,144.482422L657.161621,145.25415L657.226074,146.020752L657.316406,146.797363L657.428711,147.553223L657.567139,148.31665L657.726807,149.0625L657.912842,149.812744L658.125488,150.488037L658.386475,151.141357L658.695068,151.772705L659.046631,152.374268L659.28833,152.698975L659.566162,153.002441L659.869873,153.272949L660.188721,153.503662L660.373047,153.599365L660.585938,153.687988L660.801025,153.756348L661.024902,153.807129L661.247314,153.837891L661.476563,153.850098L661.700928,153.842529L661.936279,153.814697L662.270996,153.748535L662.606934,153.663574L662.94165,153.560059L663.266846,153.440186L663.586182,153.302734L663.898682,153.148438L664.203613,152.977539L664.498535,152.790771L665.378418,152.170166L666.230469,151.528564L667.07373,150.85083L667.900146,150.143066L667.902344,150.141357L668.43042,149.692871L668.954346,149.244141L668.960205,149.239014L669.571045,148.727295L670.178711,148.215332L670.18457,148.210449L670.406738,148.027344L670.412598,148.022705L670.602051,147.869873L670.610107,147.863525L670.780029,147.730469L671.450439,147.120605L671.452637,147.118408L672.092773,146.54126L671.946533,146.350586L671.924561,146.320313L671.910645,146.299316L671.773193,146.083252L671.746094,146.036621L671.625977,145.811768L671.602295,145.763428L671.499756,145.530762L671.479736,145.479736L671.395508,145.240234L671.379395,145.188232L671.313721,144.942871L671.301758,144.890137L671.254883,144.640381L671.246826,144.586914L671.218994,144.333252L671.215332,144.279297L671.206787,144.023438L671.206299,144.001709L671.204346,143.288574L671.206055,143.238037L671.254639,142.529541L671.259766,142.479004L671.358643,141.777344L671.367676,141.727539L671.515869,141.035645L671.528076,140.986572L671.725098,140.306885L671.740967,140.258789L671.986084,139.594238L672.005127,139.547363L672.297607,138.900146L672.320313,138.854736L672.659668,138.227539L672.688232,138.179443L672.889404,137.868652L672.9104,137.837891L672.922852,137.821289L673.147461,137.529541L673.170898,137.500488L673.184326,137.485352L673.430908,137.213623L673.456543,137.186768L673.470947,137.172852L673.738281,136.922119L673.766113,136.897461L673.782227,136.884277L674.069092,136.65625L674.098877,136.633789L674.115234,136.622559L674.419922,136.417969L674.451416,136.397949L674.469482,136.387451L674.791016,136.207764L674.823975,136.19043L674.842285,136.181885L675.178711,136.028076L675.212891,136.013428L675.248047,136.000488L675.283691,135.989746L675.324463,135.979492L675.573486,135.925781L675.616699,135.917969L675.867676,135.879883L675.912109,135.874512L676.164551,135.852295L676.208252,135.849854L676.461182,135.843262L676.505127,135.843506L676.758057,135.852539L676.801758,135.855469L677.053955,135.880127L677.098389,135.885742L677.349121,135.92627L677.392578,135.934814L677.535645,135.967285L677.556396,135.351807L677.556152,135.351807L677.599854,133.9104L677.600098,133.904785L677.658691,132.366455L677.65918,132.357178L677.796387,129.681885L677.796875,129.673584L677.965576,127L677.984375,126.624023L677.994629,126.265137L677.971924,125.893311L677.970703,125.855957L677.971436,125.818848L677.974854,125.773933L677.992676,125.60791L677.997559,125.571037L678.004395,125.534416L678.013184,125.498047L678.02832,125.449219L678.063477,125.348633L678.07666,125.313721L678.091797,125.279541L678.108398,125.246338L678.126953,125.214111L678.146484,125.183838L678.205322,125.097168L678.227051,125.066887L678.250244,125.037842L678.275146,125.01001L678.30127,124.983398L678.32666,124.960213L678.405762,124.891357L678.43457,124.867432L678.4646,124.845459L678.495605,124.824707L678.527832,124.805908L678.560547,124.788818L678.656006,124.742188L678.689941,124.726563L678.724609,124.712891L678.771484,124.697746L679.081787,124.608398L679.11792,124.598877L679.137939,124.594482L679.453857,124.530762L679.490479,124.524406L679.511475,124.521729L679.831543,124.484131L679.868652,124.480713L679.889893,124.479736L680.212646,124.468513L680.249756,124.468018L680.287109,124.469727L680.324219,124.473389L680.361084,124.47876L680.379639,124.482422L680.526611,124.512451L680.562988,124.520752L680.598877,124.53125L680.634033,124.543213L680.668457,124.557373L680.705078,124.574463L680.838867,124.64209L680.871826,124.659912L680.903564,124.679199L680.934326,124.700203L680.976807,124.733398L681.053711,124.79834L681.081543,124.823242L681.108154,124.849373L681.133301,124.876953L681.156738,124.905762L681.178955,124.935791L681.199463,124.967041L681.209229,124.983147L681.258545,125.067627L681.276367,125.100342L681.292725,125.134033L681.307129,125.168213L681.31958,125.203369L681.330322,125.239014L681.342285,125.289787L681.361084,125.385986L681.367188,125.422852L681.371582,125.459717L681.373779,125.49707L681.374268,125.53418L681.372559,125.571533L681.369141,125.608643L681.366455,125.62793L681.351563,125.727287L681.344971,125.763924L681.332764,125.814209L681.305664,125.910637L681.294678,125.946289L681.281982,125.981201L681.26709,126.015381L681.249756,126.050781L681.234863,126.079102L681.155029,126.634033L681.090088,127.262207L681.051514,127.879387L680.945557,132.684326L680.896484,136.859619L680.890869,140.749512L681.052246,140.305908L681.059082,140.287354L681.442383,139.318848L681.45752,139.283447L681.897949,138.325439L681.907959,138.304688L682.37915,137.361572L682.396729,137.328613L682.422363,137.286621L682.509033,137.155762L682.530518,137.125244L682.553467,137.095947L682.577881,137.067871L682.596436,137.048584L682.705811,136.937988L682.732666,136.912109L682.760742,136.887695L682.790283,136.86499L682.811279,136.850098L682.939697,136.762695L682.970947,136.742432L683.003418,136.724121L683.036621,136.707275L683.060059,136.696777L683.204346,136.63501L683.23877,136.621338L683.287598,136.605225L683.550049,136.529785L683.586182,136.520508L683.622803,136.512939L683.664551,136.506836L683.933838,136.475586L683.970947,136.472412L684.008301,136.470947L684.049805,136.47168L684.320801,136.484619L684.35791,136.487549L684.39502,136.492188L684.4375,136.5L684.704346,136.557861L684.740723,136.56665L684.776367,136.577393L684.811279,136.590088L684.845703,136.604492L684.882568,136.622314L684.968262,136.666992L685.000732,136.685059L685.032471,136.704834L685.062988,136.726318L685.092285,136.749268L685.120361,136.773682L685.147217,136.799561L685.1604,136.813477L685.224365,136.882324L685.249023,136.9104L685.272217,136.939453L685.293701,136.969971L685.313721,137.001465L685.332031,137.033936L685.355957,137.08374L685.393311,137.169922L685.407227,137.204346L685.419189,137.239746L685.429443,137.275391L685.437744,137.311768L685.444336,137.348389L685.44873,137.385498L685.450195,137.404053L685.456787,137.500488L685.458496,137.537842L685.458008,137.574951L685.455811,137.612305L685.451416,137.64917L685.445313,137.686035L685.435791,137.727051L685.370117,137.980957L685.359863,138.016846L685.347656,138.052246L685.335205,138.08374L685.231689,138.324707L685.227051,138.334717L684.543945,139.858887L684.19458,140.701904L683.863037,141.570801L683.565918,142.419189L683.370605,143.159912L683.218262,143.916748L683.160156,144.330322L683.274414,144.192627L683.630615,143.700195L684.25,142.773438L684.817871,141.830322L685.345459,140.850586L685.828125,139.843018L685.831055,139.837158L686.033203,139.425537L686.220459,139.004883L686.236572,138.971191L686.254395,138.938477L686.26709,138.917236L686.364746,138.760986L686.385254,138.72998L686.407471,138.699951L686.431152,138.671143L686.456299,138.643799L686.482178,138.618408L686.619873,138.489746L686.647705,138.464844L686.677002,138.44165L686.700195,138.424805L686.854004,138.318115L686.88501,138.297852L686.917236,138.279053L686.941895,138.266113L687.109375,138.182617L687.143311,138.166748L687.177734,138.152832L687.20459,138.143555L687.383545,138.084717L687.419189,138.073975L687.464844,138.063232L687.662842,138.023193L687.699463,138.016602L687.736328,138.012207L687.776855,138.009521L687.977295,138.001953L688.014648,138.001465L688.051758,138.00293L688.092529,138.006836L688.291504,138.031738L688.328369,138.037354L688.364746,138.044922L688.40332,138.055176L688.597168,138.112061L688.632813,138.123535L688.66748,138.136719L688.70166,138.151855L688.734863,138.168701L688.76709,138.187256L688.798584,138.20752L688.828613,138.229248L688.857666,138.252686L688.885498,138.277588L688.911865,138.303711L688.931885,138.325684L688.996094,138.398926L689.019775,138.42749L689.041992,138.457275L689.062744,138.488281L689.075439,138.509277L689.124023,138.592529L689.141846,138.625244L689.158203,138.658691L689.172607,138.693115L689.180664,138.7146L689.212646,138.80542L689.224121,138.841064L689.233643,138.876953L689.241211,138.913574L689.244873,138.93457L689.259521,139.030762L689.26416,139.067871L689.266846,139.10498L689.312744,140.094727L689.312988,140.099854L689.351074,141.073486L689.420654,142.200928L689.478271,142.865479L689.549805,143.512939L689.63916,144.175293L689.744385,144.838135L689.861084,145.476074L689.997803,146.133789L690.145264,146.768311L690.226074,147.049805L690.319824,147.333008L690.423828,147.609131L690.505371,147.801514L690.560059,147.656738L690.789063,146.915283L690.979004,146.157227L691.128662,145.38623L691.236816,144.606689L691.353027,143.590332L691.439941,142.564697L691.496582,141.542236L691.522461,140.522461L691.518555,139.49585L691.484863,138.481201L691.42041,137.458496L691.325195,136.429443L691.323486,136.407227L691.294678,135.933594L691.241943,135.467041L691.23877,135.429932L691.237549,135.392822L691.238281,135.355469L691.23999,135.327637L691.248291,135.229248L691.252441,135.192139L691.258545,135.155518L691.266357,135.119141L691.276367,135.083008L691.288086,135.047852L691.295654,135.027588L691.354248,134.879395L691.368896,134.844971L691.385254,134.811523L691.40332,134.779053L691.423096,134.747559L691.44458,134.717041L691.467529,134.687744L691.493408,134.657959L691.598145,134.544678L691.624268,134.518066L691.651611,134.492676L691.680176,134.468994L691.709961,134.446777L691.740967,134.426025L691.773193,134.406982L691.804443,134.390381L691.942871,134.321777L691.976807,134.306152L692.011475,134.292236L692.046631,134.280273L692.08252,134.27002L692.118896,134.261719L692.155518,134.255371L692.19458,134.250732L692.353271,134.236328L692.390381,134.233887L692.427734,134.233398L692.464844,134.234863L692.501953,134.238525L692.538818,134.243896L692.575439,134.251221L692.611572,134.260254L692.641846,134.269775L692.759277,134.308838L692.794434,134.321533L692.828857,134.335938L692.862305,134.352295L692.89502,134.370361L692.926514,134.389893L692.957031,134.411377L692.999512,134.445068L693.099121,134.531006L693.126709,134.556152L693.152832,134.582764L693.177734,134.610352L693.211182,134.65332L693.287109,134.758545L693.308105,134.789551L693.327637,134.821289L693.345215,134.854004L693.36792,134.903564L693.41748,135.023682L693.430664,135.058594L693.442139,135.093994L693.451904,135.129883L693.462402,135.184082L693.48291,135.313965L693.487549,135.348145L693.608643,136.463623L693.610596,136.484131L693.640625,136.862793L693.64209,136.860107L693.662109,136.828613L693.683838,136.79834L693.707031,136.769287L693.731934,136.741455L693.758057,136.714844L693.830078,136.645508L693.857422,136.620361L693.88623,136.596924L693.91626,136.574707L693.94751,136.554199L693.982178,136.533936L694.071045,136.485352L694.104004,136.468262L694.138184,136.453125L694.172852,136.439697L694.208252,136.427979L694.231689,136.421631L694.143311,136.282471L694.124023,136.250488L694.106689,136.217529L694.08667,136.173584L694.016113,136.003662L694.002686,135.968994L693.991211,135.933594L693.979248,135.888428L693.938477,135.708984L693.931152,135.672607L693.925781,135.635742L693.921875,135.589111L693.912109,135.404297L693.911133,135.366943L693.912109,135.329834L693.916504,135.279785L693.939453,135.093506L693.944824,135.056641L693.952393,135.02002L693.965332,134.971924L694.021729,134.788086L694.033691,134.752686L694.047363,134.718018L694.062744,134.684082L694.087402,134.637939L694.220947,134.40918L694.240723,134.377686L694.261963,134.346924L694.284668,134.317627L694.304199,134.294678L694.478516,134.099121L694.50415,134.071777L694.531006,134.046143L694.559326,134.021729L694.583252,134.00293L694.793213,133.845703L694.823486,133.824219L694.85498,133.804199L694.887695,133.786133L694.914307,133.772705L695.15332,133.65918L695.1875,133.644043L695.222168,133.630615L695.257813,133.619141L695.293701,133.609619L695.330078,133.602051L695.353271,133.598145L695.48877,133.577881L695.525879,133.573242L695.562988,133.570801L695.600342,133.570068L695.623291,133.570557L695.759766,133.576172L695.796875,133.578857L695.833984,133.583252L695.870605,133.5896L695.901855,133.59668L696.072998,133.63916L696.108887,133.648926L696.144287,133.660889L696.191162,133.679688L696.351074,133.750977L696.384766,133.76709L696.41748,133.784912L696.459961,133.811523L696.604736,133.909424L696.63501,133.931152L696.664063,133.954346L696.70166,133.988281L696.828125,134.111084L696.854248,134.137695L696.878906,134.165771L696.9021,134.195068L696.923584,134.225342L696.943359,134.256836L696.96167,134.289307L696.970459,134.306396L697.06665,134.501221L697.082275,134.535156L697.096191,134.569824L697.112061,134.618164L697.171143,134.822021L697.180664,134.858154L697.187988,134.894531L697.195068,134.942871L697.217773,135.150879L697.220703,135.187988L697.221924,135.225342L697.220459,135.272949L697.207275,135.480713L697.204102,135.518066L697.19873,135.554932L697.189453,135.600098L697.141357,135.80249L697.131836,135.838623L697.120361,135.874023L697.103027,135.918457L697.020508,136.11084L697.004883,136.144775L696.987549,136.177734L696.962402,136.219482L696.846436,136.396973L696.825195,136.427734L696.80249,136.457275L696.768311,136.49585L696.619141,136.654053L696.593018,136.680664L696.56543,136.705566L696.532227,136.732422L696.42627,136.812988L696.395996,136.834717L696.364746,136.85498L696.340088,136.869141L696.290771,136.896484L696.311523,136.921631L696.334473,136.951172L696.355713,136.981689L696.375244,137.013184L696.393311,137.045898L696.409668,137.079346L696.418457,137.100098L696.466797,137.216553L696.480225,137.251465L696.491943,137.286865L696.501465,137.322754L696.509277,137.359375L696.515137,137.395996L696.517334,137.415039L696.530518,137.540527L696.533447,137.577637L696.534424,137.614746L696.533447,137.6521L696.530518,137.689209L696.525635,137.726318L696.521729,137.748535L696.497559,137.874756L696.485107,137.928223L696.426025,138.144775L696.420166,138.165527L696.358154,138.368164L696.299805,138.592529L696.162109,139.211182L696.045898,139.824951L695.948242,140.446045L695.870605,141.067139L695.810059,141.934326L695.798584,142.807129L695.836182,143.674316L695.922607,144.533691L695.978271,144.848389L696.062012,145.151123L696.120361,145.302979L696.166748,145.250488L696.530762,144.78125L696.870605,144.281738L697.178711,143.760498L697.658691,142.892822L698.120605,142.011475L698.562012,141.121582L698.92749,140.341309L698.995605,138.843018L698.997314,138.814941L699.068604,137.976807L699.070557,137.958984L699.083496,137.842041L699.088379,137.804932L699.095459,137.768311L699.104248,137.732178L699.115234,137.696533L699.122314,137.676025L699.162109,137.567139L699.175781,137.532471L699.191406,137.498535L699.208496,137.465576L699.227539,137.433594L699.238037,137.417236L699.302246,137.320801L699.32373,137.290283L699.34668,137.260986L699.371338,137.23291L699.397217,137.206055L699.412598,137.19165L699.499023,137.112061L699.5271,137.087646L699.556396,137.064453L699.58667,137.043213L699.618408,137.023193L699.650879,137.005127L699.684326,136.98877L699.71875,136.974121L699.76001,136.959229L700.036621,136.868896L700.072266,136.858154L700.108398,136.849365L700.140869,136.843262L700.426025,136.795898L700.462891,136.790771L700.5,136.787598L700.533447,136.786377L700.82251,136.782715L700.859863,136.783203L700.896973,136.785645L700.930176,136.789551L701.218018,136.829834L701.254639,136.835938L701.291016,136.843994L701.326904,136.854004L701.362305,136.865723L701.396973,136.879395L701.430908,136.894775L701.455322,136.907227L701.540527,136.952881L701.572754,136.971436L701.604248,136.991455L701.634521,137.013184L701.663574,137.036621L701.691406,137.061279L701.7229,137.092773L701.787354,137.161377L701.812256,137.189209L701.835449,137.218262L701.857178,137.248535L701.877441,137.280029L701.895752,137.312256L701.91333,137.347412L701.953125,137.432617L701.968018,137.466797L701.981201,137.501709L701.992432,137.537354L702.001709,137.573242L702.009277,137.609863L702.015625,137.654541L702.026367,137.750488L702.029541,137.787598L702.030762,137.823975L702.038574,138.799805L702.038574,138.80957L702.037354,138.992676L702.094238,138.910889L702.119385,138.876953L702.532959,138.350098L702.556641,138.321533L702.581543,138.294434L702.765625,138.104492L702.792236,138.078369L702.827881,138.047363L703.032227,137.881348L703.061768,137.858643L703.10083,137.832031L703.32373,137.691162L703.355713,137.672119L703.397949,137.650391L703.636475,137.536865L703.670654,137.521729L703.705322,137.508301L703.740723,137.496826L703.776855,137.487305L703.819336,137.478516L704.032227,137.441162L704.069092,137.435547L704.106201,137.432129L704.143311,137.43042L704.180664,137.430908L704.234619,137.434814L704.445068,137.458496L704.481934,137.463623L704.518555,137.470703L704.554688,137.479736L704.590332,137.490479L704.63916,137.508789L704.834717,137.590332L704.868652,137.605713L704.901855,137.622559L704.934082,137.641357L704.965332,137.661621L705.009033,137.694336L705.176758,137.830322L705.205078,137.854492L705.241455,137.889893L705.397949,138.052734L705.433105,138.092041L705.57666,138.265381L705.608643,138.307129L705.738525,138.48999L705.766602,138.532715L705.882813,138.724121L705.907959,138.769287L706.01001,138.96875L706.032227,139.016602L706.119385,139.223389L706.137695,139.271484L706.209717,139.484375L706.224854,139.534912L706.28125,139.753662L706.284912,139.768555L706.54126,140.859863L706.547119,140.887451L706.758057,141.979248L706.905273,142.692139L706.972168,142.947266L707.053223,143.203369L707.106201,143.345215L707.139648,143.29541L707.239014,143.106201L707.616455,142.29834L707.980957,141.468506L708.324951,140.63501L708.653564,139.783203L708.667969,139.748779L708.678467,139.726563L708.822021,139.43335L708.839111,139.400391L708.858154,139.368164L708.878662,139.337158L708.893311,139.317139L708.990967,139.187988L709.014404,139.158936L709.039063,139.131104L709.065186,139.104492L709.081299,139.0896L709.201416,138.980957L709.229736,138.956543L709.259277,138.933838L709.289795,138.912598L709.311523,138.898926L709.451416,138.814697L709.483887,138.796387L709.517334,138.779785L709.551514,138.764893L709.586426,138.751709L709.621826,138.740479L709.657959,138.731201L709.694336,138.723633L709.731201,138.718262L709.770508,138.7146L709.86084,138.708496L709.897949,138.706787L709.935303,138.707275L709.972412,138.709717L710.009521,138.713867L710.046143,138.720215L710.075684,138.726563L710.161621,138.747314L710.19751,138.75708L710.23291,138.768555L710.267822,138.781982L710.301758,138.797363L710.334961,138.814209L710.358154,138.827393L710.434082,138.872559L710.465576,138.892578L710.496094,138.914063L710.525391,138.937012L710.553467,138.96167L710.580078,138.987793L710.599609,139.008545L710.659912,139.075684L710.684082,139.104248L710.706787,139.133789L710.727783,139.164551L710.747314,139.196289L710.764893,139.229004L710.781006,139.262695L710.795166,139.297119L710.807617,139.332275L710.814941,139.356445L710.84668,139.468018L710.855957,139.50415L710.863281,139.540527L710.86792,139.570801L710.882813,139.685303L710.886475,139.722412L710.888428,139.759766L710.888672,139.787598L710.886963,139.902832L710.885254,139.940186L710.881836,139.977295L710.877686,140.007568L710.858887,140.12207L710.851807,140.158691L710.842773,140.195068L710.71875,140.646729L710.70874,140.680176L710.562744,141.125L710.551025,141.157959L710.383301,141.595215L710.370117,141.627441L710.181152,142.056152L709.922852,142.680908L709.914307,142.700928L709.630371,143.332275L709.621094,143.351807L709.318115,143.974121L709.30835,143.993652L708.986328,144.606689L708.966553,144.641846L708.801025,144.917725L708.781006,144.949219L708.756348,144.983398L708.561768,145.238281L708.538574,145.267334L708.510742,145.298096L708.289063,145.530029L708.262695,145.556152L708.231201,145.583984L707.984375,145.790527L707.955322,145.813721L707.924805,145.835205L707.885986,145.859619L707.655518,145.993896L707.623047,146.011719L707.589355,146.028076L707.554932,146.04248L707.531982,146.050781L707.287109,146.13623L707.251465,146.147705L707.215576,146.157227L707.178955,146.164795L707.158691,146.168213L706.906006,146.206299L706.869141,146.210693L706.831787,146.213379L706.794678,146.214111L706.774658,146.213623L706.520996,146.20459L706.483887,146.202393L706.446777,146.197998L706.393066,146.188477L706.145264,146.133789L706.109131,146.124756L706.073486,146.11377L706.038574,146.101074L706.020264,146.09375L705.784912,145.993652L705.750977,145.978027L705.718018,145.960938L705.685791,145.941895L705.668457,145.930664L705.452637,145.786621L705.422119,145.765137L705.392822,145.741943L705.364746,145.717529L705.347412,145.700928L705.157715,145.513428L705.131836,145.486572L705.107666,145.458252L705.08667,145.431641L704.787109,145.02832L704.765869,144.997803L704.744629,144.963867L704.491455,144.531982L704.473389,144.499512L704.456055,144.463623L704.250977,144.006592L704.236572,143.972168L704.223145,143.934082L704.068604,143.456055L704.053711,143.403076L703.871582,142.642822L703.865967,142.616455L703.712646,141.850098L703.707764,141.824219L703.583008,141.05249L703.579346,141.026123L703.551514,140.800293L703.366943,141.097656L703.120361,141.531738L702.889893,141.977295L702.679443,142.426025L702.485107,142.88623L702.307129,143.357422L701.925293,144.417236L701.892334,145.815674L701.892578,145.815674L701.863037,147.333008L701.862549,147.345703L701.848145,147.730957L701.845703,147.768066L701.843262,147.791992L701.820557,147.974854L701.814941,148.011719L701.810303,148.036133L701.771729,148.216309L701.762939,148.252441L701.755615,148.277344L701.701172,148.453613L701.689209,148.48877L701.675537,148.523438L701.659912,148.557373L701.642822,148.590332L701.623779,148.622314L701.603027,148.65332L701.580811,148.68335L701.556885,148.711914L701.531738,148.739258L701.505127,148.765381L701.478271,148.788818L701.389648,148.863037L701.360596,148.88623L701.330078,148.907959L701.298828,148.927979L701.255371,148.951904L701.153564,149.003662L701.119873,149.019531L701.085449,149.033936L701.050293,149.046143L701.004883,149.059326L700.894287,149.087158L700.85791,149.095215L700.821045,149.101563L700.78418,149.105713L700.733398,149.108643L700.272461,149.116943L700.220459,149.115967L699.875488,149.096924L699.838379,149.09375L699.801514,149.088867L699.764893,149.082031L699.72876,149.073242L699.693115,149.0625L699.598633,149.031494L699.563477,149.018799L699.529053,149.004639L699.495605,148.988281L699.462891,148.970459L699.423828,148.946045L699.342773,148.891602L699.312256,148.870117L699.283203,148.846924L699.255127,148.822266L699.228516,148.796143L699.196289,148.760498L699.133301,148.686035L699.109863,148.656982L699.088135,148.626709L699.068115,148.595459L699.049561,148.562988L699.029785,148.523193L698.988281,148.432617L698.973633,148.398193L698.960693,148.363281L698.949707,148.327637L698.940674,148.291504L698.933838,148.256836L698.889893,148.001465L698.884521,147.9646L698.880615,147.91626L698.867676,147.657227L698.866699,147.62793L698.861816,147.071533L698.846436,146.218506L698.846436,146.208008L698.84375,145.395752L698.359375,146.133057L698.337891,146.163818L697.775879,146.927979L697.75293,146.957275L697.73877,146.974121L697.462158,147.29126L697.437012,147.318604L697.402588,147.351807L697.091064,147.632813L697.062744,147.656982L697.02417,147.686279L696.681152,147.927734L696.650146,147.948486L696.608643,147.972656L696.237793,148.172119L696.20459,148.188721L696.17041,148.203857L696.135498,148.217041L696.086426,148.232178L695.842529,148.298096L695.806396,148.306885L695.769775,148.313721L695.723633,148.31958L695.477295,148.342773L695.440186,148.345459L695.402832,148.345947L695.35791,148.343994L695.114502,148.325928L695.077393,148.322266L695.040771,148.31665L694.998291,148.307617L694.762695,148.25L694.726807,148.240234L694.691406,148.228516L694.651855,148.212891L694.428711,148.117432L694.39502,148.102051L694.361816,148.084717L694.324463,148.062256L694.118896,147.93042L694.088135,147.909424L694.05835,147.886963L694.02417,147.857666L693.841309,147.691162L693.814453,147.665283L693.788818,147.638184L693.759521,147.603027L693.604004,147.403809L693.581787,147.373779L693.561279,147.342529L693.540771,147.307617L693.319824,146.904053L693.302734,146.87085L693.286133,146.83374L693.189209,146.598877L693.006348,147.375L692.997314,147.409912L692.729492,148.334473L692.716797,148.373779L692.540527,148.87207L692.527344,148.906738L692.512207,148.940674L692.2854,149.416748L692.268555,149.449951L692.25,149.482178L691.974854,149.931641L691.954346,149.962891L691.932617,149.99292L691.611084,150.412598L691.587646,150.441406L691.56543,150.466309L691.433594,150.606934L691.407471,150.633545L691.379883,150.658691L691.356201,150.678223L691.20752,150.795898L691.177734,150.818359L691.146729,150.839111L691.122803,150.853516L690.960205,150.947754L690.92749,150.965576L690.893799,150.981689L690.867432,150.99292L690.693848,151.062256L690.658691,151.075195L690.623291,151.086182L690.597168,151.093018L690.415527,151.136963L690.37915,151.144775L690.342285,151.150879L690.314941,151.153809L690.12793,151.171387L690.090576,151.174072L690.053467,151.174561L690.023682,151.173584L689.834229,151.163574L689.797119,151.160645L689.760254,151.155762L689.731201,151.150635L689.542236,151.112549L689.506104,151.104248L689.470215,151.093994L689.434814,151.081787L689.400391,151.067871L689.364746,151.051514L689.05957,150.898926L689.026855,150.881348L688.994873,150.862061L688.957031,150.836182L688.683838,150.635742L688.654297,150.612793L688.626221,150.588623L688.592773,150.556152L688.357422,150.312256L688.332275,150.284668L688.308594,150.255859L688.281494,150.21875L688.089355,149.936768L688.069092,149.905518L688.049561,149.871094L687.716064,149.246094L687.69165,149.195801L687.408691,148.547607L687.388428,148.49585L687.156982,147.827393L687.145752,147.791992L687.140869,147.773926L686.962402,147.088379L686.954102,147.053467L686.687988,145.768066L686.682617,145.737793L686.472168,144.442383L686.467773,144.411865L686.375488,143.631836L686.070313,144.125488L686.05957,144.142334L685.584229,144.864746L685.561035,144.897949L685.093506,145.527588L685.064453,145.564209L684.557129,146.161133L684.525635,146.195557L683.980225,146.757813L683.946533,146.790283L683.364502,147.316162L683.336182,147.340576L683.302002,147.366699L683.075195,147.529297L683.044434,147.550049L683.012451,147.569336L682.973633,147.589844L682.724854,147.71167L682.690918,147.727295L682.65625,147.740967L682.614258,147.754883L682.348389,147.83374L682.3125,147.843262L682.276123,147.851074L682.232666,147.857666L681.955811,147.891602L681.918701,147.895264L681.881592,147.896973L681.826172,147.895752L681.625732,147.883545L681.588623,147.880127L681.551758,147.875L681.500732,147.864746L681.310059,147.818359L681.27417,147.808594L681.23877,147.796875L681.192139,147.77832L681.01709,147.701416L681.082275,149.326904L681.082764,149.344482L681.089111,149.754395L681.088623,149.791748L681.086182,149.828857L681.082031,149.865967L681.075684,149.902588L681.067627,149.939453L681.028564,150.094238L681.018311,150.130127L681.006348,150.165283L680.992676,150.199951L680.977051,150.233887L680.959473,150.267334L680.881348,150.406982L680.862305,150.438965L680.841797,150.469971L680.819336,150.5L680.795654,150.528564L680.768311,150.557861L680.654541,150.673828L680.62793,150.699707L680.599854,150.724121L680.570313,150.74707L680.539795,150.768555L680.508301,150.78833L680.47583,150.806396L680.442139,150.822754L680.407959,150.837402L680.37085,150.85083L680.26709,150.885254L680.231445,150.895996L680.195313,150.905029L680.158691,150.911865L680.118408,150.91748L680.010498,150.928955L679.973389,150.931885L679.936035,150.932861L679.898926,150.931885L679.859863,150.928955L679.752197,150.91748L679.744873,150.916504L679.717529,150.922852L679.550293,150.958984L679.513672,150.966064L679.468506,150.971924L679.298828,150.988281L679.261475,150.990723L679.216309,150.991211L679.045654,150.987793L679.008301,150.986084L678.9646,150.981689L678.794922,150.95874L678.758057,150.952637L678.72168,150.944824L678.685547,150.935059L678.650146,150.92334L678.615479,150.909912L678.581543,150.894531L678.54834,150.877686L678.509521,150.854736L678.391602,150.780029L678.360596,150.759277L678.330811,150.736816L678.314697,150.723633L678.209229,150.63501L678.181396,150.610352L678.154785,150.584229L678.140869,150.569336L678.048828,150.468262L678.024414,150.440186L678.001709,150.410645L677.989014,150.392822L677.911865,150.280762L677.891357,150.249512L677.864258,150.201172L677.802246,150.079834L677.786133,150.046143L677.771973,150.011719L677.764648,149.992432L677.719238,149.863525L677.707764,149.828125L677.698242,149.791992L677.693604,149.770996L677.665771,149.63623L677.65918,149.599609L677.654541,149.5625L677.652832,149.543457L677.590088,148.671631L677.589111,148.654541L677.554199,147.921143L677.553711,147.903564L677.536865,147.169434L677.536621,147.1521L677.537598,146.417725L677.530029,145.11084L677.530029,145.10791L677.527832,143.795898L677.520996,142.631104L677.438232,142.800537L677.432129,142.8125L676.834961,143.979248L676.828613,143.991211L676.209229,145.146484L676.190918,145.178955L676.173096,145.206787L675.943848,145.548584L675.917236,145.585693L675.666748,145.911621L675.637451,145.947266L675.366211,146.256348L675.334961,146.289795L675.044189,146.581055L675.004883,146.617676L674.875,146.729492L674.845947,146.75293L674.810791,146.778564L674.67041,146.874023L674.63916,146.894043L674.601563,146.915283L674.483887,146.977295L674.483643,146.978027L674.47876,146.997559L674.451172,147.101318L674.440674,147.136963L674.428467,147.172119L674.414063,147.206543L674.398193,147.240234L674.378418,147.276611L674.235596,147.521729L674.216064,147.553223L674.198975,147.578125L674.033936,147.808105L674.011475,147.837891L673.992188,147.86084L673.806152,148.074219L673.780762,148.101807L673.759277,148.123047L673.553223,148.318359L673.533447,148.336426L672.531738,149.216797L672.515869,149.230469L671.488525,150.081299L670.872314,150.606689L670.866943,150.611328L670.249512,151.127197L669.405273,151.864746L669.393799,151.874512L668.53418,152.594238L668.522705,152.603516L667.648438,153.304932L667.636719,153.314209L666.747559,153.997559L666.732178,154.009033L666.331787,154.299805L666.311035,154.314209L665.900879,154.590332L665.879639,154.604248L665.460205,154.865479L665.438477,154.878418L665.01001,155.124512L664.988037,155.136719L664.55127,155.367432L664.528809,155.378662L664.083984,155.593994L664.060547,155.604736L663.60791,155.803955L663.584961,155.813721L663.125244,155.99707L663.095703,156.008057L662.669434,156.156494L662.619385,156.171875L662.184082,156.28833L662.131836,156.300293L661.688721,156.383789L661.636719,156.391602L661.188232,156.442139L661.154541,156.445068L660.833984,156.46582L660.787598,156.467285L660.468994,156.467041L660.422363,156.465576L660.106201,156.44458L660.060303,156.439941L659.747803,156.398682L659.702393,156.391113L659.394531,156.330078L659.349365,156.31958L659.047119,156.23877L659.003418,156.225586L658.707275,156.125732L658.664795,156.109863L658.375977,155.991455L658.334229,155.9729L658.053711,155.836182L658.013428,155.814941L657.741943,155.6604L657.702637,155.63623L657.441162,155.464111L657.403564,155.4375L657.153076,155.248291L657.117676,155.219971L656.878906,155.014404L656.844727,154.98291L656.618652,154.760986L656.586182,154.726807L656.374023,154.489014L656.344238,154.453369L656.146484,154.200195L656.116943,154.159424L655.730225,153.584473L655.710205,153.552979L655.699951,153.535156L655.361816,152.931641L655.344482,152.898682L655.335693,152.880127L655.047607,152.251221L655.032959,152.217041L655.025635,152.197998L654.789063,151.546875L654.77417,151.500732L654.585205,150.844238L654.579346,150.822754L654.411133,150.161133L654.406006,150.139404L654.258789,149.473389L654.25415,149.451172L654.128174,148.780762L654.124268,148.758545L654.019531,148.084473L654.016602,148.062256L653.93335,147.385254L653.930908,147.363037L653.868896,146.68335L653.867188,146.660889L653.82666,145.979004L653.826172,145.970459L653.778076,144.956787L653.777588,144.939453L653.754395,143.924805L653.75415,143.907471L653.755615,142.892822L653.755859,142.875244L653.781982,141.870117L653.781982,141.750732L653.548096,141.82666L653.032959,142.017822L652.694336,142.1604L652.682617,142.175781L652.658691,142.204346L652.633301,142.231689L652.606445,142.257568L652.578369,142.281982L652.543701,142.308594L652.449463,142.376953L652.418945,142.397949L652.386963,142.41748L652.354248,142.435303L652.320557,142.451172L652.300781,142.459717L652.172852,142.511963L652.138184,142.525146L652.102539,142.536377L652.06665,142.545898L652.030029,142.553467L651.993164,142.559082L651.956055,142.562744L651.905273,142.564697L651.771484,142.564941L651.734375,142.563965L651.697266,142.561279L651.660156,142.556396L651.623535,142.549561L651.587402,142.541016L651.551514,142.530518L651.511719,142.516357L651.387207,142.467773L651.352783,142.453369L651.319336,142.437012L651.286621,142.419189L651.255127,142.399414L651.224365,142.378174L651.195068,142.355225L651.157471,142.322266L651.056885,142.227295L651.030518,142.200928L651.005371,142.17334L650.981934,142.144531L650.959961,142.114502L650.939697,142.083252L650.924316,142.057129L650.869629,141.959229L650.852295,141.926025L650.83667,141.892334L650.822998,141.857666L650.811035,141.822266L650.802246,141.791748L650.774414,141.685059L650.766113,141.648926L650.759521,141.612061L650.754883,141.575195L650.752197,141.538086L650.751465,141.50415L650.751709,141.393799L650.752686,141.356445L650.755859,141.319336L650.760742,141.282471L650.767578,141.24585L650.775146,141.214111L650.803711,141.105713L650.813721,141.071045L650.843506,140.977539L650.855713,140.942383L650.869873,140.907715L650.885742,140.874023L650.909668,140.830322L650.959229,140.746826L650.979004,140.715332L651.000488,140.684814L651.023682,140.655518L651.056396,140.618652L651.123291,140.548584L651.149658,140.522461L651.17749,140.497559L651.206543,140.474121L651.246094,140.446045L651.327881,140.39209L651.359375,140.372559L651.399414,140.35083L651.723389,140.1875L651.751953,140.173828L652.082764,140.025146L652.112305,140.012695L652.449219,139.87915L652.480957,139.867432L653.885498,139.387207L653.948975,138.781982L654.0354,137.736328L654.037109,137.717773L654.217529,136.064209L654.219238,136.050293L654.386475,134.756348L654.387695,134.746582L654.572754,133.455322L654.574219,133.445557L654.776855,132.157227L654.778564,132.147705L654.999023,130.862305L655.000732,130.852539L655.239014,129.570068L655.240967,129.560303L655.496826,128.281494L655.498779,128.272217L655.771973,126.996834L655.773926,126.987061L656.05127,125.775627L655.670654,125.852539L654.227783,126.196037L652.800293,126.586182L651.369873,127.029541L651.333984,127.039551L651.280518,127.050781L651.195801,127.06543L651.158936,127.071037L651.121826,127.074463L651.074707,127.075928L650.956055,127.075928L650.918701,127.074951L650.881592,127.072021L650.844727,127.067139L650.808105,127.060303L650.771729,127.051758L650.736084,127.041023L650.689941,127.02417L650.583496,126.981201L650.549316,126.966309L650.515869,126.949707L650.483398,126.931396L650.451904,126.911377L650.421631,126.889893L650.392578,126.866699L650.361328,126.838867L650.277832,126.76001L650.251465,126.733643L650.226318,126.706047L650.202881,126.677254L650.180908,126.646973L650.1604,126.615723L650.141846,126.583504L650.120117,126.540283L650.070557,126.432617L650.055908,126.398438L650.042969,126.363533L650.028076,126.313721L650.003906,126.220459L649.995605,126.184082L649.989014,126.147461L649.984375,126.110352L649.981934,126.073242L649.981201,126.035889L649.982178,126.004883L649.987061,125.911133L649.98999,125.874023L649.994873,125.837158L650.001465,125.800537L650.010254,125.76416L650.020752,125.728523L650.029785,125.702881L650.062256,125.614502L650.075928,125.580078L650.091553,125.546143L650.108887,125.513184L650.12793,125.480957L650.148438,125.449951L650.166016,125.42627L650.224609,125.350098L650.248047,125.321037L650.273193,125.293457L650.299561,125.26709L650.327148,125.242188L650.356201,125.21875L650.387695,125.196037L650.568115,125.072998L650.599365,125.052979L650.626953,125.036873L650.818115,124.932129L650.851318,124.915039L650.880615,124.901863L651.080811,124.816406L651.115479,124.802727L651.145508,124.79248L651.35376,124.726563L651.362549,124.723633L652.761963,124.300781L652.781006,124.29541L654.191162,123.911621L654.209961,123.906738L655.630371,123.561768L655.649658,123.557373L656.647949,123.343987L657.137939,121.42749L657.139893,121.419922L657.30957,120.785156L657.469971,120.133301L657.614258,119.492188L657.745361,118.848877L657.753662,118.8125L657.763916,118.776863L657.776123,118.741463L657.790039,118.707031L657.799805,118.685791L657.848633,118.583008L657.865479,118.549797L657.884033,118.517578L657.904297,118.486076L657.926025,118.456047L657.949463,118.427002L657.974365,118.39917L657.999268,118.374512L658.130859,118.248543L658.158447,118.223389L658.187256,118.199951L658.217285,118.177727L658.239258,118.163094L658.391113,118.065918L658.423096,118.046631L658.455811,118.029053L658.489502,118.013428L658.513428,118.003418L658.681152,117.937263L658.716064,117.924561L658.751709,117.913567L658.788086,117.904541L658.813232,117.899406L658.992188,117.866463L659.029053,117.860603L659.076904,117.856201L659.289795,117.843018L659.586426,117.786133L659.926758,117.709473L659.963379,117.702148L660.015625,117.695313L660.051514,117.691887L660.088623,117.689453L660.125977,117.688721L660.163086,117.690193L660.200195,117.693359L660.237061,117.698486L660.273682,117.705811L660.294434,117.710693L660.320313,117.717293L660.356201,117.727539L660.391357,117.739502L660.426025,117.753166L660.45752,117.767578L660.465332,117.770264L660.5,117.783943L660.533936,117.799316L660.567139,117.816406L660.614014,117.844727L660.743896,117.930183L660.774414,117.95166L660.803955,117.974373L660.832031,117.998779L660.858887,118.024658L660.884521,118.051758L660.908447,118.080322L660.928955,118.107178L661.017578,118.229492L661.038574,118.260246L661.058105,118.291992L661.075684,118.324707L661.091797,118.358398L661.105957,118.392822L661.118408,118.427979L661.125488,118.451424L661.166992,118.59668L661.17627,118.632813L661.183594,118.669189L661.189209,118.706047L661.192627,118.743156L661.194336,118.780518L661.193848,118.817627L661.191895,118.850098L661.179199,119.005127L661.175293,119.042236L661.169434,119.078857L661.161377,119.115227L661.151611,119.151611L661.131104,119.219971L661.12915,119.234619L661.122314,119.27124L661.111572,119.315193L660.871094,120.178223L660.869141,120.185303L660.619629,121.046143L660.619385,121.046143L660.372314,121.908943L660.368408,121.922852L660.233398,122.360352L660.14209,122.6875L661.124512,122.536133L661.131592,122.535156L662.348145,122.360352L662.358154,122.358887L663.576904,122.20166L663.587158,122.200439L664.807617,122.060791L664.817871,122.05957L666.040527,121.937737L666.050781,121.936768L667.274902,121.83252L667.285156,121.831787L668.510742,121.745117L668.520752,121.744629L669.747559,121.675537L669.758057,121.674797L670.98584,121.623779L670.99292,121.623543L671.365479,121.611816L671.402832,121.611816L671.444336,121.61377L671.815674,121.643311L671.84668,121.646477L671.984863,121.663567L672.021484,121.669189L672.058105,121.676514L672.094238,121.686043L672.129639,121.697273L672.160645,121.70874L672.288086,121.759521L672.32251,121.77417L672.355957,121.790771L672.388428,121.808838L672.419922,121.828613L672.445313,121.846443L672.555908,121.92749L672.585449,121.950439L672.613525,121.974609L672.640625,122.000488L672.666016,122.027588L672.687988,122.053467L672.775635,122.161621L672.79834,122.191162L672.81958,122.221916L672.838867,122.253662L672.856689,122.286377L672.872803,122.320068L672.887207,122.354492L672.904053,122.403809L672.946289,122.543701L672.956055,122.57959L672.964111,122.615967L672.969971,122.652832L672.974121,122.689941L672.976318,122.727051L672.976318,122.764397L672.975098,122.793213L672.966309,122.934807L672.963135,122.972168L672.958008,123.009033L672.950684,123.04541L672.94165,123.081787L672.930664,123.117188L672.917969,123.152344L672.909668,123.172119L672.853516,123.30249L672.837891,123.336433L672.820557,123.369377L672.801514,123.401367L672.780762,123.432373L672.758545,123.462158L672.734619,123.490723L672.715576,123.511467L672.614746,123.617432L672.588379,123.643799L672.560791,123.668701L672.531738,123.692139L672.501465,123.713867L672.470215,123.734131L672.437988,123.752693L672.404785,123.769531L672.370605,123.784668L672.335693,123.798103L672.300293,123.80957L672.264404,123.819092L672.227783,123.82666L672.189209,123.832764L671.910645,123.868156L671.878418,123.871582L671.598389,123.894287L671.565674,123.896004L671.285156,123.905762L671.253174,123.90625L670.984375,123.903557L670.532227,123.918457L669.36499,123.972412L668.192383,124.043457L667.039063,124.129387L665.871094,124.233398L664.707031,124.353271L663.55542,124.488533L662.39209,124.641853z"/>
</svg>
