<?xml version="1.0" encoding="UTF-8"?>
<svg xmlns="http://www.w3.org/2000/svg" xmlns:xlink="http://www.w3.org/1999/xlink" width="68.730mm" height="40.398mm" viewBox="1907.408691 -1113.373779 68.729980 40.397949">
    <path transform="translate(1941.966064,-1104.455078)" style="stroke:#000000;stroke-width:0.05mm;fill:none" d="M-21.057861,-5.818359C-21.110003,-5.800743,-21.156908,-5.770593,-21.19458,-5.730469C-21.79459,-5.190512,-22.30419,-4.557757,-22.703857,-3.856445C-23.680561,-2.168421,-24.530468,-0.410185,-25.246582,1.403809C-26.35154,4.113979,-27.35218,6.86549,-28.246338,9.652344L-28.168213,9.652344L-28.124268,9.636719C-27.742521,9.548601,-27.35746,9.475546,-26.969971,9.417725C-25.219196,9.093475,-23.463764,8.78067,-21.708984,8.480225L-21.441895,8.428223L-21.214111,8.375977L-21.005859,8.350098C-20.971527,8.105233,-20.956263,7.858073,-20.960205,7.61084C-20.917236,5.703903,-20.881104,3.933861,-20.845947,2.026611L-20.826172,1.388184C-20.791988,0.669771,-20.748196,-0.048405,-20.694824,-0.765625L-20.693115,-0.974121C-20.715218,-2.285198,-20.770576,-3.595327,-20.859131,-4.903564C-20.879915,-5.192762,-20.928728,-5.479267,-21.004883,-5.759033L-21.031738,-5.818359L-21.057861,-5.818359z"/>
    <path transform="translate(1941.294922,-1110.125)" style="stroke:#000000;stroke-width:0.05mm;fill:none" d="M16.716309,10.018555L16.564941,10.101563C16.313345,10.288374,16.095341,10.516533,15.920166,10.776367C15.053543,12.023899,14.448704,13.433693,14.141846,14.921387L14.158936,14.945801C14.178694,14.960191,14.202915,14.967097,14.227295,14.965332C14.607074,15.009548,14.984829,14.866262,15.239746,14.581299C16.094833,13.714913,16.714363,12.644664,17.039795,11.47168C17.154034,11.065493,17.167448,10.637395,17.078857,10.224854C17.067635,10.100776,16.968805,10.001929,16.844727,9.990723L16.716309,10.018555z"/>
    <path transform="translate(1941.294922,-1110.125)" style="stroke:#000000;stroke-width:0.05mm;fill:none" d="M24.779541,11.074951L24.618408,11.123779C24.186333,11.361458,23.800575,11.674479,23.479004,12.04834C22.163044,13.61983,21.285038,15.510663,20.933594,17.530029C20.879894,17.740528,20.886497,17.962017,20.952637,18.168945L20.985107,18.208008C21.092363,18.227997,21.201895,18.186281,21.268799,18.100098C21.516684,17.876266,21.742249,17.628954,21.942383,17.361572C23.348423,15.585838,24.602985,13.695263,25.692871,11.709717C25.644722,11.521011,25.538889,11.352019,25.390137,11.226318C25.223995,11.078192,24.995636,11.021588,24.779541,11.074951z"/>
    <path transform="translate(1942.895996,-1111.044067)" style="stroke:#000000;stroke-width:0.05mm;fill:none" d="M-3.658691,10.622314L-3.814941,10.641846C-4.271516,10.768982,-4.666237,11.057455,-4.926025,11.453857L-5.065186,11.657715C-5.663918,12.77668,-6.051425,13.996046,-6.208496,15.255371C-6.394772,16.275377,-6.351233,17.324141,-6.081055,18.325195L-6.00293,18.507568C-5.873431,18.379456,-5.75569,18.239981,-5.651123,18.09082C-5.496231,17.867086,-5.344406,17.641382,-5.195557,17.413574C-4.394306,16.012869,-3.676739,14.565908,-3.046631,13.080322C-2.794285,12.437658,-2.555485,11.789495,-2.330566,11.136719C-2.550815,10.942215,-2.805443,10.790432,-3.081299,10.689209C-3.266514,10.624815,-3.463658,10.601974,-3.658691,10.622314z"/>
    <path transform="translate(1228.01001,-1218.540039)" style="stroke:#000000;stroke-width:0.05mm;fill:none" d="M681.329346,126.128418L681.142822,126.184334L681.106934,126.194092L681.084961,126.199219L680.880859,126.242188L680.844238,126.248779L680.821777,126.251953L680.614746,126.277588L680.577637,126.28125L680.554688,126.282471L680.345703,126.290527L680.308594,126.291023L680.27124,126.289551L680.234131,126.286133L680.197266,126.280762L680.160645,126.273438L680.124512,126.26416L680.089111,126.25293L680.054199,126.23999L680.019775,126.225342L679.986572,126.20874L679.953857,126.190666L679.922363,126.170647L679.897705,126.15332L679.779541,126.06665L679.75,126.043701L679.721924,126.019531L679.695068,125.993652L679.669434,125.966553L679.640381,125.931877L679.550049,125.81665L679.527832,125.786873L679.507324,125.755623L679.488281,125.723633L679.471191,125.690666L679.455566,125.656738L679.441895,125.62207L679.429932,125.58667L679.419922,125.550781L679.411865,125.514397L679.405762,125.477783L679.401367,125.440666L679.39917,125.403557L679.398682,125.37793L679.398682,125.143547L679.399658,125.106201L679.402588,125.069092L679.407471,125.032227L679.414307,124.995613L679.422852,124.959229L679.433594,124.923576L679.446045,124.888428L679.460205,124.853996L679.476318,124.820313L679.494141,124.787598L679.513672,124.755859L679.534668,124.725098L679.557373,124.695557L679.585449,124.66333L679.675537,124.564941L679.701416,124.538094L679.728516,124.512703L679.75708,124.48877L679.779785,124.471443L679.886475,124.393311L679.916992,124.37207L679.94873,124.352539L679.981445,124.334473L680.006592,124.322273L680.126221,124.266602L680.1604,124.251709L680.195313,124.23877L680.230957,124.227539L680.258301,124.220207L680.379883,124.190666L681.439697,123.912354L681.456543,123.908203L682.527344,123.654793L682.544434,123.651123L683.621338,123.424072L683.638428,123.420647L684.303711,123.297363L684.587402,122.418953L684.590088,122.410637L685.019531,121.134033L685.022461,121.125732L685.467773,119.854492L685.470703,119.846191L685.931641,118.580566L685.93457,118.57251L686.410889,117.312737L686.414063,117.304443L686.906006,116.050537L686.90918,116.04248L687.416504,114.794678L687.419922,114.786621L687.942383,113.545174L687.948486,113.531013L688.458252,112.389893L688.469971,112.365227L689.022705,111.245117L689.035156,111.220947L689.630371,110.122559L689.643799,110.098877L690.280762,109.023933L690.307129,108.982674L690.624268,108.522713L690.64624,108.492683L690.658691,108.476807L691.011475,108.044678L691.035889,108.016357L691.049805,108.001457L691.436279,107.599609L691.462891,107.573486L691.478027,107.55957L691.896729,107.189697L691.925293,107.165771L691.958252,107.141113L692.214111,106.960938L692.245117,106.94043L692.2771,106.921387L692.310059,106.904053L692.334473,106.892578L692.617676,106.766602L692.6521,106.752441L692.687256,106.73999L692.7229,106.729492L692.748779,106.723137L693.050781,106.654297L693.087158,106.646973L693.124023,106.641602L693.161133,106.637939L693.188232,106.636719L693.500977,106.627693L693.53833,106.627693L693.575439,106.629387L693.612549,106.633301L693.656738,106.640381L693.808105,106.669678L693.844482,106.677727L693.875488,106.686279L694.001953,106.723877L694.037354,106.735352L694.084961,106.75415L694.20459,106.806641L694.238525,106.82251L694.28125,106.845947L694.392578,106.911873L694.424072,106.931877L694.463867,106.960213L694.566406,107.039063L694.595215,107.0625L694.631592,107.095947L694.723633,107.186523L694.749512,107.213379L694.780762,107.25L694.861572,107.351318L694.884033,107.380859L694.912354,107.423576L694.980469,107.534912L694.999023,107.567139L695.020996,107.611328L695.075684,107.731453L695.090332,107.765633L695.104736,107.805656L695.270508,108.313957L695.281006,108.349609L695.286621,108.37207L695.408447,108.891602L695.416016,108.927979L695.419678,108.951172L695.496826,109.479248L695.501465,109.516113L695.503174,109.539551L695.535156,110.073242L695.536377,110.108147L695.554443,111.829102L695.554443,111.835449L695.557373,113.556396L695.557373,113.562737L695.545166,115.283691L695.545166,115.289787L695.518066,117.010742L695.494385,118.78418L695.494385,118.786377L695.464844,120.561768L695.459961,120.982422L695.45874,121.290039L696.276367,121.154541L696.825928,121.053963L696.852051,121.049797L697.407715,120.969482L697.434326,120.966057L697.747559,120.932861L697.751465,120.831543L697.752197,120.816162L697.873779,118.776123L697.876953,118.73999L697.889893,118.623291L697.894775,118.586433L697.901855,118.549797L697.910889,118.513672L697.921631,118.478027L697.928711,118.45752L697.968506,118.348633L697.982178,118.313957L697.997803,118.280029L698.014893,118.24707L698.033936,118.215088L698.043945,118.199219L698.108154,118.102539L698.129639,118.072021L698.152588,118.042717L698.177246,118.014648L698.203125,117.988037L698.218994,117.9729L698.30542,117.893311L698.333496,117.868896L698.362793,117.845703L698.393066,117.824463L698.424805,117.804443L698.457275,117.786377L698.490723,117.77002L698.525146,117.755371L698.566406,117.740479L698.843018,117.650146L698.878662,117.639397L698.914795,117.630623L698.947754,117.624512L699.23291,117.577393L699.269775,117.572273L699.306885,117.569092L699.339844,117.567871L699.628906,117.564209L699.66626,117.564697L699.703369,117.567139L699.73584,117.571037L700.023682,117.611076L700.060547,117.617188L700.096924,117.625237L700.132813,117.63501L700.168213,117.646729L700.202881,117.6604L700.236816,117.675781L700.261719,117.688477L700.346924,117.734131L700.37915,117.752693L700.410645,117.772713L700.440918,117.794434L700.469971,117.817871L700.497803,117.842529L700.529297,117.874023L700.59375,117.942627L700.618652,117.970459L700.641846,117.999512L700.663574,118.029793L700.683838,118.061279L700.702148,118.093513L700.720215,118.129387L700.76001,118.214844L700.774902,118.249023L700.787842,118.283943L700.799072,118.31958L700.80835,118.355713L700.815674,118.39209L700.822021,118.435791L700.832764,118.531487L700.835938,118.568604L700.837158,118.605217L700.844971,119.581299L700.844971,119.591057L700.84375,119.77417L700.900879,119.692139L700.925537,119.658691L701.339111,119.131592L701.363037,119.102783L701.388184,119.075203L701.572266,118.885498L701.599121,118.859619L701.634033,118.829102L701.838379,118.662842L701.867676,118.640137L701.907715,118.613037L702.130615,118.472412L702.162598,118.453369L702.203857,118.432129L702.442383,118.318359L702.476318,118.303223L702.51123,118.289787L702.546631,118.27832L702.58252,118.268547L702.626465,118.259521L702.839355,118.222412L702.876221,118.217041L702.91333,118.213623L702.950439,118.211906L702.987793,118.212402L703.041016,118.216309L703.251465,118.23999L703.28833,118.245117L703.324951,118.252197L703.361084,118.26123L703.396729,118.271973L703.445557,118.290283L703.641113,118.371834L703.675049,118.387207L703.708252,118.404053L703.740479,118.422852L703.771729,118.443123L703.814941,118.475594L703.982666,118.611328L704.010986,118.635498L704.04834,118.671631L704.204834,118.834717L704.239014,118.873047L704.382568,119.046143L704.415039,119.088379L704.544922,119.27124L704.573242,119.314453L704.689453,119.506104L704.714355,119.550781L704.816406,119.750237L704.838623,119.797607L704.925781,120.00415L704.944336,120.052979L705.016357,120.266113L705.03125,120.316162L705.087646,120.534668L705.091309,120.549797L705.347656,121.641113L705.353516,121.668701L705.564453,122.760498L705.71167,123.473389L705.778564,123.728523L705.859619,123.984619L705.912109,124.125L705.91333,124.123291L705.937012,124.076897L705.95166,123.60498L705.954834,123.556396L706.012207,122.981453L706.017578,122.940918L706.107666,122.371834L706.115234,122.331543L706.237793,121.769287L706.247559,121.729248L706.402344,121.175537L706.414551,121.136467L706.60083,120.592773L706.615234,120.554443L706.832764,120.021729L706.849365,119.984131L707.097656,119.464111L707.116455,119.427727L707.39502,118.921387L707.421143,118.877441L707.622314,118.566887L707.643311,118.536133L707.655518,118.52002L707.880127,118.228027L707.903564,118.198967L707.917236,118.183594L708.163818,117.911873L708.189453,117.88501L708.204102,117.87085L708.471436,117.620361L708.499268,117.595703L708.514648,117.583008L708.80127,117.354736L708.831055,117.332283L708.848389,117.320313L709.15332,117.115967L709.184814,117.095947L709.201904,117.086182L709.523193,116.90625L709.556152,116.888924L709.574951,116.880127L709.911377,116.726318L709.945557,116.71167L709.980713,116.69873L710.016357,116.687988L710.057129,116.677727L710.306152,116.624023L710.350098,116.615967L710.601074,116.578133L710.644043,116.572998L710.896484,116.550537L710.940918,116.548103L711.193848,116.541496L711.237793,116.541748L711.490967,116.550781L711.535645,116.553711L711.787598,116.578613L711.831055,116.584229L712.081787,116.624763L712.124512,116.633057L712.268555,116.665527L712.289307,116.050293L712.289063,116.050293L712.332764,114.608643L712.333008,114.603027L712.391602,113.064697L712.39209,113.05542L712.529541,110.380127L712.530029,110.371834L712.698486,107.698242L712.716797,107.333252L712.727539,106.963623L712.704834,106.591553L712.703613,106.554199L712.704346,106.516853L712.707764,106.472168L712.725586,106.306152L712.730469,106.269287L712.737305,106.232674L712.746094,106.196289L712.761475,106.146973L712.796631,106.046631L712.809814,106.011719L712.824951,105.977539L712.841797,105.944344L712.860107,105.912109L712.878906,105.883057L712.937744,105.796143L712.959473,105.765869L712.982666,105.736816L713.007324,105.70874L713.033447,105.682373L713.060547,105.657471L713.139648,105.588867L713.168457,105.565193L713.198486,105.543213L713.229492,105.522713L713.261719,105.503662L713.292236,105.487793L713.387695,105.440918L713.421631,105.425537L713.456299,105.411621L713.504395,105.396004L713.814697,105.306641L713.85083,105.297119L713.87085,105.292717L714.186768,105.228996L714.223389,105.222656L714.245117,105.219971L714.56543,105.182617L714.602539,105.179199L714.622314,105.178223L714.944824,105.166748L714.982178,105.16626L715.019531,105.167969L715.056641,105.171387L715.075928,105.174072L715.205811,105.193604L715.242432,105.200203L715.278809,105.208504L715.314697,105.218987L715.349854,105.231201L715.39917,105.251709L715.516113,105.305908L715.549561,105.32251L715.582031,105.34082L715.613525,105.360603L715.643799,105.382317L715.682861,105.413818L715.780273,105.498291L715.807861,105.523438L715.833984,105.550049L715.858887,105.577881L715.88208,105.606934L715.913086,105.651611L715.983887,105.761963L716.003174,105.793953L716.020752,105.82666L716.036621,105.860352L716.050537,105.89502L716.062988,105.930183L716.073242,105.96582L716.081787,106.002197L716.088379,106.038818L716.093018,106.075928L716.095215,106.10376L716.10083,106.197998L716.102051,106.235107L716.101318,106.272461L716.09668,106.327881L716.085205,106.42041L716.07959,106.457031L716.072266,106.493652L716.057617,106.546387L716.029541,106.635498L716.017578,106.670898L716.003662,106.705322L715.979492,106.755371L715.967773,106.777588L715.887939,107.33252L715.822998,107.960449L715.784424,108.577637L715.678467,113.382813L715.649902,115.817871L715.772217,115.502693L715.785889,115.469727L715.991211,115.01001L716.006836,114.977287L716.23584,114.527588L716.244141,114.511719L716.511719,114.017326L716.530273,113.985107L716.544678,113.962646L716.85498,113.495361L716.876465,113.464844L716.892822,113.443604L717.243896,113.006104L717.268066,112.977539L717.285889,112.958252L717.675537,112.552979L717.702148,112.526863L717.737061,112.496094L717.976807,112.299316L718.006104,112.276611L718.036865,112.255127L718.079102,112.229248L718.347168,112.078369L718.380127,112.061043L718.414063,112.04541L718.459717,112.027588L718.75,111.925293L718.7854,111.913818L718.821533,111.904053L718.869873,111.894287L719.175537,111.843513L719.212402,111.838379L719.249512,111.835213L719.286621,111.833977L719.337646,111.835449L719.459229,111.843262L719.496338,111.84668L719.551025,111.855217L719.668701,111.878418L719.705078,111.886467L719.740967,111.896729L719.776367,111.908447L719.811035,111.922363L719.837891,111.93457L720.019287,112.02124L720.05249,112.038094L720.099854,112.066162L720.266113,112.174072L720.296875,112.195313L720.340332,112.229736L720.489746,112.357178L720.517578,112.38208L720.554932,112.420174L720.686523,112.565193L720.710938,112.593513L720.743652,112.636963L720.855469,112.797607L720.875977,112.828613L720.903076,112.876221L720.993652,113.050781L721.009766,113.084473L721.030518,113.134773L721.098389,113.320801L721.110107,113.355957L721.120117,113.391853L721.124512,113.410637L721.167969,113.606689L721.175049,113.643066L721.178711,113.666748L721.222168,113.993652L721.226807,114.039787L721.248779,114.367683L721.250244,114.413567L721.250977,114.741463L721.249512,114.787109L721.229248,115.114014L721.225098,115.159668L721.183838,115.484619L721.176758,115.529541L721.114746,115.851563L721.104492,115.896729L721.021484,116.214844L721.008301,116.259033L720.904541,116.571777L720.897461,116.592293L720.69751,117.138672L720.684082,117.172607L720.456787,117.707031L720.44165,117.740227L720.187744,118.261467L720.171143,118.293213L719.891357,118.800781L719.873047,118.832283L719.567627,119.324951L719.547852,119.355217L719.217773,119.831787L719.196289,119.86084L718.841797,120.320801L718.818848,120.349373L718.706787,120.480469L718.740967,120.519287L718.888916,120.636467L719.052246,120.724373L719.259033,120.792236L719.765869,120.905273L720.287842,120.98291L720.811523,121.023193L721.898926,121.028809L722.429199,121.027832L722.476807,121.029297L722.577637,121.035889L722.614746,121.039307L722.651611,121.044678L722.688232,121.052002L722.724365,121.061043L722.76001,121.072273L722.810303,121.091309L722.929932,121.142326L722.963867,121.157959L722.996826,121.175293L723.028809,121.194092L723.059814,121.214844L723.089844,121.237061L723.118652,121.260742L723.147461,121.287598L723.237549,121.375488L723.263672,121.4021L723.288086,121.430183L723.311279,121.459473L723.332764,121.48999L723.352539,121.521477L723.370605,121.553963L723.385986,121.584717L723.438965,121.69873L723.453613,121.733147L723.466797,121.768066L723.477783,121.803467L723.487061,121.8396L723.494629,121.876221L723.5,121.913094L723.503662,121.953133L723.511963,122.082764L723.513428,122.119873L723.512939,122.157227L723.510254,122.194344L723.505859,122.231453L723.499512,122.268066L723.491211,122.304443L723.484131,122.329826L723.347412,122.791992L723.330811,122.841553L723.160645,123.29248L722.810791,124.23877L722.594238,124.865723L722.399658,125.495361L722.226074,126.130371L722.073486,126.771973L721.94165,127.420647L721.832764,128.063232L721.744141,128.719727L721.677734,129.368652L721.645996,129.854248L721.644775,130.326172L721.673584,130.801514L721.731934,131.276367L721.755859,131.429932L721.779053,131.52002L721.813721,131.48584L721.917725,131.352295L722.261475,130.869629L722.577881,130.37085L722.865723,129.859131L723.130615,129.322998L723.568115,128.400635L723.966797,127.467293L724.326172,126.526123L724.612549,125.677254L724.600586,124.974121L724.601074,124.937737L724.626709,124.188957L724.628906,124.151863L724.634766,124.103027L724.729248,123.501953L724.736816,123.461906L724.865234,122.868652L724.874756,122.829353L725.036377,122.245117L725.04834,122.206299L725.24292,121.632813L725.25708,121.594971L725.483887,121.033447L725.500244,120.996094L725.759033,120.447998L725.777344,120.412109L726.067139,119.878906L726.087402,119.843987L726.407959,119.32666L726.435303,119.285637L726.780029,118.806641L726.80249,118.7771L726.81543,118.76123L727.197266,118.3125L727.222168,118.284912L727.236572,118.27002L727.653564,117.85376L727.680664,117.828133L727.696045,117.814697L728.14624,117.433113L728.175293,117.409668L728.206543,117.387451L728.502197,117.186523L728.533447,117.16626L728.575928,117.142578L728.892578,116.979248L728.926025,116.963127L728.970947,116.94458L729.304932,116.820557L729.340088,116.808594L729.387207,116.795647L729.734863,116.712646L729.771484,116.704826L729.80835,116.698967L729.840088,116.695557L730.019043,116.68042L730.056396,116.678223L730.09375,116.678223L730.140381,116.680656L730.315186,116.695801L730.352295,116.699951L730.38916,116.706047L730.434082,116.716309L730.601807,116.760246L730.637695,116.770752L730.672852,116.782959L730.714111,116.800049L730.871094,116.87085L730.904541,116.886963L730.937256,116.904793L730.974365,116.927979L731.117676,117.023933L731.147949,117.045647L731.177246,117.068604L731.211182,117.098633L731.336914,117.217773L731.363281,117.244141L731.388184,117.271973L731.41626,117.306877L731.521729,117.447273L731.543213,117.477783L731.563232,117.509033L731.586426,117.551033L731.667969,117.710693L731.684082,117.744377L731.703125,117.791023L731.797363,118.050049L731.809082,118.085449L731.821045,118.129387L731.884277,118.396729L731.891846,118.43335L731.898682,118.478271L731.93042,118.750977L731.933594,118.788094L731.935059,118.833977L731.934814,119.109383L731.933594,119.149406L731.917236,119.433838L731.913818,119.474854L731.881104,119.75708L731.875244,119.796631L731.826904,120.075928L731.818848,120.115723L731.754639,120.391602L731.744385,120.430656L731.664551,120.702637L731.6521,120.741211L731.556885,121.008301L731.541992,121.046387L731.431396,121.308113L731.414307,121.345459L731.288574,121.60083L731.280029,121.617683L730.972656,122.202148L730.95459,122.234619L730.94458,122.250977L730.592529,122.80835L730.571777,122.839363L730.560547,122.854736L730.165527,123.382317L730.142334,123.411621L730.129883,123.426033L729.693359,123.921631L729.657959,123.959229L729.470703,124.143066L729.443359,124.168457L729.406494,124.19873L729.200928,124.357178L729.170898,124.37915L729.131592,124.404541L728.910156,124.536873L728.877686,124.554932L728.836426,124.575203L728.601807,124.68042L728.567383,124.694817L728.52417,124.709961L728.278809,124.787109L728.24292,124.797363L728.197998,124.807373L727.94458,124.855469L727.933105,124.857422L727.924805,124.987297L727.924561,125.350594L727.948486,125.731453L727.948975,125.737061L727.966309,126.054199L728.013916,126.321777L728.09375,126.581787L728.202148,126.825928L728.217773,126.85083L728.227783,126.862297L728.240234,126.872559L728.253418,126.880371L728.269531,126.886467L728.283447,126.889397L728.299072,126.890137L728.321045,126.887207L728.448486,126.851563L728.578857,126.798828L728.704102,126.731201L728.834473,126.640633L729.281494,126.286873L729.706787,125.907471L730.111084,125.501953L730.496582,125.066887L731.123779,124.341553L731.717773,123.612297L732.297119,122.858398L732.794678,122.17041L732.807617,122.137451L733.087646,121.475342L733.109863,121.427979L733.4375,120.789063L733.463135,120.743156L733.836914,120.130371L733.865723,120.086906L734.28418,119.502197L734.318359,119.458008L734.523193,119.2146L734.547852,119.186768L734.561279,119.173103L734.783936,118.94751L734.810791,118.921631L734.824707,118.90918L735.063477,118.702637L735.092285,118.678963L735.10791,118.667236L735.362061,118.480713L735.392822,118.459229L735.408447,118.449219L735.676514,118.283203L735.70874,118.264397L735.726074,118.255371L736.00708,118.111076L736.040771,118.094727L736.057861,118.087402L736.350098,117.965332L736.38501,117.951897L736.40332,117.945557L736.705811,117.84668L736.741455,117.835938L736.78125,117.826424L737.131836,117.753166L737.168457,117.746582L737.205566,117.741943L737.238281,117.739258L737.589844,117.719971L737.627197,117.718987L737.664551,117.719971L737.695557,117.722168L738.04248,117.754883L738.07959,117.759277L738.116211,117.765633L738.145996,117.772461L738.48291,117.855469L738.518799,117.865227L738.554199,117.876953L738.581787,117.887703L738.903076,118.019043L738.937256,118.033943L738.970459,118.050781L738.996826,118.065666L739.296387,118.243408L739.328125,118.263184L739.358398,118.284668L739.383301,118.304199L739.440918,118.351318L739.570068,118.278809L739.603027,118.261467L739.636719,118.24585L739.688965,118.225594L739.845947,118.172119L739.881592,118.161133L739.91748,118.151863L739.96875,118.142326L740.131592,118.117683L740.168457,118.113037L740.205811,118.110352L740.258057,118.109863L740.422852,118.114502L740.459961,118.116463L740.49707,118.120613L740.549316,118.129387L740.71167,118.163567L740.748047,118.172363L740.783691,118.182861L740.835449,118.20166L740.991211,118.265633L741.025146,118.280762L741.05835,118.297607L741.09082,118.316162L741.107178,118.326424L741.252197,118.420174L741.282715,118.441162L741.3125,118.463623L741.348145,118.494629L741.477539,118.614014L741.504395,118.639893L741.529785,118.667236L741.553467,118.696037L741.575928,118.72583L741.59668,118.756844L741.618164,118.793457L741.700928,118.943604L741.718018,118.976563L741.733398,119.010498L741.74707,119.04541L741.758789,119.080566L741.768555,119.116699L741.776367,119.152344L741.808838,119.320801L741.814941,119.357422L741.819092,119.394531L741.821289,119.431641L741.821777,119.468987L741.820068,119.506104L741.815674,119.549316L741.79248,119.723389L741.789795,119.741699L741.652832,120.5979L741.651367,120.605469L741.509277,121.435303L741.365723,122.611076L741.281006,123.738281L741.244141,124.871834L741.255371,126.010246L741.313965,127.124023L741.383057,127.591797L741.483398,128.064941L741.613281,128.532715L741.770752,128.987549L741.981689,128.770264L742.229248,128.477051L742.45459,128.167725L742.669678,127.824951L743.325195,126.71875L743.94751,125.588379L744.53418,124.438477L745.087891,123.263428L745.348389,122.701897L745.606934,122.130623L745.611816,122.119629L745.769531,121.786133L745.853516,121.590584L745.869141,121.556641L745.881104,121.533447L745.989258,121.333252L746.007813,121.301033L746.02124,121.279793L746.146484,121.089844L746.167725,121.059334L746.183838,121.038567L746.325928,120.860107L746.349854,120.831543L746.375244,120.804199L746.4021,120.77832L746.430176,120.753906L746.459717,120.730957L746.490234,120.709717L746.510986,120.696289L746.60791,120.636963L746.640137,120.618408L746.67334,120.601563L746.70752,120.586433L746.742432,120.572998L746.777832,120.561523L746.828613,120.548576L746.936768,120.525146L746.973389,120.518311L747.010254,120.513184L747.047363,120.510246L747.084717,120.509033L747.12207,120.509773L747.172119,120.51416L747.281982,120.527344L747.318848,120.532707L747.355469,120.540039L747.391602,120.549316L747.427002,120.560303L747.461914,120.573242L747.510986,120.595207L747.612793,120.645264L747.645752,120.662598L747.677979,120.681641L747.708984,120.702148L747.73877,120.724373L747.767578,120.748291L747.794922,120.773438L747.820801,120.800293L747.845459,120.828133L747.859375,120.845459L747.92749,120.932617L747.949707,120.962646L747.970215,120.993652L747.989258,121.025879L748.006348,121.058838L748.027832,121.106934L748.067871,121.207283L748.080566,121.242432L748.091797,121.277832L748.10083,121.313957L748.108154,121.350594L748.115234,121.403557L748.125488,121.51123L748.12793,121.54834L748.128662,121.585693L748.127197,121.622803L748.124023,121.659912L748.115967,121.712402L748.095215,121.820801L748.087158,121.857178L748.077637,121.892578L747.9375,122.356934L747.925781,122.392326L747.761475,122.848389L747.748047,122.883057L747.560303,123.329826L747.544922,123.363533L747.375488,123.714363L747.366211,123.747307L747.354248,123.782471L747.340332,123.817139L747.32959,123.841057L746.957275,124.625237L746.952881,124.634277L746.569824,125.412842L746.546631,125.456299L746.523926,125.495361L746.509521,125.529793L746.490967,125.570557L746.017822,126.526863L746.007568,126.546883L745.504395,127.487297L745.493164,127.507317L744.959961,128.431152L744.948242,128.450684L744.385498,129.357178L744.360107,129.395264L744.04248,129.840332L744.010986,129.881348L743.662354,130.301514L743.628174,130.3396L743.250244,130.733643L743.213135,130.769775L742.807129,131.135742L742.778809,131.159912L742.749268,131.182617L742.712158,131.207764L742.419922,131.393311L742.387939,131.412598L742.355225,131.429932L742.314697,131.448486L741.998047,131.581787L741.963379,131.595215L741.927979,131.606934L741.885742,131.618408L741.55127,131.69751L741.514893,131.705078L741.478027,131.710693L741.433838,131.715088L741.088379,131.737549L741.051025,131.739014L741.013916,131.738525L740.976807,131.736084L740.939697,131.731689L740.903076,131.725342L740.871826,131.718262L740.694824,131.674561L740.658936,131.664795L740.628174,131.654785L740.45752,131.594482L740.422852,131.581055L740.392334,131.567627L740.229004,131.490967L740.195801,131.474365L740.168701,131.458984L740.01416,131.367432L739.982666,131.347656L739.955811,131.328857L739.810791,131.222412L739.781494,131.199707L739.758057,131.179688L739.623535,131.05957L739.596436,131.033936L739.573242,131.01001L739.450684,130.876465L739.42627,130.848389L739.40625,130.822998L739.296631,130.677246L739.269043,130.637939L739.107422,130.389893L739.08667,130.356201L738.939453,130.100098L738.921143,130.065674L738.78833,129.802246L738.771484,129.766846L738.653564,129.496826L738.638672,129.459473L738.536133,129.183105L738.523682,129.146484L738.436279,128.864746L738.425781,128.827393L738.35376,128.540771L738.344971,128.501709L738.289063,128.210938L738.28418,128.182373L738.154541,127.320068L738.150146,127.283203L738.065918,126.415771L738.063232,126.37793L738.025146,125.50708L738.024414,125.46875L738.033203,124.608147L737.290771,125.590584L736.962646,126.071777L736.94043,126.102539L736.577881,126.577881L736.554199,126.607178L736.166992,127.0625L736.141846,127.09082L735.730713,127.525146L735.70459,127.551033L735.472412,127.772217L735.444824,127.797363L735.419434,127.818123L735.167236,128.014893L735.137207,128.036865L735.109619,128.05542L734.839111,128.226318L734.807129,128.245361L734.777588,128.260986L734.490723,128.404541L734.456787,128.42041L734.422363,128.434326L734.395752,128.443848L734.270264,128.485352L734.234619,128.496094L734.198242,128.504883L734.157959,128.512451L734.029785,128.532715L733.99292,128.537598L733.955566,128.540527L733.920166,128.541504L733.791504,128.541748L733.75415,128.540771L733.717041,128.538086L733.681396,128.533447L733.555176,128.513916L733.518311,128.507324L733.482178,128.498535L733.447998,128.48877L733.326172,128.449951L733.290771,128.4375L733.256348,128.423584L733.224365,128.408691L733.109375,128.351318L733.07666,128.33374L733.044678,128.314453L733.013916,128.293701L732.908203,128.218262L732.878418,128.195801L732.849854,128.171875L732.821777,128.145508L732.727539,128.05249L732.70166,128.025635L732.67749,127.997803L732.547119,127.839111L732.52417,127.809807L732.50293,127.779297L732.480713,127.743408L732.378662,127.56665L732.36084,127.533691L732.344971,127.500237L732.328857,127.460938L732.25708,127.269783L732.244873,127.234619L732.234619,127.19873L732.224854,127.156487L732.185303,126.95459L732.178711,126.913818L732.144287,126.661133L731.92334,126.898933L731.905029,126.917969L731.528076,127.294678L731.509033,127.312988L731.118164,127.675537L731.098877,127.692627L730.695068,128.040771L730.674561,128.057861L730.257813,128.390869L730.237061,128.406738L729.807617,128.724609L729.7771,128.746094L729.759521,128.757324L729.411865,128.973145L729.379883,128.991943L729.339844,129.012207L728.970703,129.186035L728.936523,129.201172L728.89502,129.216553L728.508301,129.346924L728.472656,129.35791L728.429443,129.368652L728.029053,129.454102L727.992432,129.460938L727.955566,129.46582L727.908691,129.469238L727.666992,129.47876L727.629639,129.479248L727.579346,129.476807L727.341064,129.456787L727.303955,129.452637L727.255859,129.444336L727.023193,129.395996L726.987061,129.387451L726.941406,129.373779L726.717041,129.29834L726.681885,129.285645L726.636963,129.266113L726.42334,129.164063L726.390137,129.146973L726.348877,129.122803L726.148438,128.995605L726.117432,128.974609L726.078369,128.944824L725.893311,128.792969L725.865234,128.768555L725.861084,128.764648L725.85791,128.772705L725.589111,129.416992L725.581055,129.435791L725.293701,130.072266L725.284912,130.09082L724.979248,130.718506L724.967529,130.741699L724.724609,131.19751L724.713867,131.216553L724.457275,131.664307L724.446045,131.68335L724.175537,132.123047L724.163574,132.141846L723.879395,132.572998L723.858643,132.602783L723.625732,132.919678L723.603027,132.949219L723.580322,132.975342L723.317383,133.266357L723.291748,133.293213L723.266602,133.317139L722.975586,133.580078L722.947266,133.604492L722.919922,133.625488L722.603027,133.858398L722.57251,133.879639L722.540771,133.899414L722.508057,133.917236L722.488281,133.927246L722.204346,134.062744L722.170166,134.077881L722.135742,134.091064L721.839844,134.196045L721.804443,134.207764L721.769531,134.217041L721.464355,134.291016L721.427979,134.298828L721.391113,134.304688L721.079102,134.346436L721.042236,134.350586L721.004883,134.352539L720.967529,134.352539L720.921143,134.349854L720.703613,134.330322L720.666748,134.326172L720.629883,134.319824L720.607178,134.314941L720.396973,134.266357L720.36084,134.25708L720.325439,134.24585L720.305176,134.238525L720.105469,134.162842L720.070801,134.148682L720.037109,134.132813L720.018066,134.122803L719.831055,134.02124L719.798828,134.002686L719.767578,133.982178L719.750977,133.970703L719.579102,133.845215L719.549561,133.82251L719.521484,133.798096L719.505371,133.783203L719.351318,133.63501L719.325195,133.608643L719.300537,133.580811L719.286865,133.563965L719.153076,133.39502L719.130859,133.365234L719.110107,133.334473L719.0979,133.314697L718.986816,133.126221L718.96875,133.09375L718.949707,133.053955L718.826172,132.775879L718.809814,132.736084L718.703613,132.451904L718.689697,132.410889L718.601074,132.121094L718.5896,132.078857L718.519043,131.784424L718.510254,131.742432L718.45752,131.444336L718.451416,131.401367L718.416992,131.100586L718.41333,131.057617L718.397217,130.754395L718.39624,130.711426L718.398438,130.406982L718.39917,130.381836L718.422607,129.829834L718.423828,129.807861L718.464355,129.257324L718.466309,129.235107L718.52417,128.686279L718.526855,128.664551L718.601563,128.11792L718.60498,128.095703L718.696777,127.551758L718.700684,127.530029L718.809326,126.989014L718.813965,126.967529L718.939453,126.429932L718.944824,126.408447L719.087158,125.874512L719.092773,125.854736L719.613525,124.106201L719.618164,124.091057L719.870605,123.306877L719.78125,123.30957L719.746826,123.309807L719.408203,123.303223L719.387695,123.30249L718.955322,123.281487L718.90625,123.277344L718.477051,123.226563L718.428955,123.219238L718.003906,123.13916L717.955811,123.128418L717.536865,123.019043L717.501221,123.008537L717.462646,122.995117L717.161865,122.880127L717.127441,122.865967L717.086182,122.845947L716.803711,122.698242L716.77124,122.680183L716.733154,122.65625L716.471191,122.478027L716.440918,122.456047L716.40625,122.427979L716.167236,122.221443L716.139648,122.196289L716.108643,122.164551L715.894775,121.931877L715.870361,121.903809L715.843018,121.868652L715.656738,121.612297L715.635742,121.581787L715.623535,121.561523L715.623291,121.726318L715.659912,125.888672L715.732178,127.949463L715.815186,130.025391L715.815674,130.042725L715.822021,130.452637L715.821533,130.48999L715.819092,130.5271L715.814941,130.564209L715.808594,130.60083L715.800537,130.637451L715.761475,130.79248L715.751465,130.828369L715.739502,130.863525L715.72583,130.898193L715.710205,130.932129L715.692139,130.966309L715.614014,131.105713L715.594971,131.137695L715.574219,131.168701L715.552002,131.198486L715.528076,131.227295L715.500732,131.256592L715.386719,131.372559L715.359863,131.398438L715.331787,131.422852L715.30249,131.445801L715.271973,131.467285L715.240234,131.487061L715.207764,131.505127L715.174316,131.52124L715.139893,131.535889L715.103516,131.549072L714.999756,131.583496L714.964111,131.594238L714.927979,131.603271L714.891357,131.610107L714.851318,131.615723L714.743652,131.627197L714.706543,131.630127L714.669189,131.631104L714.631836,131.630127L714.592773,131.627197L714.485107,131.615723L714.477783,131.614746L714.450439,131.621094L714.283203,131.657227L714.246582,131.664307L714.201416,131.670166L714.031738,131.686523L713.994385,131.688965L713.950195,131.689697L713.779541,131.686523L713.742188,131.684814L713.696289,131.679932L713.526611,131.656738L713.48999,131.650879L713.453613,131.642822L713.41748,131.633057L713.382324,131.621338L713.347412,131.60791L713.313477,131.592529L713.280518,131.575439L713.243408,131.553467L713.125488,131.479004L713.094482,131.458252L713.064453,131.436035L713.046875,131.421631L712.941406,131.332764L712.913574,131.307861L712.886963,131.281738L712.873291,131.26709L712.781494,131.166016L712.75708,131.137695L712.734131,131.108154L712.722656,131.091797L712.645264,130.979736L712.625,130.94873L712.606201,130.916504L712.597168,130.899414L712.535156,130.778076L712.519043,130.744385L712.504883,130.709961L712.497803,130.691162L712.452393,130.5625L712.440918,130.526855L712.431396,130.490967L712.426758,130.470459L712.398682,130.335449L712.39209,130.298828L712.387451,130.261719L712.385498,130.241455L712.322998,129.369629L712.322021,129.352783L712.287109,128.619385L712.286621,128.601807L712.269775,127.867683L712.269531,127.850342L712.270508,127.115967L712.262939,125.809082L712.262939,125.806152L712.260742,124.494141L712.253662,123.329826L712.171143,123.499023L712.165039,123.510986L711.567871,124.67749L711.561523,124.689453L710.942139,125.844727L710.923828,125.877197L710.906006,125.905029L710.676758,126.246834L710.650146,126.283691L710.399658,126.609863L710.370361,126.645508L710.099365,126.95459L710.067627,126.98877L709.776611,127.279793L709.737793,127.315918L709.60791,127.427727L709.578857,127.451172L709.543701,127.476807L709.40332,127.572273L709.37207,127.592293L709.334473,127.613533L709.185059,127.692139L709.151855,127.70874L709.113037,127.725098L708.956299,127.786377L708.921143,127.799072L708.880859,127.811043L708.718262,127.854492L708.682129,127.863281L708.639648,127.87085L708.472656,127.895752L708.435547,127.900391L708.393311,127.903084L708.223633,127.90918L708.186279,127.909668L708.143311,127.907471L707.972412,127.894287L707.935303,127.890633L707.898438,127.884773L707.862061,127.877197L707.825928,127.867432L707.789063,127.855469L707.554688,127.772217L707.519775,127.758789L707.48584,127.743652L707.452637,127.726807L707.431885,127.714844L707.219238,127.5896L707.1875,127.569817L707.156982,127.548576L707.127686,127.525627L707.108643,127.509277L706.923828,127.345703L706.896729,127.320313L706.87085,127.293457L706.846436,127.265381L706.831055,127.246338L706.679443,127.048828L706.657471,127.018547L706.640625,126.992683L706.493652,126.757568L706.489746,126.751221L706.42041,126.788818L706.387207,126.805656L706.353027,126.820801L706.313232,126.835938L706.032959,126.932861L705.997559,126.944092L705.961426,126.953613L705.924805,126.960938L705.888184,126.966553L705.701416,126.989754L705.664307,126.993408L705.627197,126.995117L705.606201,126.995117L705.420166,126.993156L705.383057,126.991699L705.345947,126.988533L705.326904,126.986076L705.144531,126.959961L705.107666,126.953613L705.071533,126.945557L705.052734,126.94043L704.875732,126.890633L704.840088,126.879639L704.78833,126.859863L704.619629,126.787598L704.585693,126.771973L704.552734,126.754639L704.536133,126.745117L704.377686,126.650879L704.346191,126.630859L704.315674,126.609383L704.300537,126.5979L704.154541,126.482674L704.125977,126.45874L704.098633,126.43335L704.083984,126.418953L703.952881,126.283447L703.927734,126.255859L703.893311,126.213127L703.59375,125.810059L703.572266,125.779541L703.551025,125.745361L703.297852,125.313232L703.279785,125.280518L703.262451,125.244873L703.057373,124.787842L703.042969,124.753418L703.029541,124.715332L702.875,124.237297L702.860107,124.184334L702.677979,123.424072L702.672363,123.397713L702.519043,122.631348L702.51416,122.605469L702.389404,121.833977L702.385742,121.807617L702.35791,121.581787L702.17334,121.87915L701.924072,122.318123L701.69873,122.753418L701.48584,123.207283L701.289795,123.671387L701.113525,124.138672L700.731689,125.198486L700.69873,126.596916L700.698975,126.596916L700.669434,128.114258L700.668945,128.126953L700.654541,128.512451L700.6521,128.549561L700.649658,128.573486L700.626953,128.756104L700.621338,128.792969L700.616699,128.817383L700.578125,128.997559L700.569336,129.033691L700.562012,129.058594L700.507568,129.234863L700.495605,129.27002L700.481934,129.304688L700.466309,129.338623L700.449219,129.371582L700.430176,129.403564L700.409424,129.43457L700.387207,129.4646L700.363281,129.493164L700.338135,129.520508L700.311523,129.546631L700.284668,129.570068L700.196045,129.644287L700.166992,129.66748L700.136475,129.689209L700.105225,129.709229L700.061768,129.733154L699.959961,129.784912L699.92627,129.800781L699.891846,129.815186L699.856689,129.827393L699.812744,129.840332L699.702148,129.868408L699.665771,129.876465L699.628906,129.882813L699.592041,129.887207L699.539795,129.890137L699.078857,129.898438L699.026367,129.897461L698.681396,129.878174L698.644287,129.875L698.607422,129.870117L698.570801,129.863037L698.534668,129.854248L698.500977,129.844238L698.406494,129.813477L698.371338,129.801025L698.336914,129.786621L698.303467,129.770752L698.270508,129.75293L698.229004,129.726807L698.147949,129.672119L698.117432,129.650391L698.088379,129.627197L698.060547,129.602539L698.033936,129.576416L698.002686,129.541748L697.939697,129.467285L697.91626,129.438232L697.894531,129.407959L697.874512,129.376709L697.855957,129.344238L697.836182,129.304443L697.794678,129.213867L697.780029,129.179443L697.76709,129.144531L697.756104,129.108887L697.74707,129.072754L697.740234,129.038086L697.696289,128.782715L697.690918,128.74585L697.687012,128.69751L697.674072,128.438477L697.673096,128.40918L697.668213,127.852783L697.652832,126.999763L697.652832,126.990967L697.641113,124.94751L697.641113,124.932129L697.669434,123.156487L697.227295,123.214363L696.591797,123.311768L695.941406,123.426758L695.443359,123.526123L695.40625,124.992683L695.378662,128.627686L695.372559,132.258789L695.387695,135.885498L695.424072,139.513184L695.496338,141.495605L695.609619,143.42749L695.627197,143.445068L695.652344,143.472656L695.676025,143.501465L695.697998,143.531494L695.725342,143.573975L695.782227,143.669922L695.800293,143.702637L695.81665,143.736084L695.834229,143.777344L695.867676,143.864258L695.880127,143.899414L695.890625,143.935059L695.899414,143.971191L695.903809,143.993408L695.919922,144.082764L695.925537,144.119629L695.929199,144.156738L695.930908,144.193848L695.931152,144.212891L695.930664,144.30249L695.929443,144.3396L695.92627,144.376953L695.918701,144.428955L695.902344,144.516602L695.894531,144.553223L695.884766,144.589111L695.868164,144.638428L695.83667,144.721436L695.82251,144.756104L695.806641,144.789795L695.780029,144.837402L695.733643,144.914063L695.713623,144.945557L695.691895,144.97583L695.656982,145.018311L695.59668,145.086182L695.571045,145.113281L695.544189,145.13916L695.516113,145.163574L695.500488,145.176025L695.426758,145.233154L695.396729,145.255127L695.37915,145.266846L695.244873,145.354248L695.213135,145.373779L695.18042,145.391602L695.146729,145.407715L695.126953,145.41626L694.97998,145.476563L694.945068,145.489746L694.909668,145.501221L694.873535,145.510742L694.853271,145.515137L694.697754,145.547119L694.661133,145.553711L694.624023,145.55835L694.586914,145.561035L694.565186,145.561768L694.404785,145.564209L694.367676,145.563721L694.330322,145.561279L694.293457,145.557129L694.244141,145.54834L694.112793,145.52002L694.07666,145.51123L694.025635,145.495361L693.900635,145.451172L693.865967,145.437744L693.817627,145.415527L693.699951,145.356201L693.666992,145.338623L693.623047,145.311279L693.51416,145.238037L693.483887,145.216553L693.443848,145.184082L693.344971,145.0979L693.317627,145.072754L693.28125,145.034912L693.193604,144.936523L693.169434,144.907959L693.138672,144.866211L693.063477,144.756836L693.042969,144.725586L693.016602,144.678711L692.955322,144.559326L692.932617,144.510254L692.820313,144.243164L692.806641,144.208496L692.794434,144.171143L692.71167,143.894287L692.701904,143.858398L692.693848,143.820557L692.641113,143.536621L692.635254,143.499756L692.631348,143.462158L692.557617,142.519287L692.556641,142.50708L692.516846,141.852295L692.466064,141.150635L692.46582,141.145752L692.42041,140.449219L692.337891,139.465576L692.33667,139.447266L692.279297,138.461914L692.27832,138.443848L692.246094,137.457275L692.24585,137.439209L692.23877,136.452148L692.23877,136.44751L692.237061,133.556396L692.237061,133.549072L692.264893,130.658203L692.265137,130.64917L692.322754,128.075439L692.326172,126.48877L692.29834,124.884277L692.268066,124.070801L691.570557,124.20166L691.557861,124.203857L688.673828,124.691162L685.980225,125.181877L685.904785,125.444344L685.903564,125.447998L685.199707,127.845947L684.539307,130.270508L683.93335,132.680176L683.371094,135.117188L683.208008,136.017334L683.208252,136.017334L683.05127,136.949463L683.043945,136.986084L683.034912,137.022217L683.020508,137.068115L683.007324,137.105469L682.993896,137.140137L682.97876,137.174316L682.961914,137.20752L682.943359,137.239746L682.918457,137.277588L682.861328,137.358887L682.839111,137.388672L682.81543,137.41748L682.790283,137.444824L682.763672,137.470947L682.735596,137.495605L682.711182,137.515137L682.633789,137.574219L682.603516,137.596191L682.572266,137.616455L682.539795,137.63501L682.506592,137.651855L682.472656,137.666748L682.443115,137.678223L682.351563,137.711182L682.316162,137.7229L682.280273,137.732666L682.243652,137.740723L682.207031,137.746582L682.169922,137.750732L682.140381,137.752686L682.041016,137.756836L682.01123,137.757324L681.933838,137.757324L681.896484,137.756348L681.859375,137.753418L681.82251,137.748535L681.785889,137.741699L681.749512,137.733154L681.713867,137.722412L681.685303,137.712646L681.615234,137.686523L681.580811,137.672363L681.546875,137.656738L681.51416,137.639404L681.482178,137.620117L681.451172,137.599365L681.421387,137.576904L681.397949,137.557617L681.341309,137.508545L681.313965,137.483398L681.287842,137.456787L681.262939,137.428955L681.239746,137.399902L681.218018,137.369385L681.197998,137.338135L681.181641,137.30957L681.144775,137.241455L681.12793,137.208008L681.112793,137.174072L681.099609,137.13916L681.088135,137.10376L681.078369,137.067871L681.070801,137.03125L681.066406,137.004883L681.032715,136.772705L681.02832,136.73584L681.026123,136.701904L681.015869,136.468262L681.015137,136.430908L681.016357,136.39624L681.029785,136.162598L681.032715,136.125488L681.037598,136.09082L681.074707,135.859375L681.075684,135.853271L681.210205,135.058594L681.212891,135.043457L681.364502,134.252197L681.367676,134.236816L681.536621,133.44873L681.540039,133.433594L681.726318,132.649658L681.726563,132.647949L682.213379,130.621338L682.216309,130.610352L682.735107,128.592041L682.738037,128.581055L683.289063,126.571289L683.291992,126.560303L683.563232,125.629639L683.273438,125.688477L681.656494,126.043701L681.329346,126.128418z"/>
    <path transform="translate(1941.294922,-1110.125)" style="stroke:#000000;stroke-width:0.05mm;fill:none" d="M6.231689,5.258789L6.189209,5.283203C6.034657,5.424891,5.90289,5.589599,5.798584,5.771484C4.906688,7.084263,4.387969,8.614683,4.297852,10.199219C4.273759,10.477715,4.287966,10.75808,4.340088,11.032715C4.404414,10.930208,4.478577,10.834214,4.561523,10.746094L4.678711,10.589844C5.528148,9.442039,6.114921,8.121822,6.397705,6.722168C6.457219,6.258422,6.445857,5.788213,6.364014,5.327881C6.342079,5.291404,6.307772,5.264016,6.267334,5.250732L6.231689,5.258789z"/>
</svg>
